<svg xmlns="http://www.w3.org/2000/svg" width="69.042" height="69.042" viewBox="0 0 69.042 69.042">
  <path id="Icon_awesome-dribbble" data-name="Icon awesome-dribbble" d="M35.084.562A34.521,34.521,0,1,0,69.6,35.084,34.56,34.56,0,0,0,35.084.562ZM57.908,16.482A29.346,29.346,0,0,1,64.566,34.85,68.907,68.907,0,0,0,44.034,33.9c-.8-1.954-1.556-3.674-2.591-5.793C52.345,23.657,57.286,17.323,57.908,16.482Zm-3.278-3.41c-.53.755-4.969,6.721-15.454,10.651a157.391,157.391,0,0,0-11-17.262,29.41,29.41,0,0,1,26.456,6.61ZM22.548,8.444A188.142,188.142,0,0,1,33.48,25.5,109.984,109.984,0,0,1,6.22,29.089,29.594,29.594,0,0,1,22.548,8.444ZM5.6,35.128c0-.3.006-.6.015-.9a108.769,108.769,0,0,0,30.3-4.2c.844,1.652,1.65,3.329,2.391,5-10.662,3-20.35,11.627-25.13,19.809A29.368,29.368,0,0,1,5.6,35.128ZM16.985,58.39c3.08-6.3,11.439-14.424,23.327-18.479a122.566,122.566,0,0,1,6.29,22.36A29.426,29.426,0,0,1,16.985,58.39Zm34.574,1.182A127.264,127.264,0,0,0,45.83,38.548,43.279,43.279,0,0,1,64.2,39.809,29.538,29.538,0,0,1,51.559,59.572Z" transform="translate(-0.563 -0.563)" fill="#7c7877"/>
</svg>
