<svg id="Layer_1" data-name="Layer 1" xmlns="http://www.w3.org/2000/svg" width="796.2" height="804.3" viewBox="0 0 796.2 804.3"><defs><style>.cls-1{fill:#ffe600;}.cls-2,.cls-3,.cls-4,.cls-5{fill:none;stroke:#171716;stroke-miterlimit:10;}.cls-2{stroke-width:2px;}.cls-3{stroke-width:0.75px;}.cls-4{stroke-width:0.25px;}.cls-6{fill:#151515;}</style></defs><path class="cls-1" d="M134.6,397c-.5.5-1.3,1.1-1.9,1.8l-.9,1-1,1.1-1.7,2.2-1.8,2.5-.8,1.2-.3.6-.4.6-1.6,2.6a20.1,20.1,0,0,0-1.4,2.5l-1.4,2.5c-1,1.7-1.8,3.3-2.5,4.8l-.6,1.2-.6,1.2c-.4.8-.7,1.6-1.1,2.3l-1.9,4.3-.9,2a16.7,16.7,0,0,0-.8,2,14.2,14.2,0,0,0-.8,1.8l-.2.5h-.1v.2l-.3.7-.8,1.3c-.9,2-1.6,4.4-2,5.1h.4l.6-1.7c.5-1.1.9-2.2,1.3-3.3l2.7-6.1c1.5-3.8,3.2-7.3,4.8-10.5.7-1.6,1.4-3,2.2-4.5l1.1-2,1.1-2a37.9,37.9,0,0,1,2-3.4c.3-.6.7-1.1,1-1.6s.6-1,1-1.5a45,45,0,0,1,3.5-4.9l1.6-1.8a6.7,6.7,0,0,1,1.4-1.5l.7-.6.6-.6.6-.4.3-.2.3-.2,1-.5.7-.2h.6V395c.1-.2.1-.3.2-.3h0a.3.3,0,0,0-.1.2h-.1v.4h-.3C136.6,395.4,134,397.5,134.6,397Z" transform="translate(-18.7 163)"/><path class="cls-1" d="M175.3,322.8c-1-1.8-1.8-3.6-2.8-5.4a273.4,273.4,0,0,0,6.2,41.8A257.9,257.9,0,0,1,175.3,322.8Z" transform="translate(-18.7 163)"/><path class="cls-1" d="M180.3,248.2c-3.9,12.2,2.6,32,12.2,53.1s21.8,43.6,27.9,63.3l-.3,7.5c6.1,4.1,12.1,8.1,18.2,12-11.4-22-24.9-47.2-35.8-71.4S183.1,265.3,180.3,248.2Z" transform="translate(-18.7 163)"/><path class="cls-1" d="M190.6,129.5c-2.6,3.6-4.2-2.3-4.3-2.9s.2.7.8,4.9c.3,2.1.8,4.9,1.4,8.8.2,1,.3,2,.5,3.1s.4,2.3.6,3.6.9,5.2,1.4,8.3c.3-2.6.7-3.3.9-4.8A183.1,183.1,0,0,1,190.6,129.5Z" transform="translate(-18.7 163)"/><path class="cls-1" d="M191.9,150.5a36.8,36.8,0,0,0,1,5.6c.3,1.1.5,1.5.7,1.5s.5-2.2.5-4.5C194.2,148.6,193.5,143.2,191.9,150.5Z" transform="translate(-18.7 163)"/><path class="cls-1" d="M78.4,61.7l-1.2-3.1,113.3-4.5c.4,8.6.8,17.1,1.8,25.6a33.7,33.7,0,0,0,2.6-6.9c.9-2.9,1.6-6.1,2.4-8.9,1.7-5.5,2.9-9.1,3.5-4.5.1-1.5.1-2.8.1-3.7L67,61c4.7,14.3,7.5,19.3,9.1,18.4S78.1,71.5,78.4,61.7Z" transform="translate(-18.7 163)"/><path class="cls-1" d="M96.3,90.7c-2.2-5.5-4.3-11.1-6.4-16.6C89.3,77.4,90,82.1,96.3,90.7Z" transform="translate(-18.7 163)"/><path class="cls-1" d="M184.3,69.7l-.2-4.2c-.1-1.3-.1-2.7-.1-4.1V53.2l-100.1,4c2,5.6,4,11.3,6.1,16.9,1.1-5.4,5.5-6.9-5.5-16.4,1.8.8,2.1.4,1.6-1.1l95.6-3.8c.1,1.2.5,3.2,1,6.1s.5,3,.8,4.8S184,67.5,184.3,69.7Z" transform="translate(-18.7 163)"/><path class="cls-1" d="M180.8,87.2c-.5,2-1,4.1-1.4,6.2l-1.2,5.9a71.4,71.4,0,0,1-2.2,8.9c-.7,1.9-1.5,2.3-2.5.4a38.1,38.1,0,0,1-1.5-4.7c-.5-2.2-1-5.1-1.5-8.8,0,3.5.1,6.8.2,9.8s.5,5.8.7,8.4c.6,5.1,1.3,9.1,2,12.3,1.5,6.2,3,8.6,4.2,7.5s1.1-2,1.5-4.3.7-5.3,1-9.2C180.5,111.9,180.6,101,180.8,87.2Z" transform="translate(-18.7 163)"/><path class="cls-1" d="M163,240.9l.6,6.1.6,6,.6,6.1.8,6.1,2.6,4.6,2.7,4.6,5.5,9.2c-2.8-4.6-5.4-15.9-7.5-25.7-1.1-5-2.1-9.5-3-12.7S164,240.3,163,240.9Z" transform="translate(-18.7 163)"/><path class="cls-1" d="M151.2,285c1,.5,1.3.3,1.2-.5a23.5,23.5,0,0,0-1.5-3.7,87.9,87.9,0,0,1-5.1-12.2,55,55,0,0,1-2.7-11.5,20,20,0,0,1-.2-4.1,8.7,8.7,0,0,1,.5-2.7l-.6-1.1-.3-.5-.2-.4-.8-1.4-1.6-2.7-3.1-5.5-6.3-11.2c.7,3.3,1.7,7.1,2.7,11.2s2.2,8.3,3.1,12.3,1.9,6.2,3.1,9.5c.3.9.7,1.7,1,2.5l1.1,2.6a6.1,6.1,0,0,0,.5,1.2l.6,1.3c.4.9.8,1.7,1.1,2.5l2.5,4.7,2.3,4.2C150.1,282.2,151.1,284.1,151.2,285Z" transform="translate(-18.7 163)"/><path class="cls-1" d="M143.4,250.3a100.2,100.2,0,0,0,5.7,9.8,95.1,95.1,0,0,0,9.2,12.3l3.4,3.5,3.9,3.6,4.7,3.6,5.4,3.5c2.1,1.2,4.2,2.2,6.3,3.2a60.3,60.3,0,0,0,7.1,2.6c2.4.7,4.9,1.3,7.4,1.8a63.6,63.6,0,0,0,7.5.8l48.9,2.9,2.9-41.6.9-12.8L254,255.9l-7.7,41-42.1-3.7a38.6,38.6,0,0,1-4.9-.6,35.5,35.5,0,0,1-4.7-.9l-4.6-1.3-4.2-1.5a72.8,72.8,0,0,1-7.4-3.7,9.5,9.5,0,0,1-1.7-1l-1.4-.9-2.9-2-1.3-1-1.1-.9-2.3-1.9c-1.4-1.2-2.5-2.4-3.7-3.6l-3-3.2-.6-.8-.6-.7-1.2-1.3-1-1.4-.9-1.2L155,263l-2.6-3.8c-1.4-2.1-2.5-3.9-3.5-5.3a14,14,0,0,0-1.2-1.8l-1-1.2a4.5,4.5,0,0,0-1.5-1.4C144.3,249,143.7,249.4,143.4,250.3Z" transform="translate(-18.7 163)"/><path class="cls-1" d="M113.1,92.5c-5.8-12.6-11.5-25.3-17-38.2l75.3-3,.6,9c.2,2.9.6,5.9.8,8.8-.1-2.9-.4-5.9-.5-8.8l-.4-8.9L95.6,54.5q9.9,24.9,20.7,49.3C115.2,100,114.2,96.2,113.1,92.5Z" transform="translate(-18.7 163)"/><path class="cls-1" d="M162.5,138.9a43.7,43.7,0,0,1-1.2-4.9c-.2-.9-.3-1.7-.5-2.6l-.2-1.2V129a72.6,72.6,0,0,1-.6-9.3l130.8,6.7c1.7,6.9,3.3,13.8,4.8,20.8-1.2-6.9-2.5-13.8-3.8-20.7l-132.8-6.8c0,2.1.1,4.3.3,6.5a57.8,57.8,0,0,0,.8,6.7,76.9,76.9,0,0,0,3.9,13.8,71.2,71.2,0,0,0,6.5,12.6l1,1.5.9,1.3c.6.8,1.2,1.7,1.9,2.5l2,2.4,1,1.2.6.6.4.5A72.2,72.2,0,0,0,193,181.1l3.2,1.9,1.5.7,1.4.7,2.8,1.3,1.3.5,1.2.4,2.4.9.6.2.6.2,1,.3,2.1.6,1,.3.9.2,3.7.7,3.1.5,1.5.2h1.4l1.4.2h4.1l-2.3-.2-4.9-.5-2.8-.5-1.5-.2-1.6-.4-1.6-.4-.8-.2h-.9l-3.7-1.1L207,187l-1.1-.4-2.1-.8-1.1-.5-1.3-.5-2.5-1.2-1.2-.6-.7-.4-.7-.4-2.9-1.7-1.5-.9-.7-.4-.8-.6-3.3-2.4-1.6-1.3-.8-.7-.9-.8q-1.8-1.5-3.6-3.3l-1.6-1.8a19.9,19.9,0,0,1-1.9-2.1c-1.2-1.4-2.4-2.9-3.5-4.4l-.8-1.2-.8-1.3a23.3,23.3,0,0,1-1.7-2.6c-1.1-1.8-2.1-3.7-3-5.5A72.4,72.4,0,0,1,162.5,138.9Z" transform="translate(-18.7 163)"/><path class="cls-1" d="M242.2,192.9a28.8,28.8,0,0,0-5,4.2l-3.3,3.5a34,34,0,0,1-3.4,3.2l-3.5,2.9,2.1-1.5,3.5-1.6a15.4,15.4,0,0,1,7.8-1.2c-1.1-.8-1.4-1.5-.4-3.2l.9-1.5a4.1,4.1,0,0,0,.5-.9,4.2,4.2,0,0,0,.4-1C241.9,195,242.1,194.1,242.2,192.9Z" transform="translate(-18.7 163)"/><path class="cls-1" d="M246,206.2c-.7-2-2.8-3.5-5.6-3.8C241.6,203.2,243.3,204.2,246,206.2Z" transform="translate(-18.7 163)"/><path class="cls-1" d="M268.6,179.9a37.1,37.1,0,0,0,5.3-7.5c2.2-4.3,4.7-10.8,6.8-21.4-3.4,4.7-6.7,9.4-10.1,14C270,169.6,269.4,174.7,268.6,179.9Z" transform="translate(-18.7 163)"/><path class="cls-1" d="M270.3,165.5l.3-.5c2-16.1,3.1-27.3,3.6-32.1C273.7,137,272.8,146.9,270.3,165.5Z" transform="translate(-18.7 163)"/><path class="cls-1" d="M268.1,183.6c.2-1.3.4-2.4.5-3.7C267.6,181.2,267.2,182,268.1,183.6Z" transform="translate(-18.7 163)"/><path class="cls-1" d="M134.4,187.8c5.9,9.6,14.1,24.5,19.8,31.5,2.9,3.5,5.1,5,6,2.9s.4-7.6-1.7-18.4c-5.4-6.3-7-3.2-9.4-2.1s-2.6.7-4.9-1.1a26.1,26.1,0,0,1-4.1-4.4A98.1,98.1,0,0,1,134.4,187.8Z" transform="translate(-18.7 163)"/><path class="cls-1" d="M254.9,200.4c-2.7,13.1-5.6,26.1-8.8,39,2.4-.3,7-6.8,7.2,4.4C254.2,229.3,254.7,214.8,254.9,200.4Z" transform="translate(-18.7 163)"/><path class="cls-1" d="M255,180.7c0,6.5,0,13.1-.1,19.7,1-4.8,2-9.7,2.9-14.6Z" transform="translate(-18.7 163)"/><path class="cls-1" d="M262.3,186c2,1.1,2.3,3.5,2,6.3a56.2,56.2,0,0,1-2.7,9.8,107.1,107.1,0,0,0,7.2-12.9c1.1-2.3,2-4.6,2.8-6.8s.7-2.3,1-3.5a13.1,13.1,0,0,0,.3-3.4l-3.5,1.2a13.7,13.7,0,0,0-3.8,2,5.8,5.8,0,0,0-2.1,2.8A20.7,20.7,0,0,0,262.3,186Z" transform="translate(-18.7 163)"/><path class="cls-1" d="M242,179.7a10.4,10.4,0,0,0,1.6-.6C243.2,178.5,242.6,178.3,242,179.7Z" transform="translate(-18.7 163)"/><path class="cls-1" d="M369.8,107c-.5,1.2-1.2,2.1-1.7,3.3l1.4.9Z" transform="translate(-18.7 163)"/><path class="cls-1" d="M274.6,172.5c-.1-.5-.5-.6-.8-.8l-1-.3-2.2-.2a19.8,19.8,0,0,0-4.7.7,49.3,49.3,0,0,0-9.7,3.6A85,85,0,0,1,265,174a35.7,35.7,0,0,1,4.6-.4l2.2.2a1.1,1.1,0,0,1,.8.7,1.9,1.9,0,0,1,.3,1,5.3,5.3,0,0,0,2-1,1.8,1.8,0,0,0,.4-.9A1.2,1.2,0,0,0,274.6,172.5Z" transform="translate(-18.7 163)"/><path class="cls-1" d="M350,259.2l-1.2,2.1-1.3,2-3,4.5-3.4,5.1-.6.9-.5.8-1,1.4-.9,1.4-.8,1.1-.7.8-1,1.3-1.1,1.2-1,1.2-2.1,2.1a32.3,32.3,0,0,1-4.5,3.8c.4,0-9.2,6.7-15.1,8.2a51.9,51.9,0,0,1-21,2.9c-8.6,1-33.8-8.3-42.7-25.3-10.1-20.5-6-17.1-7.6-20.3a57.9,57.9,0,0,1-.3-14.4l.2-1.5.3-1.5c.1-.9.3-1.9.5-2.9l.4-1.4.2-1a12.6,12.6,0,0,0,.5-1.6l.3-.9.3-.8.3-.9.3-.7.3-.9.3-.6.3-.7a8.9,8.9,0,0,1,.5-1,26.5,26.5,0,0,1,1.4-2.3l2.1-3.4a4.6,4.6,0,0,1,1.4-1.6,18,18,0,0,0,2-1.9l-3,1.5-.8.3h-.1l-.2.2-.3.4-.7,1-1.5,1.9-1.5,2.4-.5.9-.8,1.6-.3.8-.5,1.2-.5,1.2-.3,1-.4,1.2-.6,2.4-.2.7c-.1.6-.3,1.1-.4,1.7l-.6,3.6a37.2,37.2,0,0,0-.4,4,51.8,51.8,0,0,0,.2,8.8c.7,4.4-.2,2.6,2.4,11.9,3.1,18.5,31.5,39.7,48,38.5a55,55,0,0,0,25.7-3.7,53.2,53.2,0,0,0,14.2-8.2,48.8,48.8,0,0,0,5.4-4.8l1.7-1.9.7-.7,1.2-1.6,1-1.2.5-.6.8-1.2.5-.7,1.1-1.7.9-1.4,2.3-3.4c1.1-1.8,2.1-3.4,2.9-4.9C349.4,262.6,350.1,260.5,350,259.2Z" transform="translate(-18.7 163)"/><path class="cls-1" d="M244,181.4l-1,.4c.3.8.5,1,.6.9A2,2,0,0,0,244,181.4Z" transform="translate(-18.7 163)"/><path class="cls-1" d="M244,181.4a51.2,51.2,0,0,0,5.3-2.5l6.9-3.4a50.3,50.3,0,0,0-5.3,1.4,64.9,64.9,0,0,0-7.3,2.2A3.5,3.5,0,0,1,244,181.4Z" transform="translate(-18.7 163)"/><path class="cls-1" d="M316.1,45c1.9.2,3.9,2.9,5.7,7.7a60.9,60.9,0,0,1,2.2,8.7,103.5,103.5,0,0,1,1.6,11c1.6,16,.4,36.3-5.3,54.6.7,9.3,2.9,15,6.1,17.8s7.5,2.7,12.3.4,10.1-6.9,15.2-12.9a103.5,103.5,0,0,0,7.5-10.2c2.3-3.7,4.6-7.6,6.7-11.8-1.7-.7-3.4-1.1-4.9-6.3a82.2,82.2,0,0,1-2.4-12c-.4-2.8-.8-6.1-1.2-9.8s-1-8.1-1.5-13.1c-1.1,3.5-2.4,10.6-3.9,18.9s-3.3,17.5-5.3,25.4-3.9,14.1-5.7,16.4-3.4.5-4.6-7.8c-.1-12.8,0-21.8.4-28.5a69.8,69.8,0,0,1,2.1-14.7c.9-3.6,2.1-6.3,3.3-9.8.6-1.7,1.2-3.6,1.8-5.8a29.6,29.6,0,0,0,.8-3.7,24.2,24.2,0,0,0,.5-2.4,28.9,28.9,0,0,1,.4-2.9c-2.5,6.9-4.6,4.8-6.7-1s-4.2-15.5-6.6-24.6c-1.2-4.6-2.5-9-3.9-12.9a52.5,52.5,0,0,0-4.2-9.6c-1.5-2.4-3-3.8-4.5-4s-3.2,1.1-4.8,3.7c2.6,12.5,4.9,26,6.8,40.5-1.1.6-2.6-2.9-4.1-4.8S317,39.2,316.1,45Z" transform="translate(-18.7 163)"/><path class="cls-1" d="M358.9,187.1c-.3,2.9-.7,5.8-1.1,8.6l-.5,4.3c-.2,1.5-.5,2.9-.7,4.4.7-2.4,1.4-4.7,2-7s1.4-4.4,2.1-6.6c1.3-4.3,2.8-8.6,4.3-13,3.1-8.8,6.7-18.2,11.1-30.5-.3-7.1-.6-12.8-1.2-17.3a94.7,94.7,0,0,0-1.6-10.6c-1.3-5.2-2.5-7.2-3.8-8.2-1,13.5-2.2,27-3.9,40.7s-3.8,27.3-6.6,41.3C359,191.1,359,189.1,358.9,187.1Z" transform="translate(-18.7 163)"/><path class="cls-1" d="M256.5,216.8a9.2,9.2,0,0,1,1.8,3.2,4.2,4.2,0,0,1,.4,1v.2c.1.1,0,.3,0,.4v1c-.1,1.3-.2,2.6-.4,4s-.2,1.5-.4,2.5a4.6,4.6,0,0,0-.3.9v.7l-.4,1.1-.4,1.2a39.4,39.4,0,0,0-1.1,3.8c-.1.4-.3,1.4-.4,2.1a14.6,14.6,0,0,0-.3,2.2,34.7,34.7,0,0,0-.1,9c.5-5.3-5.7,16.7,28.5,33.9,17.4,3.8,24.7-.5,34.2-6.3l3.6-3a30.9,30.9,0,0,0,2.4-2.6l.8-.9,1.9-2.4.4-.6.2-.4a5.6,5.6,0,0,0,1-1.8l.3-.4v-.3l.4-1a2.5,2.5,0,0,0,.2-.7l.3-1.3a18.2,18.2,0,0,1,.7-2.5c.3-1.7.7-3.3,1.1-4.8s.4-3,.6-4.3a41,41,0,0,0,.2-6.8c-.2-1.7-.6-3-1.4-3.6s-1.8-.5-3.2.4l-2.4,2-3.3,3.3c-1.2,3.1-2.7,6.1-4,8.9a12.4,12.4,0,0,0-1,2l-.7,1.2-.3.6-.8,1.2-.5.8-.5.6-.9,1.2a28,28,0,0,1-3.3,3c2,1-26.6,17.9-39.7-14.1a25.3,25.3,0,0,1-.3-9.1c.1-.7.4-2,.4-2.2l.3-.9v-.6l.3-.8.3-.7c.6-1.6,1.2-3.1,1.7-4.6s.8-1.9,1.1-2.8.3-.9.5-1.3l.2-.8a22.6,22.6,0,0,0,.8-3,16.6,16.6,0,0,0,.4-7.8c-.3-1.8-1-3.3-1.4-5.2a19.2,19.2,0,0,1-.2-7.4c-3.4,9.1-5.4,13.1-6.3,14.1s-.9-.8-1.2-2.9-.6-4.3-1.9-4.5-3.5,1.4-7,6a99.7,99.7,0,0,1,4.1-14.8,72.4,72.4,0,0,1-9.8,12.3l.8-.4h.1c1.5-.7,2.4-.9,1.2.1s0,.4,0,.5a7.5,7.5,0,0,1,2.5,2.2c-1.3,1.9-1.9,2.2-3,3.9s-.8.5-.5-.9l.4-1.1v-.5a5,5,0,0,0,.2-1.2,12,12,0,0,0,.4-2.4,4.5,4.5,0,0,0-1.2-.6h-.1l-.8,3.1-.2.8-.8,2.2-2.1,5.4-.6,1.6-.4.9-.6,1.7-.3.9-.3,1.1a21.7,21.7,0,0,0-.7,2.4c0,.1-.3,1.4-.5,2.6s-.4,2.3-.6,3.5a51.4,51.4,0,0,0,.8,16.3c3.2,32.8,64.9,49.7,65.9,36,21.1-10.9,11.1-6.9,16.3-10,1.7-1.6,3.6-3.8,3.6-3.8l1.3-1.5a11.5,11.5,0,0,0,1-1.3l.9-1.3.6-.8.5-.7.5-.8.6-1,.6-1,.6-1.2,1.5-3.2c1-2.1,1.9-4.2,2.8-6.3l2.3-6,1.2-3,.9-2.9,1.8-5.7c.3-1,.6-1.9.8-2.8l.8-2.8,1.4-5.5,1.2-5.4c.4-1.8.9-3.6,1.2-5.4l1-5.3c.7-3.5,1.2-6.9,1.8-10.4l-3.9,14c-.7,2.5-1.6,5.3-2.4,8.1s-.8,2.9-1.3,4.4l-1.5,4.8c-.6,1.7-1,3.3-1.7,5.1s-1.3,3.6-2,5.5l-1,2.8a28.8,28.8,0,0,1-1.3,3.1c-.8,2.1-1.7,4.2-2.7,6.4s-2.2,4.7-3.4,7.1l-.5.9a9.3,9.3,0,0,1-.5,1l-1.2,2-.3.6-.6.9-.5.8-.4.5-.6.8-.7.9a20.9,20.9,0,0,1-1.4,1.7,40.4,40.4,0,0,1-3.5,3.7c-2.4.3,1.3,4.3-24.4,11.8-25,13.4-70.8-55.6-52.5-42.3-.2-8.6.5-9.7.5-10.5s.7-3.1.7-3.4l.4-1.3.3-1.2.2-.6.4-1,.4-1.1.2-.7.6-1.5.3-.7.5-1.1a8.7,8.7,0,0,1,.7-1.7l1.2-2.9.6-1.5.3-.6Z" transform="translate(-18.7 163)"/><path class="cls-1" d="M190.5,234.1c.4,2.5-.1,2.8-.6,3.2,1.8,2.1,3.2,3.4,3.5,3.1S192.5,238.4,190.5,234.1Z" transform="translate(-18.7 163)"/><path class="cls-1" d="M217.7,238c.1,3,.8,5.7.8,10.3v8.6H204.1l-3.2-.6a18.5,18.5,0,0,1-3.3-1.2l-1.7-.8-1.6-1a30,30,0,0,1-10-11.7c-1.8-4.6-1.9-6.7-1.8-7.7s.9-.7,1.8,0,4.6,4.6,5.6,3.5c-.9-1.1-2-2.5-3-4l-3-4.6a48.8,48.8,0,0,0-5.5-7c-1.6-1.5-2.7-1.6-2.8.6a19.9,19.9,0,0,0,.5,5.4q.3,1.8.9,4.2c.2.8.3,1.6.6,2.6s.6,2.2,1,3.4,2.7,3.6,4.2,5.4.8,1.7,1.3,2.6l.8,1.3.8,1.3,2,2.8,1.2,1.4.6.7.7.7a27.7,27.7,0,0,0,7,5.2,26.9,26.9,0,0,0,9.3,3.1l11.5,1.9,5.8-14.8c4.8-12.3,10.1-24.3,14.1-32.9s6.8-13.4,7-11.1a97.7,97.7,0,0,0-12.7,12.3C227.9,222.7,223.5,229,217.7,238Z" transform="translate(-18.7 163)"/><path class="cls-1" d="M261.5,155l7.9-1.3,19.3-3.1c3.3-.4,6.7-.9,10.1-1.1a45.1,45.1,0,0,1,5.2-.1h1.3l1,.7a5.2,5.2,0,0,1,.9,2,6.6,6.6,0,0,0,.3-3.6,1.9,1.9,0,0,0-.6-1l-.9-.7a25.6,25.6,0,0,0-3.5-2.2,79.8,79.8,0,0,0-8.3-3.2l-3.5,4.5c-7.5.1-12.8.6-16.3,1.4s-6.8,2.2-8.4,3.5A59.2,59.2,0,0,1,261.5,155Z" transform="translate(-18.7 163)"/><path class="cls-1" d="M374.5,99.7l8.6,9.2c-3.6-12.9-7.5-25.7-11.6-38.2C372.7,80.3,373.6,90,374.5,99.7Z" transform="translate(-18.7 163)"/><path class="cls-1" d="M371.3-9.1q4.1.3,8.1.9l-2-8.3-1-4.1c-.3-1.3-.7-2.7-1.1-4l-2.2-7.7c-.8-2.6-1.5-5.2-2.4-7.6C371.2-29.6,371.5-19.4,371.3-9.1Z" transform="translate(-18.7 163)"/><path class="cls-1" d="M391.6,210.3c2.4-5.7,4.7-11.4,7.2-17.1A140.3,140.3,0,0,0,391.6,210.3Z" transform="translate(-18.7 163)"/><path class="cls-1" d="M327.8,327.2l2,4.7C330.6,325.4,330.4,322.5,327.8,327.2Z" transform="translate(-18.7 163)"/><path class="cls-1" d="M48.2,110.6c-3.1,6.5-6.6,13.9-9.6,22.1-1.5,4.1-2.9,8.4-4,12.7-.6,2.1-1.1,4.3-1.5,6.4l-.6,3.2-.3,1.6v.7c0,.3-.1.5-.1,1a65.1,65.1,0,0,0,1.2,16.8,68.7,68.7,0,0,0,4.3,13.5l.9,1.9.4.9.6,1c.7,1.4,1.4,2.7,2.2,4a59.9,59.9,0,0,0,5.8,8,65,65,0,0,0,15.3,13.4,64,64,0,0,0,8.5,4.6l2.2.9,2,.8,4,1.3.5.2h.5c.5-.2,1-1.2,1.6-3.3a25.8,25.8,0,0,0,.4-4v-1.4h0l-1.3-.5-2.6-1.2L75.9,214a57.6,57.6,0,0,1-10.1-6.8,60.4,60.4,0,0,1-8.3-8.5,56.8,56.8,0,0,1-9.8-14.2,64.8,64.8,0,0,1-4.3-11.4,68.8,68.8,0,0,1-2-13.8l-.2-3.1v-2.4c-.1-1.6,0-3.1,0-4.6a121.7,121.7,0,0,1,1.3-15.9c.7-4.7,1.7-8.9,2.6-12.6.5-1.9,1-3.6,1.5-5.3S47.7,112.1,48.2,110.6Z" transform="translate(-18.7 163)"/><path class="cls-1" d="M265.8,393.7l-4.3,6.9c1.4,6.9,2.8,13.4,4.2,19.2,0-3.9-.1-8.1-.1-12.5S265.7,398.3,265.8,393.7Z" transform="translate(-18.7 163)"/><path class="cls-1" d="M235.1,367.2c4.6-11,9.1-22,13.8-32.9-1.9,3.6-4,8-6.3,13.5S237.8,359.6,235.1,367.2Z" transform="translate(-18.7 163)"/><path class="cls-1" d="M515.1,123.5c.8-2.4,1.6-4.9,2.5-7.4l2.4-7,1.2-3.4.6-1.8.3-.8.2-.4h0l18,14.3-.5-.4-1-.9-2.1-1.6-8.5-6.5-2.2-1.7-2.6-2-1.4-1-.3-.2h-.1l-.2-.2a.4.4,0,0,1-.1-.3v-1.7l-.8,1.2h0l1.1.9,2.8,2,1.3,1.1.7.5.5.4,2.2,1.6,4.2,3.2,4.2,3.3,2.1,1.6.5.4.2.2-19.6-15.5h0c-1.4,1.8-2.6,3.4-3.6,4.9s-2,2.8-2.8,4.1l-2.2,3.7a27.9,27.9,0,0,0-2.3,4.9,4.4,4.4,0,0,0-.3,1.5,1.7,1.7,0,0,0,0,1c.3,1.1,1.6.8,3,.7S514.8,122.2,515.1,123.5Z" transform="translate(-18.7 163)"/><path class="cls-1" d="M38.3,252.6a458.2,458.2,0,0,0,1.3,57.2C41.4,281.9,46.3,259,38.3,252.6Z" transform="translate(-18.7 163)"/><path class="cls-1" d="M446.8,300.2c3.8-10.3,4.6-15.2,2.7-15.9C445.3,294.8,443.8,301.2,446.8,300.2Z" transform="translate(-18.7 163)"/><path class="cls-1" d="M47.3,375c.4-4,.4-8,.6-12.1-3.3-16.4-6.5-32.9-8.3-53.1C38.3,330.3,38.7,353.6,47.3,375Z" transform="translate(-18.7 163)"/><path class="cls-1" d="M635.7,182.6l-2.9,5.1Z" transform="translate(-18.7 163)"/><path class="cls-1" d="M789.8,190.9c-2.2,7.3-6.7,18.9-11.3,30.1C781.3,215.8,785,206.7,789.8,190.9Z" transform="translate(-18.7 163)"/><path class="cls-1" d="M98.9,49c8.1-16.6.5-3.1,0,0Z" transform="translate(-18.7 163)"/><path class="cls-1" d="M176.5-10.1c-2.1,4.4-3.2,7.9-1.9,9.6C174-3.2,174.8-6.5,176.5-10.1Z" transform="translate(-18.7 163)"/><path class="cls-1" d="M119,536.8c0,.5.1.9.1,1.5C120.4,533.1,120.2,534,119,536.8Z" transform="translate(-18.7 163)"/><path class="cls-1" d="M115.7,26.4c-2.2,2.8-4.4,5.8-6.7,9.1-1.2,1.6-2.3,3.3-3.5,5l-3.4,5.4C104.4,42.9,108.5,36.9,115.7,26.4Z" transform="translate(-18.7 163)"/><path class="cls-1" d="M110.3,27.7c1.8-2.7,3.4-5.1,4.8-7.4l4.2-6.3C119.4,11.2,117.3,12.5,110.3,27.7Z" transform="translate(-18.7 163)"/><path class="cls-1" d="M87.9,72.3l3.3-7.1,3.6-6.7c1.1-2.2,2.3-4.3,3.5-6.4s2.5-4.2,3.8-6.2c-2.2,2.9-3.4,4.1-3.2,3.1l-4.4,9.1-3,6.3Z" transform="translate(-18.7 163)"/><path class="cls-1" d="M494.3,173.2a34.8,34.8,0,0,1,1.7-3.3c.4-8.8.3-11.4-.1-10A99.8,99.8,0,0,0,494.3,173.2Z" transform="translate(-18.7 163)"/><path class="cls-1" d="M157.2,186.6c-.2.7-.2,1.2-.4,1.9a25.3,25.3,0,0,0,1.3-2.2Z" transform="translate(-18.7 163)"/><path class="cls-1" d="M176.9,128.5c-1.1,28.1-8.5,40.9-18.8,57.8l31.2-7.8Z" transform="translate(-18.7 163)"/><path class="cls-1" d="M671.3,308.2a130.4,130.4,0,0,0-11.2-13.6c-2.1-2.1-4.2-4.3-6.4-6.3s-4.4-4.1-6.8-6l-3.5-2.9-3.3-2.6-3.2-2.5-2.9-2.2-2.9-2.1-2.8-2-2.8-2-2.8-1.9c2,.5,4,1,6,1.7l5.9,1.9,3,1.1,1.5.6,1.6.6,3.2,1.4,1.6.7.4.2.4.2.9.5a141.2,141.2,0,0,1,25.6,15.9c1.9,1.4,3.6,2.8,5.3,4.3s3.3,2.9,4.8,4.3,3,2.9,4.4,4.4,2.6,2.8,3.9,4.2l1.8,2.1,1.6,2,3.1,3.9c1.8,2.5,3.5,4.8,4.9,6.9,2.7,4.2,4.8,7.3,6.1,9.1s2,2.1,2.1.7a12.1,12.1,0,0,0-.3-3.5c-.3-1.6-.9-3.7-1.6-6.2a114.5,114.5,0,0,0-9-20.9c-7.4,1.5-22.7-13.8-48.5-28.1l-2.5-1.4-2.3-1.2-4.4-2.3-4.2-2.1-4.1-1.9c-5.5-2.6-11-5-16.5-7.3-10.9-4.5-21.6-8.6-31.4-12.3l-14.1-5.3-12.4-4.8-10.5-4-8.2-3.1c-2.4-.8-4.6-1.6-5.8-1.6h-1.8l-1.8.4a22.7,22.7,0,0,0-7.9,3.6,22.6,22.6,0,0,1-.9-5.7,26.2,26.2,0,0,1,0-2.8,6.8,6.8,0,0,0,.2-1.4,6.1,6.1,0,0,1,.3-1.3l.3.8a.9.9,0,0,0,.4.6,3.8,3.8,0,0,0,.9.9l.9.7a2.7,2.7,0,0,1,.9,1.2c.2-1.9.3-3.3.4-4.6s0-.5,0-.8-.1-.5-.1-.7a5,5,0,0,0-.4-1.3c-.6-1.6-1.9-2.7-3.8-3.9s-1.9-1.3-2.9-2.1a20,20,0,0,1-3.1-2.7l-1.6-1.7-1.2-2.7a8.8,8.8,0,0,0-.5-1.5,8.5,8.5,0,0,1-.4-1.7c-.2-1.1-.4-2.4-.6-3.7l-7.6-65.7-42.3,15.4a72.5,72.5,0,0,0-17.6,9.3,81,81,0,0,0-14.2,13,149.5,149.5,0,0,0-10.3,13.8l-2.1,3.3-2.1,3.3-2,3.1-1.8,2.9c-7.2,10.2-13.8,18.7-17.9,22.5s-5.7,3.1-2.8-5.1q-11,25.9-21.4,52c-4.1,6.9-6.7,9-7.2,7.6s.9-6.4,5-13.3q-19.5,37.8-37.8,76.2l-.4-.9c-.9,6.4-3,16.4-5.1,26.6l-.5,1.9-.2.9v2.9l-.3,4.5c-.3,3-.6,5.8-1,8.1-2.1,2.2-3.1,2.7-3.5,2.3s-.1-1.5.2-3,1.7-6.4-.3-6.2c-1.8,8.7-4.1,18.6-6.9,29.8-2.2.5-3.3-1.3-3.7-4a39.2,39.2,0,0,1,0-10.3,75.8,75.8,0,0,1,2.4-11.5,44.7,44.7,0,0,1,4.3-10.2c-3.8.1-6.5-.1-8.3-.1s-3.1.2-3.9.8-1.4,3.9-1.7,8.1a67.8,67.8,0,0,1-.7,7.1,41.6,41.6,0,0,1-2,8.1c-.6,2.5-.8-.1-1.1-1.4a28.7,28.7,0,0,1-.5-5.5c-.1-2-.1-4.4,0-6.9l.3-3.8.3-1.9c0-.3.1-.7.1-1v-.5l-.4-.3h.2l-.2.3-.4.6a7.5,7.5,0,0,0-.7,1.2,8.2,8.2,0,0,0-1,2.4,8.7,8.7,0,0,0-.5,4.1c-1.7-7.6-2.5-12.4-3-15.9a37.3,37.3,0,0,1-.3-4.3v-2.1l-.3-.2-.6-.3a13.2,13.2,0,0,0-1.9-.8l-.9-.3-.4-.3c0-.1-.3-.1.1-.2h.2l-.3,53.4v1.2c-.1.2-.1.6-.2.8a.7.7,0,0,1-.1.5v.2h.1c0-.2-.7,1.5-.4.8h0a.4.4,0,0,0,.1-.3l.2-.4.2-.3a17.2,17.2,0,0,1,1.5-2.1,31.5,31.5,0,0,1,2.7-3l1.8-1.8,1.2-1,1.2-1.1,1.4-1.1,1.6-1.3,1.7-1.4,2-1.4,5-3.5,3-2,3.6-2.4,6.9-4.5h.3l.4-.3h.4l.5-.2a2,2,0,0,1,.8-.4,12.2,12.2,0,0,1,2.4-1l3.2-1.1-2.1.7-2.7,1-.7.3-.5.3a3.4,3.4,0,0,0-1.2.6l-.7.3-7.7,5.1-2.9,1.8-2.4,1.6-4.1,2.9a124.7,124.7,0,0,0-10.5,8.3,35.6,35.6,0,0,0-4.9,5.3,8,8,0,0,0-1.2,1.8l-.4.6v.2h0c-.3.7.4-1,.4-.8H287v-.9c0-.3.1-.5.1-.9v-1.2h0c0,10.3.5-89.2.3-47.1h-.1v.2h0l.7,1.1,1.5,1.9,3.6,3.5a18.9,18.9,0,0,1,3.2,3.9c.7,1.3,1,2.4.4,3.6s-1.9,2.6-4.3,4.4a38.4,38.4,0,0,1-4.8,0h-.2l-.2,28.3h0v2a5.6,5.6,0,0,1-.2,1v.2h.1c0-.2-.7,1.6-.4.8h0l.3-.5.3-.6.3-.4.3-.5a39.2,39.2,0,0,1,4.5-5l.8-.8,1-.9,2.3-2,1.4-1,1.4-1.2,1.7-1.3,1.9-1.3,2.1-1.5a22,22,0,0,1,2.5-1.7l2.7-1.9.7-.5h0l-.3-.2-.7-.7c-.2-.2-.6-.4-.8-.8a24.7,24.7,0,0,1-4.5-5.8,7,7,0,0,0,5-2.6c1-1.3,1.5-3.3,2-5.9s1-6.1,1.9-10.1c.2-1,.5-2,.8-3.1a15.4,15.4,0,0,1,.5-1.7c.2-.6.3-1.2.6-1.9.8-2.5,1.8-5.2,3-8.2l11.1,6.7c1.6-6,3.1-11.4,4.1-15.9.5-2.3.8-4.3,1.1-6.2s.5-3.7.6-5.4c.3-3.4.3-6.6.7-10.2a88.9,88.9,0,0,1,2.3-13.8c1.4-2.4,2.6-4.8,3.9-7s2.4-4.3,3.6-6.3,2.3-3.8,3.4-5.6l.8-1.3a8.3,8.3,0,0,0,.8-1.2,25.2,25.2,0,0,1,1.5-2.4c2-3.1,3.9-5.8,5.8-8.2s1.8-2.3,2.7-3.3l2.6-2.9c6.7-7.2,12.8-10.2,18.5-13.8a169.8,169.8,0,0,0,5.8-17.4c.9-3.5.8-5,.1-5.3s-1.9.9-3.5,2.5-3.5,3.9-5.4,6c-3.9,4.2-7.7,7.9-9,5.7s-.8-3.7.1-8.4c.2-1.2.5-2.5.8-4s.7-3,1.2-4.8c.8-3.5,1.8-7.6,3.2-12.4,10.5-26.1,16.2-48.4,20.9-71.6.6-2.9,1.1-5.8,1.7-8.8s1.1-5.8,1.7-8.8c1-6,2.1-12.1,3.2-18.4l1.8-9.5,1.8-10c.7-3.3,1.4-6.7,2.2-10.2s1.4-7.1,2.3-10.6c4.2-7.6,6.5-10.9,7.9-11.6s1.7.9,1.8,3.2c.3,4.7-.6,11.7,3.3,6.7.1-2.6.2-5.3.4-7.8l.6-7.7.6-7.9.9-7.6c3.4-6.4,5.2-2.8,6.1-1.1a33.5,33.5,0,0,0,1.2-5.3L355.4-13.8c-1.5,9.2,1.2,10.4,2.7,14.2.7,1.8,1.2,4.3.6,8.8a60.9,60.9,0,0,1-1.6,8.2c-.8,3.3-1.9,7.4-3.5,12.2,2.2,4.1-.1,10.8-4.8,19.7-2.2,4.4-5.1,9.4-8.4,14.7l-5.1,8.4L330,81.3c-3.6,6.2-7.5,12.6-11,19.3s-6.9,13.7-9.9,20.8c-5.8,14.2-10.2,28.9-10.7,43.3-7.7,11.6-5.3-8.7-11.3-6.4-7.1,37.5-9.9,53.6-12,68.1-1,7.3-1.7,14.2-2.4,23.2-.3,4.6-.7,9.6-1.1,15.5s-.6,12.6-1,20.5l-2.8,6.1-2.7,6-5.5,12.2c-3.6,8.1-7.1,16.2-10.7,24.4,9.5-17.6,13.9-13.6,15.7.2,1,6.9,1.2,16.2,1.4,26.5,0,5.2,0,10.6-.1,16.1s-.1,11.1-.1,16.6c7.4-12.2,14.2-22.5,17.9-29.5l-2.4,16.9L279.2,398l-2.1,16.9-1.9,16.9c-3.8,7.6-6.6,0-9.5-12,.1,4.7.2,9.3.4,12.8a31.1,31.1,0,0,1-2.6,5.2l-10.3,16.6V438.3a20,20,0,0,1,.9-7,3.4,3.4,0,0,1,2.6-2.2c2.2-.1,5.2,2.2,8.6,5.6l-14.2.6c-1-3.5-1.8-7.8-2.6-12.3,4.2-7.6,8.5-15.2,13-22.4-1.9-9.1-4.1-18-6.8-24.4s-5.8-10.4-9.8-9.5a67.7,67.7,0,0,1-.3,9.6c-.3,3.9-.8,8.5-1.5,13.2-1.1-4.8-2.3-8.1-4-6.3s-.7,9.6,0,21.3l-17.3,12.4,4.8,4.9-2.5,7.8,67.7-2.7c-3.8-22.6-3.6-46.8-2.3-72.6L286.2,343c-.6-2-1.1-3.9-1.7-5.8l-.8-2.8-.8-2a85.9,85.9,0,0,1-4.6-18,147.4,147.4,0,0,1-1.6-21.7c0-7.7.4-15.9,1.2-24.4,1.7-17,5-35.5,9.4-55.9,2.1-10.1,4.5-20.8,6.8-32.1s4.5-23.3,5.7-36q.6,2.4,1.2,4.5c.4,1.4.8,2.5,1.2,3.6a17.5,17.5,0,0,0,2.6,4.8,6.3,6.3,0,0,0,6.4,2.3c4.8-.6,10.4-4.8,16.4-2.9-4.8,7.3-8.2,15.9-11.2,25.6s-5.7,20.6-8.4,32.1-5.6,23.5-8.8,35.5-6.8,23.8-11,35.1l1.6-4.1c.5-1.3,1.1-2.4,1.5-3.4a50.1,50.1,0,0,1,2.8-5c1.7-2.6,3.1-3.7,4.2-3.8s1.8.6,2.2,1.9a13.7,13.7,0,0,1,.7,4.7c1.4-7.1,3-14.5,4.7-22l5.4-22.8c1.9-7.8,3.8-15.7,5.5-23.8s3.5-16.4,4.9-24.9c4.5,2.5,8-2.1,11.4-11.1s6.8-22.6,9.9-38.7c-3,3.3-5.4,3.7-7.1,2a10,10,0,0,1-2.2-3.9,41.3,41.3,0,0,1-1.8-6.8l-62.4-9.7c1.2,1.1.5,5.3-2.7,11.1s-8.3,12.5-14.1,19.5-12.4,14.3-18.4,21.4a220.1,220.1,0,0,0-15.5,20.1c-3.4-1.2-4.7-4.9-.9-12.6a83.5,83.5,0,0,1,9.8-14.3c4.7-5.7,11-12.4,18.5-20.1a74.7,74.7,0,0,0-21.7,18.5A94,94,0,0,0,212,178.7c-3.3,7.6-6.2,15.5-9.7,23.8-.9,2-1.8,4.3-2.8,6.4l-1.5,3.4-.8,1.7a14.2,14.2,0,0,0-.8,1.8,185.6,185.6,0,0,0-7.3,17.2l43,13a84,84,0,0,1,7.2-15.4c-2,7.4-3.9,12.3-4.3,16.3L186.2,232a41.4,41.4,0,0,0,.8-4.4,3.7,3.7,0,0,1,.1-1.1v-.9a12.8,12.8,0,0,0,.1-1.9,10.9,10.9,0,0,0-.5,1.7l-.3.8c-.1.4-.1.7-.2,1s-.7,2.8-1.2,4.5l51.2,15.5c3.6-28.5,24-81.9,25.3-66.5l-3.1,10.9c12.2-37.1,29.1-94.7,40.7-143.6L241.3,26.3c-17.6,44-29.4,81.2-24.2,89.6-2.4-.3-14.5-17.6-15.8-23.2l-4.2,146.1c-8.3-16.8-58.9,9.9-40.3-50.3-9.4,15.4-20.9,34.6-32,71.1,7-10.3,31.9-18.9,26.2-3.1-8.7,8.9-14.4,14.9-16.4,15.1l47.9,6.3c.3-2.7.5-5.1.6-7.3s.3-4.1.5-6,.3-3.8.4-5.6.3-3.8.6-5.8c.5-4.1,1-8.6,2.2-14.5.2-.8.3-1.5.5-2.3s.1-1.7.2-2.1l.3-2c.5-2.7,1.1-5.6,1.7-8.7s1.2-6.6,1.9-10.2,2.1-7.8,3.3-12.1c-1.7,7.5-4.2,11.3-6.9,12.2s-5.5-.9-8.2-4.4a30.8,30.8,0,0,1-3.7-6.3l-.5-.9-.3-1-.6-2.1c-.3-1.4-.7-2.9-1-4.5s-.5-3.2-.6-4.9a13.1,13.1,0,0,1,0-2.8c.1-.9.1-1.9.2-2.9s.5-4,.9-6.2l.6-3.3c.3-1.2.7-2.5,1.1-3.7.7.7,3-.3,6-2.2s6.8-4.5,10.4-6.9c7.2-4.6,13.9-7.9,11.8,1.2l1.2-7.2.2-1.8c.1-.5.3-1.2.4-1.9l.8-3.8c1-5,1.8-9.8,2.5-14.4,1.9-9.9,3-18.5,4.2-26.8A186.4,186.4,0,0,0,215,85.3a48.2,48.2,0,0,0-1.2-13.9c-.1,1.8.4,2.5,1.6,2.2a16,16,0,0,0,4.9-3.7c4.3-4.3,10.5-12,18-22.6s16.2-23.7,25.4-38.4l7-11.2,6.9-11.3c4.5-7.4,8.9-14.8,13.1-22-2.3,3.7-3.2,4.6-2.9,3.4a18.1,18.1,0,0,1,1.2-3.6l1.1-2.8c.2-.6.5-1.1.7-1.7l.7-1.7c2-4.5,4.7-10.5,8-17.5l1.2-2.7.2-.3v-.2h-.1c0-.1-.1-.2-.2-.4a2,2,0,0,1-.1-.5,2.5,2.5,0,0,0-.1-.8,3.1,3.1,0,0,1,.1-.9,5.9,5.9,0,0,1,.2-1.3v-1.1h.1v-.3l.6-2.1.2-1a8.4,8.4,0,0,1,.4-1.2l.9-3.1.5-1.5.2-.7.4-1.1,1.4-4.2a17.2,17.2,0,0,0,.7-2.1l.4-1,.5-1.5,2.2-5.8,2.1-5.7,3-7.7q1.3-3.7,2.7-7.2l.7-1.8,1-2.5c.7-1.7,1.4-3.4,2-5,2.6-6.4,4.8-12.2,6.8-17.2l-19.3,22.8,15.1-16.6-26,55.7L283.9-50.2c.5-1.4.9-2.8,1.4-4.1a14.6,14.6,0,0,0,.5-2,12.7,12.7,0,0,0,.7-2.1c.6-1.8,1.2-3.5,1.7-5.2s.5-1.6.8-2.4l.3-1.1a13.4,13.4,0,0,1,.7-1.8l2.2-6.7c.4-1,.7-2.1,1.1-3.1a9.8,9.8,0,0,1,.5-1.6v-.3l.2-.6.4-1.2c2.4-6.4,4.4-12.2,6.2-17.6L253.8-44.4,214.1,3.1,181.8,42c-8.9,10.7-17.4,20.9-25.6,30.9L145.5,85.8,140.4,92c-1.6,1.8-3.1,3.6-4.6,5.5l-8.6,10.2-4.1,4.9-3.8,4.5c-2.5,2.9-5,5.7-7.4,8.2l-3.6,3.6-.9.8-.4.4h-.1v.2l-.3,1.5L106,135l-1.1,6.2-.6,3-.2,1.5-5.8,14.7h.1a5.5,5.5,0,0,1,1.4-.9,14.7,14.7,0,0,1,3.3-1.2l2.4-.5,1.6-.3,1.7-.2H110l-.3-.2c-.1,0-.1-.1-.2-.2l-.2-.2-.3-.7c-.4-1-.9-2-1.2-3l-1.2-3.1c-.3-1.1-.7-2.2-1-3.3a71.4,71.4,0,0,1-2.2-15.5,130.8,130.8,0,0,1,.7-19.3c.2-1.7.4-3.6.6-5.5s.4-3.8.7-5.8c.5-3.9,1-8.1,1.7-12.6a21.8,21.8,0,0,0,5.4,8.3c2.6,2.5,5.8,4.6,9.3,4.9s7.1-.9,10.4-5.1a18.2,18.2,0,0,0,2.4-3.7,32.2,32.2,0,0,0,2.3-4.9,71.2,71.2,0,0,0,3.4-13.8c-4.1-9.1-13.5-27.3-25.5-48.8C108.9,13.8,102.1,2.2,95.3-9.7s-14-24.2-20.8-36.7l36.4,11.1c-2.9,6.7-4.5,13.4-6.3,21.4A72,72,0,0,0,95-5.6c-.5,3.9-.7,8-.9,12.2-.1,2.1-.2,4.1-.2,6.3v6.3a19.5,19.5,0,0,0,.2,2.3l.3,2.5c.2,1.8.4,3.8.6,5.9.6,4,1.2,8.3,1.9,12.6-2.6-4.6-5.6-10.6-8.5-17.2l-2.2-4.8a27.3,27.3,0,0,1-1.8-5.3c-1.1-4.2-2.1-8.5-3.1-13S79.5-7,78.9-11.9a110,110,0,0,1-.6-15.3,74.4,74.4,0,0,1,2.3-16.5,72.3,72.3,0,0,1,6.8-16.8l8-14.2,12.7,20.5a347.5,347.5,0,0,1,22.5,43,299.3,299.3,0,0,1,14,39.7c.3-2.1.5-4,.8-5.7s.5-3.1.7-4.5a32.9,32.9,0,0,1,.7-3.6c.2-1,.4-1.9.5-2.8.8-3.3,1.5-5,1.9-7.3s.7-5.1.4-10.5a241.2,241.2,0,0,0-3.2-26c.8-4.7,2-5.4,3.5-3.6a15.7,15.7,0,0,1,2.4,4.4c.8,2,1.6,4.5,2.4,7.2a200.3,200.3,0,0,1,6.1,34c-.2-3.1-.2-6.2-.4-9.3l-.5-9.4-.8-9.3c-.2-3.2-.6-6.3-.9-9.4-1.4-12.4-3.3-24.9-5.8-37.2L133.1-163,56.2-93.7A127.1,127.1,0,0,0,32.3-64.3,163.9,163.9,0,0,0,18.7-34.6a2.4,2.4,0,0,1,2.2.9,10.4,10.4,0,0,1,1.2,3.3,84.9,84.9,0,0,1,.4,12c-.2,4.6-.3,10.1-.5,16,0,2.7-.1,5.5-.2,8.4.1,1.1-.1,3.5-.1,5.5s-.1,2-.1,3.1a29.1,29.1,0,0,0,.1,3c.1,3.6.3,6.7.6,9.8s.7,5.8,1.1,8.4a126.5,126.5,0,0,0,2.6,14c2,7.8,4.3,12.4,7,11.3L30.9,46c-.7-5.1-1.3-10.2-1.8-15.7-.2-2.8-.4-5.6-.5-8.6-.1-1.5-.2-3-.2-4.8s.1-3.7.2-5.5V6.6c0-1.3.1-2.6.2-4l.2-4.1.4-4.2c.5-5.6,1.2-11.5,2.3-17.6a154.2,154.2,0,0,1,4.7-19.3,122.2,122.2,0,0,1,8.6-20.6,110.3,110.3,0,0,1,14-20.6c1.9.5,2.4,2.6,1.9,5.9-.3,1.7-.7,3.8-1.3,6.1S58.6-67,57.7-64l-.6,2.2-.6,2.3-1.2,4.8c-.3,1.6-.7,3.3-1.1,5.1s-.7,3.6-1,5.4a186.8,186.8,0,0,0-2.5,23.3c-.4,8.1-.5,16.4-.3,24.8,0,2.1,0,4.2.1,6.4v3.4c0,1.3,0,2.6.1,3.9s.3,4.8.5,7.1.4,4.6.6,6.9c1,9.1,2,18.1,2.8,27.4s1.4,18.7,1.6,28.2c-2.1,9.8-8.3,6.5-14.5,1S29.3,74.8,27.1,75.7c2.5,4.9,5.7,23,8.1,40.6s4,34.8,2.6,38.5c-3.2-10.6-6.4-21.1-9.5-31.7-1.1,21.4,4.7,38.2,9.7,56.2s9.2,36.9,5.1,62.7c.7,17.5-12.3,53.6-4.1,55.9,12.5-29.9,59.3-39.8,72.5-22.2-.2,3.1-1.7,26.1-3.6,50.9s-4.6,51.6-7.3,61.8c-4.4,14.9-12.7,5-20.8-5.5s-16-21.6-19.9-8.9c3.7.7,9.9,16,12.1,22.4-1.2,18.5-12.2-6.4-6.2,33,14.2,5.2,7.9,80.6,13.5,17.5,4.1,19.1,4.6,29.4,4.8,40.7s0,23.4,3.1,46.1c3.2-7,10.6-.1,18.6,13.1a261.6,261.6,0,0,1,12.3,23.4c1,2.1,2,4.3,3.1,6.4l.4.6h.1c0,.1.1.1,0,.1l-1.2.5-.8.3-.2.2h-.1l-.2.2h-.1l-.7-.2-1-.2h-1.2a.4.4,0,0,0-.1-.3l-.2-.7-.9-3.4c-1.4-4.5-2.7-9.2-3.8-13.7v-1.5c-.5-3.6-1.1-7-1.6-10.3,1.8,1,3.7-.6,5.4-3.1a40.4,40.4,0,0,0,4-8.1c-1.2-19.8-2.3-37.4-3.4-53.8s-1.7-31.5-2.6-46.4c-1.6-30-3.5-59.2-7.8-96.1,2.5-7.2,2.3-43.2,9.9-28.7-3.6-10.3-9.4-19.5-12.3-42.2,3.3-22.7,5.2-10,7.6,3.8s5.2,29,10.2,11.5c-8.1-2-17.7-57.5-25.9-89.2-5.5,5.6-4.2,24.3-.2,45.6s10.5,45.3,14.8,61.2c-8.3,1-18.6-12-28.8-34.9a365.4,365.4,0,0,1-14.9-41.2,523.5,523.5,0,0,1-13-53.1c-2.4-15.6-2.9-25.5-2.3-31.9a30.4,30.4,0,0,1,.7-4.2c0-.3.1-.6.1-.8l.3-.9c.2-.7.3-1.2.5-1.7s1.6-2.7,2.3-2.7,2.8,2.3,3.8,3.6,1.4,1.5,1.1-2.5v-2.4a20.7,20.7,0,0,1,.4-2.2c.1-.7.3-1.4.4-2.1s.3-1.4.5-2.2a48.1,48.1,0,0,1,3.4-9,32.1,32.1,0,0,1,7.8-10,36.2,36.2,0,0,1,3.2-2.2,31.4,31.4,0,0,1,3.7-1.8l3.9-1.1,3.9-.5,12.7-1,3.8,13.1c6,21,10.8,36.7,15.3,49.6s8.6,22.9,12.2,32.8,6.7,19.6,8.5,31.9,2.1,26.9-.6,46.5L68,274.9c-.2-2.7-.3-5.6-.4-8.5s-.2-6,0-9.1,1-5.3,1.5-7.4a39.5,39.5,0,0,1,1.8-5.5,18.4,18.4,0,0,1,3.9-6.2c2.6-2.3,5.2-1.5,7.7.3s4.9,4.4,7.2,6,4.5,2.2,6.3,0c.7,4.7,1.2,9.2,1.6,13.4s1.3,8.3,1.7,12.2l7.4-.4c1.2-17.6,3.1-32.2,4.5-46.1s2-27,.2-41.1c0,14.4-.7,28.7-1.9,42.9-2-8.1-4.2-20.4-6.3-33s-3.8-25.4-3.8-34.7c-1,7.9.1,22.8,1,42.2a619.4,619.4,0,0,1-.2,69.4l5.6-.2a216.5,216.5,0,0,1-1.8-44.3,254.1,254.1,0,0,1,6.8-44.6c.5-1.8.9-3.6,1.4-5.4s.9-3.6,1.4-5.4c1.1-3.5,2.1-7,3.2-10.4l3.6-10.1c1.2-3.3,2.6-6.5,3.8-9.7s2.7-6.3,4.1-9.3,1.3-3.1,2-4.5,1.5-3,2.2-4.4,2.8-5.7,4.3-8.4,2.9-5.3,4.4-7.8a55.6,55.6,0,0,1,1.4-6.3c.5-2.2,1.1-4.5,1.6-6.7,1.2-4.5,2.4-8.9,3.1-12.6,1.6-7.3,1.6-11.4-3.4-6.6-2,4.3-3.8,8.6-5.7,13s-3.7,8.7-5.5,13.1c-4.6,5.1-6.2,4.3-6.4.7s1.5-10.1,3-16.2c3.3-12.1,6.8-22.9-3.3-7.4.7-2.4,1.5-4.7,2.2-7.1l2.4-7.3c.8-2.4,1.6-4.9,2.5-7.3l2.7-7.5,1.4-3.8,1.5-3.8c1-2.5,2-5.1,3.1-7.7l3.5-7.7c1.1-2.6,2.4-5.3,3.7-7.9s2.7-5.2,4.2-7.9,3-5.3,4.6-7.9l1.2-2,.6-1.1.8-1.2c1.2-1.7,2.3-3.4,3.5-5,2.3-3.4,4.7-6.8,7.3-10.2a216.7,216.7,0,0,1,35.7-36.6,90,90,0,0,1,13,4.6c-.5-.7-2.7.2-6.2,2.2-1.7,1-3.7,2.4-5.8,3.9s-4.5,3.6-6.8,5.7l-3.7,3.2c-1.2,1.1-2.4,2.4-3.6,3.6l-6.9,7.6c-2.1,2.6-4.1,5.3-5.8,7.8a65.3,65.3,0,0,0-4.4,7A63.7,63.7,0,0,1,184.1-21l2.4-2.8a34.4,34.4,0,0,1,2.7-2.7L195-32l3.1-2.8,3.3-2.7,6.8-5.3,7-5c2.3-1.6,4.6-3.4,7-4.8l7-4.7,1.8-1.2,1.7-1.1,3.5-2.2,3.4-2.3c1.1-.7,2.2-1.6,3.3-2.2l6.6-4.4,3.1-2.3,3.2-2.2c2-1.4,4-3,6-4.6l2.8-2.4,2.8-2.4c1.8-1.6,3.6-3.2,5.3-5l-4.4.8a31.2,31.2,0,0,0-4.4.9l-9.1,2.3-1.2.3-1.1.4-2.4.8-4.7,1.6-2.3.9a17,17,0,0,0-2.4.9l-4.8,2.1,3.6-3.3,1.8-1.7,1.9-1.5,7.8-6.2,2-1.5,1-.8,1-.7,4.2-2.8c2.7-1.8,5.6-3.7,8.5-5.4s5.7-3.1,8.7-4.6l4.4-2.2,2.3-1,2.3-.9a55.2,55.2,0,0,1,19.6-3.9,43.5,43.5,0,0,1,10.7,1.3,41.4,41.4,0,0,1,9.8,4.2,45.5,45.5,0,0,1,7.5,5.9c1.1,1.1,2,2.2,3,3.3s1.9,2.2,2.8,3.4a72.4,72.4,0,0,1,5.2,7.6l2.5,4.1,2.2,4.6,1.1,2.4.6,1.1.5,1.3,1.8,5.2a75.9,75.9,0,0,1,3.1,11.4c.2-2.4.2-4.5.3-6.5v-5.1a50.5,50.5,0,0,0-.9-7,18.7,18.7,0,0,0-1.2-4.3,34.1,34.1,0,0,0-1.7-3.3c-.6-1.1-1.2-2.3-1.9-3.9s-.7-1.6-1.1-2.5l-1.3-3.2-1.4-4.1c-.6-1.4-1.2-3-1.9-4.8s-.6-1.8-1-2.8l-1.2-3c-.9-2.1-1.9-4.4-3.1-6.8a13.3,13.3,0,0,1,1.1,5.4c-.1,1.2-.5,1.8-1.3,1.9s-4.1-1.7-8.5-4.8a64.6,64.6,0,0,0-8.6-4.8,50.8,50.8,0,0,0-11.6-3.6,70.1,70.1,0,0,0-24.6,0l-2.9.5-3,.8-5.8,1.5-2.9.8a17.2,17.2,0,0,0-2.8.8l-5.5,2.2a54.9,54.9,0,0,1-5.1,2.1l-2.3,1.1a3.4,3.4,0,0,0-1.2.6l-1.1.6-7.6,4.8a26.2,26.2,0,0,0-4.7,3.8c-1,1.1-1.3,2.1-1.1,2.6a2,2,0,0,0,1,.7l2,.4a45.1,45.1,0,0,0,7.4-.5c-4.8.3-9.6.7-14.4,2.5a79.5,79.5,0,0,0-14.4,5.9l-7.1,4-1.8,1.1-.9.5-.9.6-3.5,2.5L200-77.5c-1.2.9-2.4,1.7-3.6,2.7l-3.6,3-7.3,6.1-1.8,1.6-1.9,1.6L178.1-59l-7.7,7.1-2,1.8-1.9,2-4,3.9L154.1-36c-2.9,2.9-5.7,6-8.8,9l-4.7,4.8-2.4,2.4-1,1-1,.9c-2.3,2.1-4.7,4.2-7.3,6.3,2.1.5,6.3-2.1,6.5-.4s-3.7,7.7-16.1,26c0,2.3-1.1,7.1-1.8,10.1l-1.8,2.3,1.7-1.8c-.5,1.9-.4,2.1.6-.7s3.3-3.9,4.9-5.6,3.2-3.3,4.6-4.6c2.9-2.7,5.4-4.7,7.3-5.5A69.6,69.6,0,0,1,132,18.4c-.6,1.9-1.4,3.9-2.2,6.1L127.2,31c-3.8,9.1-8.1,19.2-12.5,29.4S106.2,81,102.9,90.3L100.6,97l-1.9,6.2c-1.1,4-2,7.4-2.5,10.3-5.4,11.5-5.5,8.6-5.4,4.3s.5-10.2-4.1-4.5c-.4,2.9-.9,5.8-1.4,8.8l-1.1,8.8-.6,4.4-.4,4.4-.9,8.8c-2.4.2-5.6,4.2-9,9.2-.8,1.3-1.7,2.6-2.5,4s-1.5,2.8-2.3,4.1-3,5.4-4.3,7.5c-2.6,4.3-4.5,6.7-5.5,4a26.5,26.5,0,0,1-.4-8.4,150.2,150.2,0,0,1,2.4-18.2,348.4,348.4,0,0,0-11.1,57.7c-.6,2.5-1.2,5.1-1.7,7.7s-.9,5.5-1.3,8.2-.5,2.9-.7,4.3-.4,2.8-.5,4.3l-.6,8.9-.3,4.5v4.6c0,3,.1,6.1.1,9.1v2.3l.2,2.3c.1,1.6.2,3.1.4,4.6l.9,9.1,114.2-5.4c1.2-16.2.7-31.3-1.1-43.1.1-3.3,0-6.8-.2-10.4s-.8-7.1-1.3-10.7-1.3-6.9-2-10.1-1.6-6-2.3-8.6c-1.3-5.1-2.6-8.6-2.7-9.5s.5.7,2.9,6.2a531.1,531.1,0,0,0-21.1-83.9L120,65.7,85.2,68h-.3A35.4,35.4,0,0,0,80,66.3a60.3,60.3,0,0,0-12.1,2.8,59.6,59.6,0,0,0-5.8,2.5L59.3,73l-2.5,1.6a52.5,52.5,0,0,0-4.9,3.3l-4,3.4-1,.9-.8.9-1.6,1.7-1.6,1.8-.7.9-.4.4-.3.4-2.4,3.3-.6.8-.2.4-.3.4-.9,1.5c-.6,1-1.2,2-1.7,3s-1,1.8-1.4,2.7l-.7,1.4-.5,1.3a27.2,27.2,0,0,0-1.1,2.5l-.9,2.4c-.2.8-.5,1.6-.7,2.3a85.3,85.3,0,0,0-3.4,15.8c-.3,3.1-.4,6.2-.5,9.3v7.9c0,.8.1,1.5.1,2.2l.4,4.3.2,2.2.2,2,.4,4,.5,4,.5,3.9c.3,2.5.7,5.1,1,7.7,3,20.4,6.5,40.6,9.7,61.1,6.4,41,11.3,83.3,8.4,128.2,5.3,25.5,11.3,51.9,13.6,95.2l-6.8,9.3c2.4,12.7,3.5,30.7,4.1,48.4.1,4.3.2,8.7.4,13,0,2.1.1,4.2.1,6.2s.1,2,.1,3,.1,1.9.1,2.9c.1,3.5.1,6.9.2,10.1v.6a1,1,0,0,1,.1.4v2.2h8.7a233.7,233.7,0,0,1,35.9,3.3l-44.5,6.3a87,87,0,0,0,1.6,8.9c.6,2.3,1.4,4,2.3,4.4H96.1l5.5.2h4.8l4.4.2,2,.2h1.7l3,.4a3.3,3.3,0,0,1,1.6.5h.5l.4-.2.5-.2.6-.3,1.3-.5c3.9-1.3,10.7-3.1,18.5-4.9l6.2-1.4,6.9-1.5,15.2-3.1,6.6-1.3h.1l.2-.2.3-.5c.3-.9.6-2.2.9-3.6s.4-2.9.6-4.6a192.9,192.9,0,0,0,.3-23.2c-.8-17.5-3.2-38.1-6.2-59.5-5.9-42.6-14-88-15.2-117.3l-10.3-1.1c-3.6-40.2-10.3-78.3-18.9-127.6l-8.7,3.8c-5.6-21.1-6.5-48.8-6.5-79.7.1-15.3.1-31.4.2-48s-.3-33.2-1-49.4c1.8,2.1,2.6,7.3,2.8,13.6a140.7,140.7,0,0,1-.8,19.5,254.8,254.8,0,0,0,4.1-35.3c.3-5.7.4-11.4.5-16.7l.3-12a10.3,10.3,0,0,1,.1-1.4l.3-2,.4-3.9.8-7.4c.6-4.7,1.2-8.9,1.8-12.5s1.4-6.7,2.1-9.1a34.4,34.4,0,0,1,2.1-5.8L52.9-41.3C58-26.8,62-11.9,63.7,2.9s1.2,29.4-2.2,43a80.9,80.9,0,0,1,1.1,11.6,45.1,45.1,0,0,1,0,5.2c-.1,1.7-.2,3.4-.4,5l-.6,4.7c-.3,1.6-.7,3-1,4.5A70.4,70.4,0,0,1,58,85.4a19.2,19.2,0,0,0,.1-4.1c-.3,1.7-.7,4.1-1,6.7s-1.4,3.4-2.1,5.2-1.3,3.4-2.1,5.2c-1.5,3.7-3.1,7.7-4.7,12.2,1.8-3.7,3.5-7.2,4.9-10.4a65.9,65.9,0,0,0,3.5-8.7c-.5,3.2-1,6.8-1.6,10.7s-1.3,8.7-2,14.1-1.3,11.3-1.7,17.8a147.7,147.7,0,0,0,.1,21l-1.2,1.6-.6.8-.6,1.3a31.6,31.6,0,0,0-1.7,7.8,38.6,38.6,0,0,0,1,12.9,16,16,0,0,0,.5,2.1l.7,2.2.8,2.3c.4.8.7,1.7,1.1,2.5l.5,1.2.7,1.2c.4.9.9,1.7,1.4,2.6l1.7,2.5,1.8,2.6a56.6,56.6,0,0,0,11.2,9.1,49.5,49.5,0,0,0,6,3.2l3.2,1.4,3,1,1.5.5.7.2H84a3.2,3.2,0,0,0,1.9.1l1.4-.8a8.6,8.6,0,0,0,2.2-3.2,12.8,12.8,0,0,0,1.3-4.2,7.1,7.1,0,0,0-.6-4.1,104.2,104.2,0,0,0,16-13.6c-.8,3.4.3,3.4,2.7,1.6l2.6-2.5,3.3-3.3,6.7-7.5a39.5,39.5,0,0,1,4-4.3c.3-.1-.6,1.3-3.7,5.6,2.3-2.5,2.5-1.5,2.1,1.4s-1.3,7.7-1.6,12.9.1,10.8,1.6,15.4a18,18,0,0,0,3.3,5.8,7.2,7.2,0,0,0,5.1,2.7c-2.2,1.5-3.7,6.1-3.1-1.6-.4,2.2-.9,4.2-1.2,6.3l-.9,6c-.3,2-.4,4-.6,5.9l-.2,2.9v1.7h0v1.1c.1,3.2.2,6.3.4,9.3s.7,6.1,1.2,9.1.4,3,.7,4.5.7,2.9,1.1,4.4,1.5,5.7,2.4,8.4c-3.5,4.2-6.9,8.4-10.4,12.8l.6,1.3,54.4,117.8,13.4-108.9,6.5-52.5c19.8-25.4,29.2-35.4,24.8-3.2,18.2-74.3,20.5-57.6,34.2-121.7l5.9,6.1c9.3-20.9,14.9-58.5,26.6-68.3a80.3,80.3,0,0,0,5.6-7.1l-50-18.7C226.4,65.7,204,146.3,178.4,230.3L111,451.8,242.5,249.7l.2-.4v-.2l.3-.4.3-.8.6-1,.3-.5.4-.6.7-1.2,1.8-2.7a153.2,153.2,0,0,1,9.8-12c7.5-8.4,16.2-17.1,25.1-25.9s18.2-17.8,27.5-28a207.8,207.8,0,0,0,14.1-16.8l1.7-2.4,1.8-2.6c.6-.9,1.2-1.8,1.7-2.7l1.8-2.9.9-1.5.4-.7.4-.9,1.7-3.3.8-1.7.8-1.9c.6-1.3,1.1-2.6,1.6-3.9L261,122.8a99.2,99.2,0,0,1-2.8,12.9c3.2-1.9,5.3-2.8,6.7-2.7s1.8,1.2,1.8,3c-.1,3.7-2.7,10.5-6.3,18.1s-8.2,16.1-10.9,23.4-3.7,13.5.1,16.2c-3.8,2.6-8,7.7-11,9.7-1.4.9-2.6,1.1-3.2-.4s-.6-4.4.1-9.6c-4.4,15.6-9.7,29.5-14.7,42.6s-9.9,25.3-13.8,37.9l-1.4,4.7c-.5,1.6-.9,3.2-1.3,4.8l-1.2,4.8c-.3,1.6-.7,3.2-1,4.8l-.5,2.5-.4,2.5c-.2,1.6-.5,3.3-.7,5s-.4,3.4-.5,5.1-.3,3.4-.3,5.3a97.9,97.9,0,0,0,.1,10.8c.1,1.8.2,3.7.4,5.5s.5,3.8.8,5.7l.3,1.5v1.2l.6,2.1a33.1,33.1,0,0,0,1.2,4.2c.8,2.9,1.8,5.7,2.9,8.7-2.6,4.1-4.8.5-6.7-3.3s-3.5-7.6-5-4c.7,2.8,2.1,8.2,3.1,14s1.5,11.9.1,15.8-2.7,1.3-4.1-3.7-2.8-12.2-4.3-17.7q.9,13.5,2.7,24.6a157,157,0,0,0,4.3,19.6c3.4,11.5,7.6,19.7,11.9,25.3,8.8,11.3,17.8,12.5,26.2,13.1.2,2.4.3,4.8.5,6.8l7.2,90,40-91.8c6.3-14.3,9.7-25.5,11.4-36.2a86.5,86.5,0,0,0,.8-16.1,140.9,140.9,0,0,0-1.8-17.4c4-5.2,8.4-12.3,10.9-13s2.9,5.2-1.1,25.8c.8-2.8,2.1-7.1,3.6-12.5s3.3-11.7,5.4-18.7S315.6,339,318,331s4.7-16,6.9-24.1,4.5-15.8,6.3-23.2,3.6-14.1,4.7-20.1c2.3-11.8,2.9-20,0-21.5,2.6-3.1,5.2-10.9,7.3-18.7s3.8-15.7,4-18.9c2.1-6.3,4.1-11.8,5.9-16.8l4.9-13.6,8-21.6c2.5-6.7,5-13.4,7.9-21.4s6.2-17.6,10.5-29.9l-7,12.8a36.6,36.6,0,0,1-.9-17.6,54.8,54.8,0,0,1,2.3-8.6c1-2.9,2.3-5.9,3.7-9,2.9-6.1,6.4-12.8,10.1-20.3a241.6,241.6,0,0,0,11.2-25.9l1,1.7c5-8.8,9.1-16.2,12.1-21.7L374.4-7.7c-4.2,7.2-7.7,13.1-10.2,18s-4.1,8.9-5.5,12.3L357,27.2a35.7,35.7,0,0,0-1.2,4l-2.1,7.3c-.6,2.4-1.5,5-2.6,8.2s-2.4,7-4.4,11.7c-3.8,9.3-9.5,22.6-18.3,43l10.7-2.5c4.3,3.6,4.3,10.4,1.8,19.3s-7.6,20.2-13.4,32.6c-2.9,6.3-6,12.7-9.1,19.4-1.6,3.3-3.2,6.7-4.7,10.1l-4.5,10.1c-1.5,3.4-2.9,6.8-4.3,10.2-.6,1.8-1.3,3.4-2,5.1l-1.9,5.1c-1.2,3.3-2.2,6.7-3.2,10a91,91,0,0,0-2.7,9.9l6-8,2.9-4.2,2.9-4.1c-.6,7.6-4.7,15.6-10.3,23.6a128.3,128.3,0,0,1-9.8,11.6l-1.3,1.5-1.4,1.4-2.9,2.7-5.9,5.3-3,2.7-3,2.5-6.3,5.1c-4.2,3.4-8.4,6.9-12.4,10.6a133.5,133.5,0,0,0-11.2,11.4,71.5,71.5,0,0,0-8.5,12.3c-2.5,3.4-1.9.1-.1-5.3s4.8-12.5,6.6-17.2c-3.3,4.5-6.2,8.7-8.7,12.8s-4.5,7.7-6.3,11.1l-2.3,4.8-1.7,4.3a46.3,46.3,0,0,0-2.3,6.9c-.2.9-.4,1.8-.5,2.6a18,18,0,0,0-.2,2.2,6.6,6.6,0,0,0,.3,3,3.6,3.6,0,0,0,2.7,2.4c2.4.7,5.5.7,6.9,5.5a33.1,33.1,0,0,1,.7,4.5c.2,1.9.2,4.1.2,6.9s-.1,2.8-.1,4.5-.1,3.4-.1,5.3-.1,4-.1,6.3,0,4.7.1,7.3c-1.7,3.9-3.6,4.7-5.6,4.5s-3.9-1.5-5.7-1.4a3.6,3.6,0,0,0-2.6,1.6,9.3,9.3,0,0,0-1,2.2,21.8,21.8,0,0,0-.8,3.6,53.3,53.3,0,0,0-.2,12.4c.2,1.4.3,2.9.5,4.4s.6,3.3.9,5.1.8,3.7,1.4,5.7,1.2,4.2,1.9,6.4a53,53,0,0,0,2.7,8.4c.6,1.6,1.5,3.3,2.4,5.2l1.4,2.8,1.7,2.8c.7,1,1.3,2,1.9,3l1.1,1.6,1.2,1.7a82.8,82.8,0,0,0,19.7,19.5,76.6,76.6,0,0,0,9.5,5.4,42.8,42.8,0,0,0,5.5,2.3,52.2,52.2,0,0,0,5.6,1.8,54.3,54.3,0,0,0,5.8,1.3l2.9.5,2.8.3,2.8.2h5.1c0,.1,0-.1.1-.2v-.4c.4-1.9.7-3.8,1.1-5.7l.6-2.8.3-1.4.3.2,1,.7.5.4h.1v.7l.3,1.2,1.2,4.5.4,1.1v.6c.1.2.1.5.2.4h.5l1.1-.2,2.1-.5a109.4,109.4,0,0,0,17.7-6.1l4.4-2,2.3-1h.1l.4,1.1,1.2,3.5,2.5,7.2,5.1,14.3c1.6,4.8,3.3,9.5,5,14.3l2.5,7.1.4,1.2v-.5c3-6.1,5.7-11.6,8.2-16.4l1.8-3.3.8-1.6.8-1.4,1.5-2.6-1.1,1.9-2.7,4.8-2.5,4.6-2.4,4.3-2.2,4.1-1,2-.9,1.8-.5.9-.2.4v.3h-.1l-.2-.6-.5-1.5-8-23.1c-1.3-3.8-2.6-7.6-4-11.5l-2-5.7-.5-1.4c0-.2-.2-.7-.1-.5h-.1l-.7.7-1,1.4a9.6,9.6,0,0,0-1.5,2.8,8.9,8.9,0,0,0-.5,5.3,1.4,1.4,0,0,0,.2.6v.5h0l12.6,52.6,2.1-5c1.3-3.2,2.7-6.4,4.1-9.6,10.8-25.3,21.7-47.1,33.2-64.2-3,3.2-5.8,6.3-8.2,8.4s-4.3,3.3-5.4,2.7-1.4-2.8-.5-7.4,2.9-11.5,6.5-21.2c3-7,6.6-14.3,10.7-21.9,2-3.7,4.2-7.6,6.5-11.6,1.1-2,2.3-4,3.5-6l1.8-3.1,1.3-2.1,5.6-8.4,5.8-8.6c3.9-5.7,7.9-11.5,11.7-17.4,15.5-23.3,29.5-46.6,31.5-67.2,3.8-3.9,6-5,7.2-4.6,4.4-11.2,11.8-27.2,19.5-43.8l5.9-12.5c2-4.3,3.4-7.5,4.6-10,.5-1,1-2,1.4-3a8.7,8.7,0,0,0,.7-1.7h-.2c-.1-.1-.1-.2-.2-.2l-.9-1.4a5.4,5.4,0,0,0-.7-1.3.8.8,0,0,1-.2-.5l-.2-.3v-.2a1.4,1.4,0,0,1-.2-.6V208h-.1v-.2l-34.2-31.1c-.4,3.2-.7,6.1-.8,9s-.2,5.6-.1,8.2.3,5.2.6,7.4a36.7,36.7,0,0,0,1.2,5.8c-2.3,2.4-3.9,5.7-5.3,9.8a38.8,38.8,0,0,0-1.6,6.7c-.2,1.2-.3,2.4-.4,3.7s-.1,2.6-.1,4a29.8,29.8,0,0,0,.1,4.2c.1,1.4.3,2.9.5,4.3s.5,3,.8,4.6.3,1.5.5,2.3l.6,2.3a72.2,72.2,0,0,0,8.5,19,89.1,89.1,0,0,0,14.4,17.9l4.5,4.1c1.5,1.3,3.2,2.6,4.8,3.8s3.3,2.5,5,3.7l2.5,1.7,2.5,1.6,2.5,1.5,2.4,1.4,4.8,2.6,4.7,2.3,4.8,2.2c6.2,2.8,12.5,5.1,18.5,7.2s11.9,3.9,17.4,5.6l16,4.9a213.4,213.4,0,0,1,25.6,9.3c6.8,3.2,11.6,6.5,14.2,9.9a8.4,8.4,0,0,1,1.8,4.7,10.3,10.3,0,0,1-1.8,4.6,48.4,48.4,0,0,1,10.2,7.8,27.4,27.4,0,0,1,4,5c.7.9,1.1,1.9,1.7,2.8a10.1,10.1,0,0,0,.7,1.5l.3.7.3.8a32.6,32.6,0,0,1,2.2,12.8c0,1.1,0,2.2-.1,3.2l-.2,1.7a8.8,8.8,0,0,1-.2,1.6l-.2,1.7-.4,1.6-.3,1.6a5.8,5.8,0,0,1-.2,1l-.3,1.1a30.7,30.7,0,0,0-2.5-2.6c-.6,1.7-1.1,3.4-1.6,4.8L533,641.2,676.7,438.7c1.3-1.8,2.6-3.5,3.8-5.3l1.8-2.5,1.7-2.7,3.2-5.2c1.1-1.8,2.1-3.7,3.1-5.5l1.5-2.7a10.1,10.1,0,0,1,.7-1.5c.2-.5.5-1,.7-1.6s1.9-4,2.8-6,1.6-4,2.3-5.9,1.4-3.9,2-5.8c4.6-15.2,5.4-28.5,3.7-39.7a71.4,71.4,0,0,0-9.6-27.4,83.5,83.5,0,0,0-15-18.3l-2.7-5.3a13.8,13.8,0,0,1-1.3-3.1c-.3-1.4.1-1.8,1-1.6s5.3,3.2,6.5,3.5a149.1,149.1,0,0,0-14.5-18.7l-7-7.3-6.2-5.8c-7.9-7.3-14.9-12.9-21.2-17.7-12.4-9.6-21.9-16.2-30.3-22.1l-2.9-2.1-1.2-.8-1-.6-4.3-2.7a79.9,79.9,0,0,1-9.2-6.8,41.5,41.5,0,0,1-9.1-10.8,15.1,15.1,0,0,1-.9-1.8,16.3,16.3,0,0,1-.9-1.9c-.5-1.3-1.1-2.7-1.5-4.1a34.1,34.1,0,0,1-1-4.6l-.3-2.4c-.1-.5-.1-.9-.2-1.3v-1.3c2-.7,3.8-1.3,5.8-1.8s3.9-1,5.8-1.4c-.2-1.6.5-4.1,2.1-7.1a25.3,25.3,0,0,1,1.3-2.2,5.7,5.7,0,0,0,.8-1.3l.9-1.2,1-1.2.5-.6.2-.4.4-.4,2.8-3.4,1.7-1.9,1.8-2,.9-1,.5-.5.6-.7c.5-.7,1.1-1.3,1.7-2l1.5-1.8c1.5-2,3.2-4.1,4.9-6.2s2.9-3.7,4.4-5.6a124.5,124.5,0,0,1,8.4-9.5,14.4,14.4,0,0,1,3-2.5h.1l-.2-.3-1.8-2-1.6-1.8c-.5-.6-1.1-1.2-1.6-1.9l-2.8-3.5a52.1,52.1,0,0,1-7.1-11.8l-41-13.9a106.9,106.9,0,0,1-3.1,10.6c-1.2,3.8-2.8,8-4.4,12.1-3.4,8.3-7.5,16.9-11.8,25.1l-1.6,3.1-1.7,3c-1.1,2.1-2.3,3.9-3.4,5.8s-1.1,1.8-1.7,2.8l-1.7,2.7c-1.1,1.6-2.2,3.4-3.3,4.8l-.8,1.2-.7,1-1.5,2-2.8,3.5-1.3,1.5-1.2,1.3-.9,1.1-.3.4-.2.2v.2l-.3-.9a5,5,0,0,0-.2-1.2V179a2,2,0,0,1,.1-.7,2.5,2.5,0,0,1,.1-.8l.4-.9c-.9,1.2-1.5,1.9-1.5,2.2h0v.5a4.2,4.2,0,0,0,.4,1l.6,2.2.6,1.8a8,8,0,0,0,.4,1.8l.3,1.6v.8a1.3,1.3,0,0,1,.1.6,4.9,4.9,0,0,1,.1,1.2v.4h0v1.8h.1c-.1.2.5-2,.3-1h-.1a.6.6,0,0,1-.1.4v.3h0v-.2h.1v-.2l.5-.6.4-.6.9-1a4.3,4.3,0,0,1,.9-1l1.3-1.3a7.5,7.5,0,0,1,1.4-1.2l1.9-1.6,1-.7.5-.4.3-.2h0c0-.1-.1-.1-.2-.4a18.3,18.3,0,0,1-.7-1.7,44.2,44.2,0,0,1-1.5-6.6l-.3-2.1-.3-2.2V168l-.2-2.7c-.4-4.1-.6-8.2-.9-12.3-.9-16.4-.9-32.7-.5-48.4s1.1-30.7,1.7-44.6l6.8-168.5L442.5,34.7c-21.9,32.8-35.7,61.6-30.9,81.7q-13.4,31.9-25.8,64.1c11.2-19.1,17.4-27.3,20.6-29.5s3.4,1.6,2.9,7c-1.1,10.6-4.8,27.1,6.6,12.7-7.5,15.6-20.5,34-29.3,43.7s-13.6,10.8-4.4-8.5l4.8-5.1c-3.2-7.7-11,.7-20.2,15.2l42.4,20.5c3.8-6.9,8-15,12.2-23.2s8.7-16.5,12.9-23.8c8.4-14.5,16-24.7,19.3-22q12.3-22.2,26-43.3c2.3-3.5,4.4-6.6,6.4-9.3a63.5,63.5,0,0,1,5.7-6.9,21,21,0,0,1,4.5-3.7,5.8,5.8,0,0,1,2.4-1.1l-41-41.1c-13.9,44.2-27.8,88.3-40.7,132.3l-4.8,16.5-1.2,4.1-.7,2.7c-.3,1.1-.5,2.1-.8,3.1l-.7,3-.6,3.1c-.4,2.1-.6,4.2-.9,6.3a103.6,103.6,0,0,0-.6,12.5c0,2.1.1,4.2.2,6.3s.1,2.1.2,3.2l.2,3a166.9,166.9,0,0,0,3.8,21.6c3.1,13.3,7.1,25.1,10.6,35.8s6.8,20.4,8.6,28.4l23.7,105.6,51.7-97.8A471.1,471.1,0,0,0,533.2,288c7.5-21.4,13.6-42.6,19.1-63.2l-9.5,7.3-9.6,7.4c5.4-18.5,10.2-36.9,15.1-55,3.5-6.6,7.5-10.6,9.3-8.2s1.3,4,.7,8.9a85.7,85.7,0,0,1-1.4,9.1c-.8,3.6-1.8,7.7-3.1,12.7,3.3-4.7,5.6-11.2,7.1-18.3.7-3.6,1.3-7.3,1.7-11s.6-7.5.8-11c.5-14.4-.6-26.6-2-27.6l1.2-3.2c.4-1,.9-2,1.2-2.9l2.3-5.2c1.4-3.1,2.6-5.6,3.7-7.5,2.2-3.9,3.8-5.6,4.9-5.8s1.6,1,1.9,3.3a66.3,66.3,0,0,1-.1,8.8c-.1,3.6-.5,7.5-.8,11.2s-.6,7.2-.8,10c-.3,5.4-.2,7.8,1.5,2.3l1.9-7.6c.6-2.5,1.3-4.9,2-7.4,1.3-5,2.6-9.9,4.1-14.7-1.2,2-2.6,3.9-3.8,5.9.6-7.2.7-12.6.8-17.9a127.8,127.8,0,0,1,1.7-16.2L520.6,61c-3.1,8.4-8.7,19.6-19.8,37.6-9.2,12.6-13.2,14.9-15.7,15.3s-3.6-1-6.9,4.1c-.8-.6-3.4,2.7-9.7,16.1-12.4,20.6-24.5,41.5-36.3,62.5,8-6.7,15.9-13.3,24-19.8-5.3,15.3-13.4,30.1-16.9,38.2s-2.3,9.5,11.3-2c-10.2,8.3-23.5,27-37.8,51.1-7.1,12-14.5,25.4-21.7,39.4-3.7,7-7.3,14.1-10.9,21.4-1.8,3.6-3.5,7.3-5.3,10.9l-2.7,5.5-.6,1.3-.5,1-1,1.9c-1.5,2.8-3.2,5.9-5.1,9.1l-2.8,4.7-3,4.8c-3.9,6.5-8,12.9-11.9,19.2l-22.5,35.2c-13.8,21.4-24.5,37.7-29.8,43.4-5.4,14.1-11.4,27.8-17.8,42-3.2,7.2-6.5,14.5-9.7,22.5-.8,2-1.7,4-2.5,6.2s-1.6,4.2-2.3,6.6l-1.2,3.6c-.4,1.2-.7,2.6-1.1,3.9a85.6,85.6,0,0,0-1.8,9.3l-9.4,59.6,49.5-35.3c7.4-5.3,14.4-10.6,21.5-16.1l21.7-17.1c-6,3.4-12.6,3.9-13.1-.1s5.4-12.3,23.8-26.6c2,15.8,20.4,4.3,43.2-12.2,11.4-8.2,24-17.7,36.3-25.5s24.3-13.9,34.4-15.8c-8.4,2.6-6.4-1.3.6-8.2S486,441.9,497.4,433l4.3-3.4,4.1-3.1,7.6-5.9,6.4-5c1.8-1.5,3.3-2.8,4.5-4s3.2-4.1,2.1-5.2-4.2-1.7-10.5-.6l5.2-2.4a32.4,32.4,0,0,1,4-1.4l.8-.3h.8l1.3-.2h2l.7.2h.3c-16.5-38.6-4.6-10.7-8.3-19.3h0v.2c0,.1.1.3.1.4a.4.4,0,0,0,.1.3h0a1,1,0,0,1-.1-.4s.1,0,.1,1.1a3.4,3.4,0,0,1,.1,1.1H523c-.3,9-.7,18.1-1.1,27.1v.3l-.3.9-.6,2c-.3.7-.5,1.4-.8,2.2l-.3,1.1c0,.2,0,.2.1.3l3.2,3.7,4.9,5,6.6,6c10.1,5.9,19,11.8,27.4,17.8s16.3,11.9,24.5,18.1l2.6-1.3,1.3-.7.7-.3.4-.2h.1l.2-.3,4.2-10.4,4.3-10.3,4.1-10.2c2.8-6.8,5.7-13.6,8.4-20.5l4.2-10.4c.7-1.7,1.4-3.5,2.2-5.2l1-2.6,1-2.8,8.1-22c2.6-7.6,5.2-15.3,7.7-23.1,1.4-3.8,2.6-7.8,3.8-11.8l1.8-5.8c.5-1.4.9-2.8,1.4-4.1l5.3-16.6c6.9-22.1,13.7-44.4,20.2-66.6s12.5-41.9,18.7-63a3.8,3.8,0,0,0-2.9-.5,24.7,24.7,0,0,1-3.8.5,4.1,4.1,0,0,1-3.5-1.7c-.9-1.4-1.5-3.8-1.3-8.2,2.4-2.3,4.8-4.4,7-6.2a56.1,56.1,0,0,1,6.7-4.5,6.5,6.5,0,0,1,1.6-.9c.1-.1,0,0,0,.1v2.4c0,1.8.1,3.5.1,5.1.1,3.2.4,6.2.7,8.9a6.2,6.2,0,0,1-2.6,2.2,16.9,16.9,0,0,1-3.6,1.2,58,58,0,0,0-8,2.7,15.9,15.9,0,0,0-7,6.2,14.7,14.7,0,0,0-1.9,5.2,14.5,14.5,0,0,0,.2,6.2c-1.1-1.1-2.4-2.7-4-3.2s-3.9.4-7.1,4.6a251.7,251.7,0,0,1-15.7,30.7l-.5.9h-.1l.2-.3.4-.5,1.4-2.1,2.9-4.2,5.6-8.1c3.5-5.2,7.1-10.3,10.6-15.6l16.2-23.6,4.2-6.1,2.2-3.1,3.3-4.7,7.1-10.2,7.3-10.2Q718.5,124,733.5,104t30.9-39.6L713.1,26.7a282.7,282.7,0,0,0-17.7,33.2,185.7,185.7,0,0,0-12.1,37.6,168.1,168.1,0,0,0-3.5,39.7c.2,12.9,1.6,24.9,2.8,35.8s2,20.6,1.9,29.6a93.6,93.6,0,0,1-3.3,25.2,112.4,112.4,0,0,1-9.4,23.7,199.7,199.7,0,0,1-15.1,22.8L538.3,429.6l169.6-105a119.4,119.4,0,0,0,14.7-10.9A152.5,152.5,0,0,0,734,302.4a217.7,217.7,0,0,0,17.9-22.2c10.7-14.6,19.6-29,28.2-43.2-4.9,6.9-8.2,10.8-10.1,12.4s-2.3.8-1.8-1.5c1-4.6,5.7-15.5,10.3-26.9-3.8,7.1-5.8,6.1-7.5,3.6s-3.1-6.8-5.9-6.3c8.4-14.3,16.2-28.7,24-42.9l11.4-21.1c3.8-6.9,7.6-13.8,11.4-20.1a20.2,20.2,0,0,1-.3-9.3,37,37,0,0,1,1.1-5.4c.5-1.8,1.1-3.6,1.6-5l.6-1.5h0l-2.3-1.7-2.5-1.8-2.2-1.8-2.2-1.8-1.9-1.7-1.8-1.6-1.6-1.6L799,99.4,797.8,98l-1-1.4a10.7,10.7,0,0,1-1.9-3.8c-.1-.7.2-.6-.3.3a14.7,14.7,0,0,1-3.4,3.5l-.7.5-.8.5L788,98.7l-2,1.2-2.2,1.1c-1.6.9-3.1,1.5-5,2.4l-2.8,1.2-1.2.5-1.6.5a6.4,6.4,0,0,1-1.8.6l-.5.2h-.2a11.6,11.6,0,0,1,.3,2.9,60.8,60.8,0,0,1-1,11.8c-.6,4.5-1.5,9.2-2.2,13.6-1.4,8.7-1.9,16.1.5,19.4,2-10.1,3.9-19.4,4.9-28.1,1,4.6,2.2,7.7,3.8,9.3s3.7,1.7,6.1.6c4.7-2,10.7-8.4,16.2-16.8a63.4,63.4,0,0,0,7.1-14,43,43,0,0,0,2.2-8.2l.3-2.2a14.9,14.9,0,0,0,.2-2.1,23.7,23.7,0,0,0-.1-4.6,16.4,16.4,0,0,0-1.7-5.7l-1-1.7-.7-.8-.8-.9-.9-.9-1.1-.9-1.2-.8a6.1,6.1,0,0,0-1.4-.7,15.7,15.7,0,0,0-3-1.2l-3.1-.5a14.1,14.1,0,0,0-2.9-.1l-2.5.2-3.9.7-2.9.8-2.2.6-1.8.4h-2.7a2.5,2.5,0,0,1-1.8-.7,2.8,2.8,0,0,1-.9-1.7l-.7,1.1-.7,1.1L770,78.4a14.2,14.2,0,0,0-.8,1.8,11.9,11.9,0,0,0-.8,1.6c-1,2.2-1.7,4.1-2.4,6-1.3,3.7-2.5,7.1-3.8,10.5a204.1,204.1,0,0,1-8.6,20c-6.5,13.3-14.6,27.1-23,41.5s-16.7,29.4-23.8,44.8c-3.5,7.7-6.7,15.6-9.4,23.5a205.1,205.1,0,0,0-6.8,24.4c-2.7,2.4-4,2.6-4.5,1.8s-.2-2.5.1-4.5c.7-3.9,1.6-8.7-2.2-6.7a43.4,43.4,0,0,1-3.7,15.4,39.8,39.8,0,0,1-4,7,26.7,26.7,0,0,1-4.9,5.1l39.9,39.2c6.2-10.2,14.5-22.7,23.1-40.1l-.3,5.9a183.3,183.3,0,0,0,11.5-38.2,186.8,186.8,0,0,0,3.1-36.3c-.1-11.3-1-21.5-1.8-30.7s-1.5-17.5-1.7-25c-.4-15.1,1.4-27.2,5.9-39.7l1.8-4.8,2.1-4.7.5-1.2.7-1.2,1.2-2.5c.9-1.6,1.6-3.2,2.7-4.9l2.9-4.9q1.5-2.6,3.3-5.1l1.6-2.6,1.9-2.6,3.8-5.3L709,18.4c-14.5,15.5-31.2,34.1-49.5,56.3l13.6-2.2c-9.4,11.1-15.5,17.5-20.5,22.2s-9,8-14,12.8c-2,8.8,0,9.1,4.1,5.2a95.6,95.6,0,0,0,7.5-8.6l9.2-11.7c12.7-16.3,26.1-32.4,23.1-15.7-11.4,5.4-26.8,21.7-43.1,42.5l-6.2,8.1-1.6,2-2,2.8-4.2,5.9-8.6,12-8.7,12.6-4.3,6.4-4.3,6.4L591,188.1c-2.7,4.3-5.5,8.5-8.2,12.7s-5.4,8.4-8.1,12.6l3.1,6.9c.9,2.2,2.2,4.6,2.5,6.4,1,3.7,1.9,7.4,2.9,11a6.9,6.9,0,0,1,.2,1.3c0,.3.1.7.1,1.1a19.5,19.5,0,0,1,.2,2.3c.2,1.5.4,3,.5,4.5l.3,2.1c0,.4.1.7.1,1.1v.9c.1,1.3.1,2.5.1,3.7s0,2.3.1,3.4.1,1.1.1,1.6v1h0a12.1,12.1,0,0,0,1.5-.8h.1l.3-.4c1.9-2.6,3.5-5,5-7.2l6.8-9.8c6.1-9.1,8.5-13,9.4-14.3s0,.1-.9,1.4l-.9,1.4c.8-1.3,3.4-5.1,9.2-14.4l6-9.8,5.7-9.5,9.4-16.3,3.6-6.5,1.5-2.8.8-1.4.3-.6h-.1l-.2-.2-.6-.5-1.1-.8c-11.3-9.2-21.3-16.9-29.2-22.6l-1.4-1.1-.7-.5-.4-.2H609a4.1,4.1,0,0,0-.1-1.1q-.1-1.1-.3-1.8a4.5,4.5,0,0,0-1.1-2.3c-.2.6-.5,1.3-.7,2a11.7,11.7,0,0,0-.5,1.1l-.2.5v.3c-.1,0,.2.1.2.2l.4.3L619,152l13.5,10,7.1,5.3,1.8,1.3.9.7.4.3h.1l-.5.8-6.6,12,3.5-6.3a37.2,37.2,0,0,1,1.9-3.4l.9-1.8.5-.9.3-.4h0l-.5-.4-1-.7-35-25.2-2.3-1.6-1.1-.8-.6-.4h-.1l.7-1.6,1.2-3.3c.9-2.2,1.8-4.4,2.6-6.7l1.4-3.3c.5-1.1.9-2.3,1.4-3.4l3-6.8c1.9-4.5,4.3-8.9,6.5-13.3l1.6-3.2.9-1.7h.3l.6.4,1.3.9,2.5,1.7,19.9,13.7,9.9,6.7,4.9,3.4,2.4,1.6,1.3.9h-.5l-12-4.6-23.2-8.5-11-4-.3-.2h-.3v.4l-.3.8-.6,1.6c-.3,1-.7,2-1.1,3-2.8,8.1-5.5,15.7-7.9,22.4-1.1,3.4-2.2,6.6-3.1,9.6s-1,2.9-1.4,4.3-.9,2.6-1.3,3.8a37.2,37.2,0,0,1-2.8,7.2l2.3-5.2.5-1.3.3-.6.4-1,1.6-4c1-2.7,2.1-5.4,3.2-7.9l1.7-3.9c.5-1.3,1.1-2.6,1.7-3.8l6.9-15.1,3.5-7.4c0-.1.1-.1.1,0h.3l.4.2.8.3,1.7.6,3.4,1.1,6.7,2.3-10.8-3.5-1.4-.4-.6-.2-.2.4-.6,1.6-1.2,3.3-4.8,13.2c-1.7,4.4-3.3,8.8-4.8,13.3-.8,2.2-1.5,4.5-2.2,6.8s-1.4,4.3-2,6.4c-2,6.2-3.7,12.4-5.5,18.6-.9,3.1-1.9,6.2-2.7,9.3s-1.7,6.2-2.5,9.3c-6.8,24.9-13.1,50-19.5,74.7l-4.8,18.5c-1.6,6.1-3.2,12.3-4.8,18.3-1,3.6-1.9,7.1-2.8,10.6s-1.5,5.5-2.3,8.2c-1.5,5.5-3.1,11.1-4.9,16.7-.9,2.8-1.7,5.7-2.7,8.5l-1.5,4.4v.8c0,.1-.1.1-.1,0h-.1l-.8-.5-1.5-1.2a156.4,156.4,0,0,0-13.6-10.3c-1.3-.7-2.6-1.4-4-2l-2.2-.7h-4.2c-1.4-.1-2.8,0-4.1,0a39.3,39.3,0,0,0-4.8.6l-2.7.6-1.3.3-.7.2-.7.2-2.8,1-1.4.6h-.3l-.7.4-1.4.7-2.8,1.6a42,42,0,0,0-5.2,3.1l-2.5,1.5-1.3.8-1.1.8-4.5,3.1,11.1-1.1-7.7,5.1-6.8,4.8-6,4.4-5.4,4-9.6,7.2-8.3,6.1c-10.3,7.4-18.1,12.4-26.2,17.6s-16.5,10.4-27.3,18.4-24.3,18.8-42.3,35.1l2-3.1c-12.1,15.8-30.4,34.2-50.9,50.4,7.6-9.7-2.8-4.4-12.4.1-4.8,2.2-9.4,4.2-11.6,4.2s-1.8-2.1,3.3-8.1c-12.9,12.7-21.8,21.1-26.9,26l51.5,35.9a85.4,85.4,0,0,1,9.2,1.2h.3c-.1,0-.1-.1-.1-.2v-1a1.3,1.3,0,0,1-.1-.6c0-.3.1-.6.1-.9s.1-1.1.2-1.6v-.8l.2-.9a8.8,8.8,0,0,0,.2-1.6,7.7,7.7,0,0,0,.2-1.5l.3-1.4.3-2.6a16.4,16.4,0,0,1,.2-2.3c.1-1.5.1-2.9.1-4.4s0-3.1.1-5,.1-2,.2-3.2.2-2.5.4-3.9a181.5,181.5,0,0,1,5.5-26.2l13.7-8.4c2.6-10.7,3.5-16.9,6.7-25.6s8.7-19.9,20.9-40.6c-16,36.5,26.2-19.7,9.3,22,8.5-9.5,16-18.7,22.7-27.7A301.3,301.3,0,0,0,421.4,399c1.3-2.3,2.6-4.5,3.8-6.8s1.3-2.2,1.9-3.4l1.8-3.4c1.1-2.3,2.4-4.9,3.5-7.3l1.8-4.2.5-1,.3-.8a8.8,8.8,0,0,0,.5-1.5c3.1-8,5.7-15.6,8.4-22.7,10.4-28.6,19.1-50.8,40.2-65.7.7-12.5-2-14.3-6.4-10.4-2.3,2-4.9,5.5-7.7,9.7s-5.8,9.4-8.7,14.6c-11.8,21.2-22.4,45.8-18.7,33.2-7.8,8.2-7.1-2-2.3-17.7s13.7-36.8,21.9-50.3,19.9-23.2,35-37.4,33-33.5,53-68.2c-4.1,6.8-3.1,8.1-7.1,14.9,8.5-10.2,14-21.8,19.8-33.9,2.9-6,5.9-12.2,9.2-18.4A150.9,150.9,0,0,1,584,99.9L513.9,64.8a139.9,139.9,0,0,1-7.5,13.4,48.6,48.6,0,0,1,.4,9.3,55.2,55.2,0,0,1-1.1,9.1l-2.1,8.6c-.7,2.7-1.6,5.4-2.3,8s-.7,2.6-1,3.8a23.3,23.3,0,0,0-.8,3.6,30.9,30.9,0,0,0-.7,6.6c0,4.1,1.3,7.5,4.7,10a662.9,662.9,0,0,1,19.2-68.9L576,95l-2.8,5.2,2.5-5.4L523,68.4c-5.4,20.8-6.7,42.1-9.6,65.7-1.5,11.8-3.3,24.2-6.3,37.5-1.5,6.7-3.3,13.6-5.5,20.8-1.1,3.6-2.3,7.2-3.6,10.9s-2.7,7.5-4.3,11.3c-1.7-6-.7-26.9.6-41.4-9.6,18.7-6.6,38.8-16.7,57.4-3.5-2.5-3.9-9.1-2.7-18.3.5-4.7,1.5-10,2.7-15.9s2.7-12.2,4.4-19l5-21c1.7-7.1,3.6-14.6,5.1-21.8.8-3.6,1.7-7.3,2.4-10.9s1.3-7.1,2-10.6,1.2-6.9,1.6-10.2l.6-4.9c.2-1.6.3-3.2.5-4.7a28.7,28.7,0,0,0-2.5,4.3,52.9,52.9,0,0,0-2.2,5.3,118.5,118.5,0,0,0-3.7,12.6c-1.1,4.4-2,9.1-2.8,13.6s-1.6,9-2.3,13c-1.4,8.2-2.6,14.7-4.2,17.6s-3.5,2.1-6.2-4.7c6.3,19,.9,38.3-6.1,59.4-1.8,5.2-3.6,10.7-5.4,16.1-.9,2.8-1.8,5.5-2.7,8.4l-1.2,4.2-1.2,4.3c-1.7,5.7-2.9,11.8-4.1,17.8-.5,3.1-1,6.3-1.3,9.5s-.7,6.4-.9,9.7l-7.7-6.5c-.3,2-.7,4.6-1.1,7.5s-1.1,6.1-1.9,9.5a82.9,82.9,0,0,1-7,20.7V294.1l-.4-7.1c-.3,2.3-.7,4.5-1.2,6.7s-1,4.4-1.7,6.5a96.3,96.3,0,0,1-5,11.9l89.8,9.4c-2.7-10.8-5.3-20-7.3-28.5s-3.7-16.4-4.9-23.4-2.1-13.1-2.7-18c-.1-.6-.1-1.1-.2-1.7s-.1-1.1-.2-1.6-.1-1-.2-1.4a2,2,0,0,1-.1-.7v-.5a19,19,0,0,0-1.1-3.4v3.4a.8.8,0,0,0,.1.4v.7c.2,2,.5,4.2.8,6.3.6,4.1,1.3,7.8,1.5,10.5s.1,4.4-.4,5.5a2.3,2.3,0,0,1-2.3,1.3c-2,.1-4.6-1.2-6.5-.4s-1.8,1.4-2.2,3.3-.4,4.8.3,9.3c-2.9-5.9-5.3-11-7.1-15.6a72.6,72.6,0,0,1-3.8-11.9l-.3-1.3-.3-1.2a5.2,5.2,0,0,0-.2-1.1c0-.4-.1-.8-.1-1.1a18.3,18.3,0,0,1-.2-2.1,8.6,8.6,0,0,1,0-1.6,22.3,22.3,0,0,1,.8-6,13.3,13.3,0,0,1,1-2.4,15.5,15.5,0,0,1,1.2-2.2l1.4-1.8a5.6,5.6,0,0,0,.9-1.4,14,14,0,0,0,1-1.6c2.6-4.2,5.4-7.9,8.2-11.6,5.7-7.5,11.7-15.2,18.1-28.5s13-32.1,20.3-61.7c-1.6,8.1-7.2,22.6-12,31.9s-8.9,13.2-7.5.2c8-21.9,20.1-50.4,28.9-62.6,1.2-4.3,2.2-8.1,3-11.2L569-13.2,473.3,17a92.3,92.3,0,0,0-21.2,9.7,89.3,89.3,0,0,0-11.6,8.6c-1.3,1.2-2.5,2.3-3.4,3.3l-2.3,2.5a11.7,11.7,0,0,0-2.1,3c-.2.6,0,.8.5.7a8.4,8.4,0,0,0,2.5-1l4-2.3,5.4-3c2.1-1.1,4.2-2.2,6.4-3.2l3.3-1.4,1.7-.7,1.7-.6,3.2-1.1,3-.8a42,42,0,0,1,4.7-.8c2.5-.2,3.3.4,1.5,1.8s-6.1,3.9-12.5,8.6a67.6,67.6,0,0,0-9,3.8,68.6,68.6,0,0,0-7.2,4.4,60,60,0,0,0-6,4.8l-2.4,2.4-2.3,2.4A60.6,60.6,0,0,0,420,77.2a91.5,91.5,0,0,0-2.9,9.4c-.9,3.1-1.8,6.3-2.9,9.8a166.6,166.6,0,0,1-8.5,22.9l-8.5-4.7a274.6,274.6,0,0,0-14.9,24.5,110.4,110.4,0,0,0-7.1,15.8c-2.7,8.1-2,12-1.1,15.4s2.2,6.3.8,12.4-5.4,15.5-14.4,32.2l53.4,25.9,3.6-5.6-.9,7.1-58.9-28.6q1.1-15.9,2.7-31.8c-3.6,9.4-7.2,18.8-10.5,28.3l74.3,36.1,5.9-13.7,5.5,13c7.4-22.5,13.5-36.8,20.8-50.1s15.9-26,28.7-45.1c-5.6,3-8.7-.5-7.8-9.2s5.9-22.5,16.3-40.1c8.7-9.5,9.5-6.6,10.5-5.4s2.1.5,11.8-15.7L444.8,59.7c0,3,.1,7.7.3,13.3a128.7,128.7,0,0,1-5.5-13.4l80.7,23.1c-2.2,10.6-7,21.9-21.3,33.7,1.4,3.8-1.3,14.1,0,18,11.2-12.1,21.9-29.5,31.1-45.7l-102-29.1c.4,17.6,2.1,33.7,2.7,44.1-.1-8.7.1-19.1,1.4-24.5a811.4,811.4,0,0,0,20.1,88.5c-1.7,14.4-6.1,3.8-10.3-6.9.8,4.5,1.8,8.6,2.9,12.6.6,2.1,1.2,4.2,1.9,6.2s.7,2.5,1,3.8.8,2.6,1.3,3.9c1.7,5.3,3.7,11.1,6.6,18.2.7,1.7,1.6,3.6,2.5,5.6s2,4,3,6.1,1.2,2.2,1.9,3.3,1.3,2.3,2.1,3.5,1.6,2.4,2.4,3.7.8,1.2,1.3,1.9,1,1.3,1.6,1.9c-3.8-1.6-6.5-2.4-9.7-3.8a26.8,26.8,0,0,1-4.7-2.5A30.5,30.5,0,0,1,451,221l-2.8-3-2.8-3.7c-.4-.7-.9-1.4-1.4-2.1l-1.4-2.3c-.9-1.6-1.9-3.4-2.8-5.2s-.9-1.9-1.3-3-.9-2-1.3-3-.9-2.2-1.3-3.4-.8-2.2-1.2-3.5-.8-2.4-1.1-3.6-.8-2.6-1.1-3.9-1.2-4.7-1.8-7.3l1.3,5.6.8,3.4,1,3.6c1.2,4.7,2.7,9.6,4.6,14.9.9,2.6,2,5.4,3.1,8.1s1.3,2.9,2,4.3l1,2.1,1.1,2.3a108,108,0,0,0,12.2,18.8l2,2.4,1.1,1.3.5.6.6.6,4.9,4.9,2.7,2.3,2.8,2.4c1,.7,1.9,1.5,3,2.2l3.2,2.1,3.3,2.1,1.6.9,1.8.9c2.3,1.2,4.7,2.3,7.1,3.3a70,70,0,0,0,7.3,2.5l3.8,1.1,3.8.8,3.9.6,3.8.4a25.6,25.6,0,0,0,3.9.3h3.8c2.5-.1,5.1-.1,7.4-.4l3.6-.5,1.7-.2,1.7-.3a87.4,87.4,0,0,0,23.2-8.1l2.9-.6,4-1.2,4.6-1.8,5.1-2.3a147,147,0,0,0,19.8-11.6l7.8-5.8,3.2-2.3,2.4-1.6c2.7-1.7,3.8-1.5,1.7,2.2.9-1.1,1.9-2.1,2.8-3.1l2.8-3.2c1.7-2.1,3.4-4.2,5-6.4s3.1-4.4,4.6-6.7l1.1-1.7,1-1.7,2-3.4a187.9,187.9,0,0,0,13.5-29.5,260,260,0,0,0,9.4-33c.6-2.9,1.2-5.9,1.7-8.9s1.1-6.3,1.5-9.4l.4-2.4.3-2.5.6-5c.2-1.6.3-3.5.4-5.3s.2-3.6.4-5.4l6.3-94.6-83.3,36a56,56,0,0,0-5.5,2.7l-4.3,2.5-1.9,1.2-1.7,1.2c-1.2.8-2,1.5-2.9,2.2l-1.4,1.2-1.2,1-2.2,2L559.3,67a3.8,3.8,0,0,1-.9.9l-.8.9-3,3.3-1.2,1.5-1.3,1.5L550,78l-2,2.6c-2.5,3.5-4.6,6.6-6.5,9.6l-5.3,8.3c-3.1,5.1-6.4,10-7.2,10.7l-3.3,4.1-1.7,2-.9,1.1-.9,1.1c-1.1,1.6-2.3,3.1-3.5,4.6l-1.8,2.3-1,1.4-1.1,1.4c-.3,1.3-.9,2.9-1.6,4.9s-1.7,4.2-2.8,7-1.2,2.8-1.8,4.4a51.5,51.5,0,0,0-2,5.2l-2.2,6-.6,1.7a8.4,8.4,0,0,0-.5,1.7,30.7,30.7,0,0,0-1.1,3.6,126.8,126.8,0,0,0-8,32.8,106.4,106.4,0,0,0,1.8,33.3,112.8,112.8,0,0,0,12.1,31.3,138.2,138.2,0,0,0,21,27.8q3,3.2,6.3,6.3l3.3,3,1.7,1.6,1.3,1.1c3.5,3.1,6.8,5.8,10,8.3,6.6,5.2,13,9.7,19.3,13.9s12.4,7.9,18.2,11.4l4.4,2.6,4.1,2.4,4.1,2.3,1.9,1.1,1.7.9a4.9,4.9,0,0,1,.2,2.6l-.3,2.1a15.7,15.7,0,0,1-1.3,4,17.3,17.3,0,0,1-4.5,6.4l1.1.9a4.5,4.5,0,0,0,1.2.6,4.9,4.9,0,0,0,2.7,0,8.1,8.1,0,0,0,2.9-1.5,8.3,8.3,0,0,0,1.5-1.1,10,10,0,0,0,1.5-1.4c2-1.8,3.8-3.8,6.4-3.4a5,5,0,0,1,2,.9,5.2,5.2,0,0,1,1.1,1,4.7,4.7,0,0,1,1.1,1.3,16.9,16.9,0,0,1,2.5,10.3,20.1,20.1,0,0,1-1.7,8.2,9.7,9.7,0,0,1-1.4,2.5l-.7,1-.4.4-.4.4c-2.6,2.6-4.5,2.5-6.5,1.7s-3.5-2.5-5.4-3.3-4-.8-6.7,1.7l-1.6,5.6,100.1,49.9.9-8.5c.2-1.7.3-3.4.5-5.1s.3-3.7.5-5.6c.3-3.7.3-7.6.4-11.5,0-1.9-.1-3.9-.2-5.9s-.1-3.9-.3-5.9a150.3,150.3,0,0,0-3.9-24.5,129.5,129.5,0,0,0-9.2-24.4,121.6,121.6,0,0,0-14.9-22.7,151.2,151.2,0,0,0-20-20l-5.7-4.6-5.9-4.4-5.9-4.1-2.7-1.9-1.3-.9-1.3-.9-19.4-13a110.8,110.8,0,0,1,14.8,5.8c2.4,1.1,4.8,2.4,7.2,3.7a37.1,37.1,0,0,1,3.7,2.1l3.8,2.3c2.8,1.8,5.6,3.6,8.3,5.6l4,3,3.9,3.1c2.7,2.1,5.2,4.3,7.7,6.6l3.8,3.6,1.9,1.8ZM293,375.3c1.2-1,2.6-2.3,4-3.3a7.2,7.2,0,0,1,2.2-1h.4l-.4.4-.6.7c-1.6,2.1-2,4.7-1.1,10.1,1,2.1,1.8,2.6,2.4,2.2s1.2-1.8,1.7-3.6a22.1,22.1,0,0,0,.7-3v-.6h-.2l-.8-.4-1.7-.6A19.5,19.5,0,0,0,293,375.3ZM269.3,385c4.1,8.4,4.2,21.5,4.2,36.8C270.1,411.5,268.4,399.1,269.3,385ZM54.6,255.2a6.7,6.7,0,0,0,.6,1.5c-.1,1.5-.2,2.9-.2,4.2s0,2.5,0,3.7,0,4.2.1,5.9c0,3.3,0,5.4.1,6.4l96.1-4.6c.2-1.1.2-1,.1,0l-96.3,4.6c0-1.3-.1-4-.3-7.8-.1-1.9-.1-4-.2-6.4S54.6,257.8,54.6,255.2Zm7.6-67.5c-.1-6.7-1.5-6.5-3.4-4a16.4,16.4,0,0,1,.5,5.4,66.4,66.4,0,0,1-.4,8.5l-.6,5.1-.6,5.6c-.3,3.9-1,8-1.3,12.4a22.9,22.9,0,0,0,2-4.4,44.3,44.3,0,0,0,1.7-6.4c.2-1.3.4-2.7.6-4.3s.4-3.2.6-5C61.7,196.9,62,192.7,62.2,187.7ZM478,125.4l7.9-8.5c-5.2,11.7-7.4,15.7-8.2,15.8S477.5,129.1,478,125.4Z" transform="translate(-18.7 163)"/><path class="cls-1" d="M238.5,370.7c2.4-3.1,4.4-3.7,6.4-4C244.4,361.5,242.7,360.9,238.5,370.7Z" transform="translate(-18.7 163)"/><path class="cls-1" d="M513,130l1.8-2.8a13.9,13.9,0,0,0,.5-2.3v-.8c-.1-.2-.1-.4-.2-.6l-1,3.2Z" transform="translate(-18.7 163)"/><path class="cls-1" d="M57.3,397.3c.2-12,1.2-18.7,2.6-23.3C57.5,373.6,56,379.2,57.3,397.3Z" transform="translate(-18.7 163)"/><path class="cls-1" d="M263.6-128.6l-5.8,2.3-1.4.6-.7.3-.8.4-2.9,1.6-11.8,6.5c-7.7,5.4-15.5,10.5-23.1,16.8l7.7-5.7,6.7-4c2.1-1.2,3.9-2.3,5.7-3.2l2.6-1.4,2.4-1c3.1-1.1,5.8-2.1,8.5-2.9l3.9-1.3a14.6,14.6,0,0,1,2-.5l2-.3c-.4-1.2-2.7-2-3.2-3.1S256.4-126.1,263.6-128.6Z" transform="translate(-18.7 163)"/><path class="cls-1" d="M311.7,189.6c.1,5.5-2.2,11.1-2.4,16.5l4.7-.3c2.7-11.4,3.4-21.2,2.9-25.3-.2-2-.8-2.6-1.6-1.3S313.3,183.9,311.7,189.6Z" transform="translate(-18.7 163)"/><path class="cls-1" d="M295.4-102.7c.2,2,2,3.1,5,4.1l5.5,1.9a39.6,39.6,0,0,1,6.6,3.2,28.6,28.6,0,0,1,6.3,5.3,40.4,40.4,0,0,1,4.9,6.8l2.1,3.8,2,4c1.4,2.6,2.7,5.6,4,8.5a44.9,44.9,0,0,1-1.7-4.4c2.5-.9,3.7-3.1,3.6-6.1a19.4,19.4,0,0,0-.2-2.4,16.2,16.2,0,0,0-.8-2.7c-.3-.9-.7-1.9-1.1-2.9a21,21,0,0,0-1.5-3,34,34,0,0,0-11.7-12.6,28.2,28.2,0,0,0-11-3.8A34.5,34.5,0,0,0,295.4-102.7Z" transform="translate(-18.7 163)"/><path class="cls-1" d="M334-59.3a26.5,26.5,0,0,1,1.1,3l1,3.1,1,3.1.9,3.3,1.5,6.7.3,1.7.3,1.8c.2,1.2.3,2.4.5,3.6s1.7-.8,1.7-2.2a14.8,14.8,0,0,0-.3-2.7,22.5,22.5,0,0,0-.8-3.3c-.9-2.4-1.9-5.3-3.1-8.4-.7-1.5-1.4-3.1-2-4.7l-1-2.5C334.7-57.6,334.4-58.4,334-59.3Z" transform="translate(-18.7 163)"/><path class="cls-1" d="M79.5,107.3c1.7-3,2.2-5.1,2-6.9a7.8,7.8,0,0,0-1.9-4.1c-1.7-2.2-3.5-3.7-.5-6.7-1.8-9.1-8,13.2-9.6,29.1-.9,8-.8,14.1.6,13.8s1.7-2.1,3.2-6.1c.8-2,1.6-4.5,2.6-7.7Z" transform="translate(-18.7 163)"/><path class="cls-1" d="M306.7-71.6a44,44,0,0,0-4.2-14.1c-5.9,1.1-11.9,4.2-17.3,8.3a27.8,27.8,0,0,1,11.5-.4,18.6,18.6,0,0,1,5.5,2.2,13.1,13.1,0,0,1,2.4,1.7A15.1,15.1,0,0,1,306.7-71.6Z" transform="translate(-18.7 163)"/><path class="cls-1" d="M153.9,46.6c7.8-11.5,16-22.8,24.8-33.6-.8-.2-.7-1.5.1-3.6A64.2,64.2,0,0,1,183,1.3l-3.2,4.2-3.2,4.2-5.7,7.7-5.2,7.5c-.8,1.2-1.7,2.3-2.4,3.5s-1.5,2.2-2.2,3.3C155.5,40.2,152.4,46.3,153.9,46.6Z" transform="translate(-18.7 163)"/><path class="cls-1" d="M183,1.3c1.2-1.4,2.2-2.9,3.3-4.3l3.4-4.1,3.1-4,1.5-2,1.6-1.8c4-4.9,7.3-9.6,9.8-13.2-2.8,2.8-6.8,7.7-11.1,13-2.2,2.6-4.2,5.6-6.2,8.3l-2.9,4.1Z" transform="translate(-18.7 163)"/><path class="cls-1" d="M255.9-55.1c-1.5.6-3.2,1.1-4.7,1.8l-4.7,2.1c-3.9,2.6-7.5,5.6-11.3,8.6l-5.4,4.5-5.4,4.7A233.1,233.1,0,0,1,255.9-55.1Z" transform="translate(-18.7 163)"/><path class="cls-1" d="M67.7,166.3c2.3,15,4.8,29.8,7.3,44.6,3.9,4.2,4.7-8.2,1.7-24.7-1.8-5.3-3.3-12-4.8-16.6S69.1,162.7,67.7,166.3Z" transform="translate(-18.7 163)"/><path class="cls-1" d="M83.5,195.6c.4-5.9,1.1-9.2,2-11.8s2.1-4.6,3.3-8.2l-12.5.4c1.2,3.3,2.5,6.5,3.7,9.7S82.4,192.3,83.5,195.6Z" transform="translate(-18.7 163)"/><path class="cls-1" d="M97.6,159c1.9,2,5.7,17.7,8.5,26,1.4,4.2,2.5,6.5,2.8,4.2s-.1-9.1-1.6-22.9c-.9-1.1-2-4.5-3.2-8.6-.5-2-1-4.1-1.6-6.1s-1-3.9-1.5-5.4-1.7-4.7-2.3-3.3a18.2,18.2,0,0,0-.9,4.8C97.7,150.3,97.5,153.9,97.6,159Z" transform="translate(-18.7 163)"/><polygon class="cls-1" points="65.3 487.5 66.7 498.9 86.8 495.2 65.3 487.5"/><path class="cls-1" d="M104.1,158.1l2.1-.4,1.1-.2,1.3-.2H110l1.6-.2,3.8-.3h13l18.8-.3h0v-.4q.1-1.2.3-2.1c.2-1.4.3-2.7.4-4a9.9,9.9,0,0,0,.2-1.8v-3.1a6.6,6.6,0,0,0-.1-1.4,9.2,9.2,0,0,0-2.9-6.2,7.4,7.4,0,0,1-1.8-2.1,8.9,8.9,0,0,1-.9-3.9,36.4,36.4,0,0,1,1.1-7.7c.2-.9.5-1.9.7-2.9l.9-3.4,2.4-8.7c-.6-3.7-1.7-2.8-2.9.3s-2.9,8.4-4.4,13.1a112.3,112.3,0,0,1-4,11.6c-.6,1.2-1.1,2-1.5,2s-.8-.5-1.1-2c0,3.7,0,6.9.1,9.7s.2,5.1.4,7.2a42.9,42.9,0,0,0,.7,5l.3,1H119.9l-3.5.2h-2.6l-2.2.2-1.9.2-1.5.2-1.4.2-1.2.2-1,.2-.9.2-.8.2a15.4,15.4,0,0,0-3.8,1.4,3.1,3.1,0,0,0-.8.7h0a3.4,3.4,0,0,1,1-.8l.7-.3,1-.4,1.3-.5.9-.2Z" transform="translate(-18.7 163)"/><path class="cls-1" d="M133.7,133.2c0-4.7.1-10.1,0-16.3-.3,4.9-.4,8.3-.4,10.8A50.7,50.7,0,0,0,133.7,133.2Z" transform="translate(-18.7 163)"/><path class="cls-1" d="M753.5,111.1c-.8,2.1-2,5.5-3.5,9.4s-3.3,8.3-5.3,13L755.3,118c-.2-1.5-.5-2.8-.7-4A16,16,0,0,0,753.5,111.1Z" transform="translate(-18.7 163)"/><path class="cls-1" d="M754.9,170.8a59.5,59.5,0,0,0-7.5,4.5l-3.6,2.8-3.6,2.8a61.8,61.8,0,0,0,2.7,8.3,20.1,20.1,0,0,0,4.2,7,7.2,7.2,0,0,0,2.8,1.6,8.8,8.8,0,0,0,2.8,0,19.4,19.4,0,0,0,5.8-2.1c-1.1,1.1-2.5,2.2-4,2a3.2,3.2,0,0,1-2.3-2.2,15.3,15.3,0,0,1-1.1-5.4,36.7,36.7,0,0,1,.9-11.2,27.7,27.7,0,0,1,1.3-4.8A14.5,14.5,0,0,1,754.9,170.8Z" transform="translate(-18.7 163)"/><path class="cls-1" d="M333.7,366.7a16.7,16.7,0,0,1-2.8-1.8,6.9,6.9,0,0,0-2.4,1.4l-.9,1a7.5,7.5,0,0,0-.7,1.2,19.5,19.5,0,0,0-1.5,6.2l3.8-3.9Z" transform="translate(-18.7 163)"/><path class="cls-1" d="M407.5,160c-3.2,4-5.8,7.7-8,11l11.8-6.8c4.4-2.4,9.1-5,14.3-7.4l-4.6.7-4.6.8-4.5.8Z" transform="translate(-18.7 163)"/><path class="cls-1" d="M590.2,361.4c-.1.1-.1.1-.1.3h.2l-.2.4-.4.9-.3.8c0,.2-.1.3-.1.5l-.4.6-1.1,2.5c-.4.8-1,1.7-1.5,2.6l-1.5,2.6L715,437.6c.9-3.1,1.7-6.2,2.5-9.2l.3-1.2.4-1.5.6-2.9c.5-1.9.9-3.8,1.3-5.7-.3,2.1-.7,4.1-1.2,6.2l-.6,3-.2.7v.7l-.3,1.1c-.8,3.1-1.7,6-2.6,8.8L584.9,372.8a22,22,0,0,1,2-2.3,20.3,20.3,0,0,1,2-2.1l1.8-1.8.9-.8.7-.5,1.3-1,.3-.2.3-.2h1.6c.6-.1.8-.3,0-.7A47.1,47.1,0,0,0,590.2,361.4Z" transform="translate(-18.7 163)"/><path class="cls-2" d="M290.1,144.8H79.6a9.7,9.7,0,0,0-9.8,9.7V294.3h157v-.2H70V154.5a9.5,9.5,0,0,1,9.6-9.5H290.1a9.6,9.6,0,0,1,9.7,9.6v52.8h.2V154.6A9.8,9.8,0,0,0,290.1,144.8Z" transform="translate(-18.7 163)"/><path class="cls-2" d="M290.9,150.9H78.9a3.2,3.2,0,0,0-3.2,3.3V290.9H226.8v-.2H75.9V154.2a2.9,2.9,0,0,1,3-3h212a3.6,3.6,0,0,1,3.6,3.5v52.7h.2V154.7A3.8,3.8,0,0,0,290.9,150.9Z" transform="translate(-18.7 163)"/><path class="cls-2" d="M226.8,294.3v-.2H59.2v3.2a4.4,4.4,0,0,0,4.4,4.3H226.8v-.2H63.6a4.1,4.1,0,0,1-4.1-4.1v-3Z" transform="translate(-18.7 163)"/><path class="cls-3" d="M168.9,294.7v1a1.2,1.2,0,0,0,1.2,1.2h31.4a1.4,1.4,0,0,0,1.4-1.3v-.9Zm33.7.9a1.1,1.1,0,0,1-1.1,1.1H170.1a1,1,0,0,1-1-1v-.8h33.5Z" transform="translate(-18.7 163)"/><path class="cls-2" d="M322.5,207.3h-90a5.7,5.7,0,0,0-5.7,5.7V313.5h.2V213a5.5,5.5,0,0,1,5.5-5.5h90A5.5,5.5,0,0,1,328,213V340.4a5.5,5.5,0,0,1-5.5,5.5h-61v.2h61a5.6,5.6,0,0,0,5.7-5.7V213A5.7,5.7,0,0,0,322.5,207.3Z" transform="translate(-18.7 163)"/><path class="cls-2" d="M320.5,213h-86a1.8,1.8,0,0,0-1.7,1.8v98.7h.2V214.8a1.5,1.5,0,0,1,1.5-1.5h86a1.5,1.5,0,0,1,1.5,1.5V338.6a1.5,1.5,0,0,1-1.5,1.5h-59v.3h59a1.8,1.8,0,0,0,1.7-1.8V214.8A1.8,1.8,0,0,0,320.5,213Z" transform="translate(-18.7 163)"/><path class="cls-4" d="M277.5,211.4a1,1,0,0,1-1-1,1,1,0,1,1,2,0A1,1,0,0,1,277.5,211.4Zm0-1.7a.7.7,0,1,0,.7.7A.7.7,0,0,0,277.5,209.7Z" transform="translate(-18.7 163)"/><path class="cls-5" d="M257.1,418.2h-49a4.6,4.6,0,0,1-4.6-4.5V317.9a4.6,4.6,0,0,1,4.6-4.5h49a4.6,4.6,0,0,1,4.6,4.5v95.8A4.6,4.6,0,0,1,257.1,418.2Zm-49-104.6a4.3,4.3,0,0,0-4.3,4.3v95.8a4.3,4.3,0,0,0,4.3,4.3h49a4.3,4.3,0,0,0,4.3-4.3V317.9a4.3,4.3,0,0,0-4.3-4.3Z" transform="translate(-18.7 163)"/><path class="cls-5" d="M257.6,416H208a2,2,0,0,1-2-2V317.6a2,2,0,0,1,2-2h49.2a2,2,0,0,1,2,2v96.8A1.6,1.6,0,0,1,257.6,416ZM208,315.9a1.8,1.8,0,0,0-1.7,1.7V414a1.8,1.8,0,0,0,1.7,1.7h49.6a1.3,1.3,0,0,0,1.3-1.3V317.6a1.8,1.8,0,0,0-1.7-1.7Z" transform="translate(-18.7 163)"/><path class="cls-3" d="M245.1,319H222.3a3.4,3.4,0,0,1-2.9-1.6,1.4,1.4,0,0,1-.2-.7v-1.1h29.2v1.1a1.4,1.4,0,0,1-.2.7A3.4,3.4,0,0,1,245.1,319Zm-25.7-3.1v.8a.7.7,0,0,0,.1.5,3.2,3.2,0,0,0,2.7,1.6h22.8a3.2,3.2,0,0,0,2.7-1.6.7.7,0,0,0,.1-.5v-.8Z" transform="translate(-18.7 163)"/><path class="cls-4" d="M240.5,317.9a.7.7,0,0,1-.7-.7.7.7,0,0,1,1.4,0A.7.7,0,0,1,240.5,317.9Zm0-1.1a.5.5,0,0,0-.5.4.5.5,0,0,0,.5.5.5.5,0,0,0,.4-.5A.4.4,0,0,0,240.5,316.8Z" transform="translate(-18.7 163)"/><path class="cls-4" d="M236.7,317.9h-7a.6.6,0,0,1-.5-.6.5.5,0,0,1,.5-.5h7a.5.5,0,0,1,.5.5A.6.6,0,0,1,236.7,317.9Zm-7-.9a.5.5,0,0,0-.3.3.3.3,0,0,0,.3.3h7a.3.3,0,0,0,.3-.3.3.3,0,0,0-.3-.3Z" transform="translate(-18.7 163)"/><path class="cls-6" d="M491.7,140.8c7.9,0,14.3,1.4,19,4.1s7.1,6.4,7.1,11-1.5,6.6-4.6,10.1-7.6,6.3-13.7,8.7-13.7,3.6-22.8,3.6c-10.8,0-20.2-1.8-28-5.4s-13.8-8.5-17.9-14.6a34.7,34.7,0,0,1-6.3-20.1,37.9,37.9,0,0,1,4.5-17.8,49.9,49.9,0,0,1,13.3-15.6,68.4,68.4,0,0,1,21.2-11,91.8,91.8,0,0,1,28.4-4.1,85.9,85.9,0,0,1,27.9,4.4,67.5,67.5,0,0,1,22.3,12.1,55.5,55.5,0,0,1,14.8,18.4,51.5,51.5,0,0,1,5.2,23.1,73.9,73.9,0,0,1-6.1,29.8,81,81,0,0,1-43.2,42.4,83.7,83.7,0,0,1-32.8,6.3,57.2,57.2,0,0,1-15.5-1.9,87.3,87.3,0,0,1-12.8-4.3c-3.9-1.6-7.7-3-11.2-4.3a34.4,34.4,0,0,0-11-1.9,13.4,13.4,0,0,0-6.5,1.3,3.8,3.8,0,0,0-2.4,3.6c0,4.2,4.9,6.4,14.7,6.4a63,63,0,0,0,24.6-5.4,94,94,0,0,0,24-15.2c5.4-4.6,10.8-9.7,16.3-15.4s11-11.4,16.4-17.3L532.1,155c4.9-5.2,9.3-9.8,13.3-13.6a98.6,98.6,0,0,1,10-8.9,82.2,82.2,0,0,1,9.9-6.7h7.3a60.6,60.6,0,0,0-12.8,6.4,75.2,75.2,0,0,0-13.2,10.3A130.2,130.2,0,0,0,533.9,158c-4.1,6-8.3,12.2-12.5,18.7a228.6,228.6,0,0,1-13.6,19.1A120.2,120.2,0,0,1,492,212.6a71.9,71.9,0,0,1-19.1,12.1,60.5,60.5,0,0,1-23.8,4.5,97.5,97.5,0,0,1-16.7-1.1q-6.6-1-9.9-3.3a6.6,6.6,0,0,1-3.3-5.8,5.5,5.5,0,0,1,2.5-5c1.7-1.2,4.1-1.7,7.3-1.7a37.5,37.5,0,0,1,11.3,1.8c3.9,1.3,7.8,2.7,11.9,4.4a99.1,99.1,0,0,0,13,4.4,58.2,58.2,0,0,0,14.8,1.9,82.3,82.3,0,0,0,57.1-22.5,76.8,76.8,0,0,0,17.3-24.6,72,72,0,0,0,6.3-30,49.1,49.1,0,0,0-5.2-22.6,55.4,55.4,0,0,0-14.4-18,67.6,67.6,0,0,0-21.9-11.7,86.6,86.6,0,0,0-27.5-4.2,93.9,93.9,0,0,0-26,3.5,71,71,0,0,0-20.9,9.9,48.1,48.1,0,0,0-13.9,15,36.5,36.5,0,0,0-5,18.6,32.3,32.3,0,0,0,6.6,20.1c4.3,5.8,10.4,10.3,18,13.6a66.3,66.3,0,0,0,26.3,5,65.5,65.5,0,0,0,19.9-2.9,39.7,39.7,0,0,0,14.2-7.6c3.6-3.2,5.3-6.7,5.3-10.5s-2.2-7.6-6.6-10-10.5-3.7-17.9-3.7a54.3,54.3,0,0,0-21.3,4.1c-6.4,2.8-11.6,6.4-15.4,11a23.8,23.8,0,0,0-5.8,15.4,19.1,19.1,0,0,0,4.8,12.9c3.1,3.7,7.6,6.5,13.3,8.6a57.4,57.4,0,0,0,19.9,3.1,72.2,72.2,0,0,0,21.8-3.1,59.1,59.1,0,0,0,17.4-8.7,40.1,40.1,0,0,0,11.5-13.2,34.9,34.9,0,0,0,4.1-16.6,29,29,0,0,0-7.1-19.3c-4.8-5.5-11.5-9.8-20.1-12.8s-18.7-4.5-30.2-4.5a116,116,0,0,0-31.6,4.1,101.4,101.4,0,0,0-27.3,11.7,94.4,94.4,0,0,0-21.5,18,79.2,79.2,0,0,0-14,22.8,71.7,71.7,0,0,0-4.9,26.5,62.4,62.4,0,0,0,22.9,49.7,78.8,78.8,0,0,0,26,14.3,104.8,104.8,0,0,0,33,5,125.1,125.1,0,0,0,25.4-2.6,110.1,110.1,0,0,0,22.9-7.7,86.1,86.1,0,0,0,18.7-11.8A54.8,54.8,0,0,0,547,234l1.3.7a57.9,57.9,0,0,1-13.1,15.6,86.9,86.9,0,0,1-19.1,11.9,112.8,112.8,0,0,1-23.2,7.7,121.2,121.2,0,0,1-25.7,2.7,104.8,104.8,0,0,1-33.6-5.1,80.4,80.4,0,0,1-26.4-14.6,64.4,64.4,0,0,1-23.4-50.7,74,74,0,0,1,5-27A80.5,80.5,0,0,1,403,152a91.7,91.7,0,0,1,21.7-18.2,110,110,0,0,1,27.8-11.9,119.7,119.7,0,0,1,32.1-4.3c11.9,0,22.2,1.6,31,4.8s15.6,7.6,20.5,13.3a29.7,29.7,0,0,1,7.3,20,35.5,35.5,0,0,1-4.2,17.1,42.4,42.4,0,0,1-11.8,13.6,57.5,57.5,0,0,1-17.8,9.1,73.1,73.1,0,0,1-22.4,3.2c-8,0-14.9-1-20.8-3.2s-10.5-5.2-13.7-9.1a20.8,20.8,0,0,1-4.9-13.7,25,25,0,0,1,5.9-16.1,40.9,40.9,0,0,1,15.9-11.5A54.5,54.5,0,0,1,491.7,140.8Z" transform="translate(-18.7 163)"/><path class="cls-6" d="M555.8,223.5c3.2,0,6.8-1,11.1-3a83.8,83.8,0,0,0,13-8.2,92.9,92.9,0,0,0,12.6-11.7l1.7-1.9h1.4l-1.3,1.5a101.5,101.5,0,0,1-13.1,12.3,77.8,77.8,0,0,1-13.8,8.7c-4.5,2.1-8.4,3.1-11.6,3.1a7.6,7.6,0,0,1-6-2.6c-1.5-1.8-2.2-4.2-2.2-7.3a20,20,0,0,1,2.7-9.6,46.7,46.7,0,0,1,7.3-9.9,61.6,61.6,0,0,1,10.2-8.7,62.2,62.2,0,0,1,11.6-6.2,32.7,32.7,0,0,1,11.5-2.3,6.7,6.7,0,0,1,3.9,1.1,3,3,0,0,1,1.4,2.5c0,2.1-1.1,4.2-3.4,6.4a39,39,0,0,1-8.7,6.2,59.7,59.7,0,0,1-11.3,4.7,41.2,41.2,0,0,1-11.5,1.9l1.2-1.3a47.5,47.5,0,0,0,10.8-2,52.5,52.5,0,0,0,10.2-4.5,33,33,0,0,0,7.8-5.8c2-2,3-3.8,3-5.6s-1-2.3-3-2.3-5.1,1-8.5,3.1a68.9,68.9,0,0,0-10.6,7.7A90.2,90.2,0,0,0,562,200.1a65.3,65.3,0,0,0-7.7,10.6q-3,5.3-3,8.7C551.3,222.1,552.8,223.5,555.8,223.5Z" transform="translate(-18.7 163)"/><path class="cls-6" d="M631.1,200.2a65.5,65.5,0,0,1-16.4,13.6,33.5,33.5,0,0,1-16.6,4.8,38.5,38.5,0,0,0-10.4,1.1c-2.8.7-4.2,1.6-4.2,2.8s.6,1,1.8,1a22.3,22.3,0,0,0,11.3-3.2,34.5,34.5,0,0,0,9.9-8.5,40.9,40.9,0,0,0,7.1-11.9,37.2,37.2,0,0,0,2.6-13.5,40.3,40.3,0,0,1,.6-7.4,22.9,22.9,0,0,1,2.8-6.6,43.8,43.8,0,0,1,6.5-8l7.9-4.5c-3.4,2.6-6.1,4.7-8,6.4a20.5,20.5,0,0,0-3.9,4.5,7.9,7.9,0,0,0-1.2,4.2,35.6,35.6,0,0,0,.9,6.6,40.2,40.2,0,0,1,.9,8.5,26.3,26.3,0,0,1-3.3,12.5,40.6,40.6,0,0,1-8.6,11,48.9,48.9,0,0,1-11.9,7.8,31.6,31.6,0,0,1-13.3,2.9c-2.1,0-3.1-.6-3.1-1.8S584,220,587,219a38,38,0,0,1,10.9-1.4c10.7,0,21.1-5.7,31.4-17l1.7-1.9h1.4Zm-35.5-1.5h-1.4l1.7-1.8c8.8-9.7,15.9-17.7,21.4-23.9s8.9-10.6,10.7-13.1h6.2a139.5,139.5,0,0,0-14.3,12.9c-5.6,5.7-13.1,13.7-22.4,23.9Z" transform="translate(-18.7 163)"/><path class="cls-6" d="M623.4,224.3a4.1,4.1,0,0,1-3-1.2,4.1,4.1,0,0,1-1.2-3.1q0-5.4,6.9-15c4.6-6.4,12-14.9,22.1-25.5h11.3a26.4,26.4,0,0,0-4.6,3.1l-5.9,5.1c-6.8,6.6-12.3,12-16.4,16.4a101.5,101.5,0,0,0-8.7,10.3c-1.8,2.6-2.7,4.7-2.7,6.2s.8,2.9,2.3,2.9,4.2-1.1,7.4-3.1a91.8,91.8,0,0,0,10.7-8.4,151.2,151.2,0,0,0,11.2-11.4l1.8-1.9H656l-1.3,1.5a146.2,146.2,0,0,1-12.3,12.5,82.6,82.6,0,0,1-11.1,8.5C627.9,223.3,625.3,224.3,623.4,224.3Zm60.4-80.6c1,0,1.5.4,1.5,1.1s-.7,2.7-2.3,4.5a29.3,29.3,0,0,1-5.4,4.5,10.1,10.1,0,0,1-5.3,1.9c-1,0-1.5-.3-1.5-1.1s.8-2.6,2.4-4.3a27.4,27.4,0,0,1,5.5-4.6A9.2,9.2,0,0,1,683.8,143.7Z" transform="translate(-18.7 163)"/><path class="cls-6" d="M707.3,200.2A221.4,221.4,0,0,1,690.5,217a257,257,0,0,1-23,18.2,351.5,351.5,0,0,1-30.9,19.5c-7.5,4.3-14.6,8.6-21.4,12.8s-12.8,8.3-18.1,12.1a120.2,120.2,0,0,0-12.3,10c-3.1,2.9-4.6,5.1-4.6,6.6s.8,2,2.2,2c3.7,0,8.7-1.9,14.9-5.7a149.6,149.6,0,0,0,20.7-16,313.7,313.7,0,0,0,23.8-23.8c8.3-9,16.5-18.8,24.4-29.2l3.9-5.2,4.7-6.3c1.9-2.4,4-5.3,6.5-8.7l.5,2.2H678l15.7-16.1,8.2-9.9h10.5c-3.4,2.3-6.9,5-10.7,8.1s-7.3,6.3-10.9,9.7-6.7,6.6-9.5,9.8c-8.8,13.1-16.5,24.2-23.2,33.2S646,256.2,641.8,261q-17.4,18.6-32.7,28.5c-10.2,6.7-19,10-26.4,10-3,0-4.5-1-4.5-3.1s1.6-4.1,4.9-7.2a121.8,121.8,0,0,1,13.1-10.8c5.5-4,11.6-8.2,18.5-12.5s13.8-8.4,21-12.2a285.6,285.6,0,0,0,28.4-17.4,292.6,292.6,0,0,0,23.7-18.4,210.8,210.8,0,0,0,17.7-17.3l1.6-1.9h1.5Zm-56,23.8c-3.2,0-4.8-2.4-4.8-7.3a22.4,22.4,0,0,1,2.9-10.3,44.4,44.4,0,0,1,7.8-10.6,70.3,70.3,0,0,1,10.9-9.3,57.2,57.2,0,0,1,12.4-6.6,34.7,34.7,0,0,1,12.2-2.4c3.2,0,4.9,1.2,4.9,3.7s-1.2,4.3-3.4,7.3-6.4,7.7-12.3,14a136.5,136.5,0,0,1-12,11.2,70.6,70.6,0,0,1-10.9,7.6C655.8,223.1,653.2,224,651.3,224Zm.1-1c2.8,0,6.9-1.9,12.4-5.9a140,140,0,0,0,17.4-15.3c5.7-6,9.7-10.4,11.8-13.3s3.3-5.3,3.3-7.2-1.1-2.4-3.2-2.4-4.3.8-7.3,2.3a66.7,66.7,0,0,0-9.3,6.1,124.9,124.9,0,0,0-9.8,8.4,112.4,112.4,0,0,0-9,9.4,68.7,68.7,0,0,0-6.4,8.8c-1.7,2.7-2.5,5-2.5,6.8S649.7,223,651.4,223Z" transform="translate(-18.7 163)"/><path class="cls-6" d="M708.5,198.7h-1.4l1.7-1.8a98.8,98.8,0,0,1,15.4-14.3c4.9-3.6,8.7-5.4,11.6-5.4a4.2,4.2,0,0,1,2.9,1.1,4,4,0,0,1,1.1,3c0,2.7-1.1,5.7-3.3,9.1a103.9,103.9,0,0,1-11.6,13.5h1.9l-3.8,5L710.4,223H698.1a161.8,161.8,0,0,0,13.8-11.2c4.7-4.2,9.1-8.4,13.1-12.6a132.6,132.6,0,0,0,9.6-11.4c2.4-3.3,3.7-5.7,3.7-7.2s-.9-2.4-2.6-2.4-3.8.8-6.6,2.5a60.3,60.3,0,0,0-9.3,6.8,94.1,94.1,0,0,0-9.6,9.4Zm30.9,25.6a4.9,4.9,0,0,1-3.7-1.8,6.4,6.4,0,0,1-1.5-4.3,14.3,14.3,0,0,1,3-8.3,50.6,50.6,0,0,1,7.4-8.4l8.8-8.1c3-2.6,5.4-4.9,7.4-7s2.9-4,2.9-5.5-.9-2.1-2.6-2.1-4.1.9-7,2.7a80.6,80.6,0,0,0-9.9,7.2,138.4,138.4,0,0,0-11,9.8c-3.6,3.5-7,7-10.2,10.4h-1.6c3.2-3.5,6.7-7.1,10.5-10.7s7.5-7,11.2-10.1a87.8,87.8,0,0,1,10.4-7.5c3.2-1.9,5.8-2.9,7.8-2.9a5.5,5.5,0,0,1,3.8,1.5,5.2,5.2,0,0,1,1.8,4.4c0,2.7-1.1,5.4-3.1,8.2a62.7,62.7,0,0,1-7.6,8.1q-4.4,4-9,7.8c-3,2.6-5.5,4.9-7.6,7.1s-3.1,4.2-3.1,5.9a2.3,2.3,0,0,0,1,2,3.2,3.2,0,0,0,2.1.8q2.9,0,8.1-3.3a86.4,86.4,0,0,0,11.4-8.4,101.4,101.4,0,0,0,11.5-11.2l1.7-1.9h1.5l-1.3,1.5a109.5,109.5,0,0,1-12.4,12.2,100.6,100.6,0,0,1-11.9,8.7C744.5,223.3,741.6,224.3,739.4,224.3Z" transform="translate(-18.7 163)"/><path class="cls-6" d="M408,369a122.1,122.1,0,0,0-11.8,14.7c-2.3,3.6-3.5,6.6-3.5,9s.9,3.3,2.6,3.3a12.3,12.3,0,0,0,6.2-2.1,59.3,59.3,0,0,0,8.6-7.1c3.4-3.4,7.6-7.9,12.8-13.6l1.8-1.9h1.4l-1.3,1.4c-7.8,8.9-13.9,15.1-18.5,18.7s-8.3,5.5-11.4,5.5-5-1.9-5-5.6c0-5.9,3.3-12.5,9.9-20l5.4-6.5c1.8-2.1,3.7-4.4,5.9-6.8s5-5.4,8.2-8.9l12.4-13.2,18.4-19.4a39.7,39.7,0,0,0,5.6-.4,47,47,0,0,0,6.3-1.3,139.7,139.7,0,0,0-13,11.4q-8.5,8.1-19.2,19.2C422.7,352.8,415.4,360.7,408,369Zm-.7-29.9v-1.3h74v1.3Z" transform="translate(-18.7 163)"/><path class="cls-6" d="M421.3,396.9a3.9,3.9,0,0,1-3.5-2,11.1,11.1,0,0,1-1.2-5.6,22.8,22.8,0,0,1,2.9-10.4,49.1,49.1,0,0,1,7.7-10.6,70.6,70.6,0,0,1,11-9.2,55,55,0,0,1,12.4-6.6,32.8,32.8,0,0,1,12.2-2.5c3.2,0,4.8,1.3,4.8,3.8s-1.4,5.2-4.4,8.8-6.7,7.7-11.2,12.4a139.3,139.3,0,0,1-11.2,10.6,101.6,101.6,0,0,1-11,8.1C426.3,395.8,423.5,396.9,421.3,396.9Zm.2-1c1.8,0,4.3-.9,7.4-2.8a69,69,0,0,0,10.4-7.6c3.8-3.2,7.8-7,11.9-11.2s8.2-8.7,11-12.1,4.1-6.2,4.1-8.3-1-2.5-3.1-2.5a16.2,16.2,0,0,0-7.3,2.4,58.8,58.8,0,0,0-9.3,6.1,122.8,122.8,0,0,0-9.9,8.4,128.4,128.4,0,0,0-8.9,9.3,70.7,70.7,0,0,0-6.5,8.9c-1.6,2.7-2.4,5-2.4,6.8A2.3,2.3,0,0,0,421.5,395.9Zm46.7-23.2a51.2,51.2,0,0,1-9,8.3c-2.9,2-5.4,2.9-7.4,2.9s-5.2-1.6-5.2-5a13.5,13.5,0,0,1,1.6-6,41,41,0,0,1,5.2-7.2h6.9l-8.8,9.8a6.9,6.9,0,0,0-2.1,5,2.3,2.3,0,0,0,2.6,2.6q2.4,0,6.3-2.7a42.9,42.9,0,0,0,8-7.2l1.8-1.9h1.4Z" transform="translate(-18.7 163)"/><path class="cls-6" d="M306.6,526.9c-10,0-18.6-1.4-26-4.3s-12.9-6.7-16.9-11.8a27.5,27.5,0,0,1-5.9-17.4q0-9.6,6-15.6c4-4.1,9.1-6.1,15.3-6.1l.3,1.1c-6,0-10.9,1.9-14.7,5.8s-5.7,8.7-5.7,14.8a26.4,26.4,0,0,0,5.3,16.2,35,35,0,0,0,14.8,11,55.6,55.6,0,0,0,21.9,4,106.3,106.3,0,0,0,34.9-6,165.5,165.5,0,0,0,34.5-16.7,262.4,262.4,0,0,0,33.5-25,388.1,388.1,0,0,0,31.9-31.1q15.4-16.8,29.5-35t26.6-36.6c6.3-9.2,12-17.5,17.4-24.7s10.5-13.9,15.6-20.1S537.3,314.9,544,308s13.4-13.3,20.1-19.2,13.2-11.1,19.3-15.6a116.6,116.6,0,0,1,16.7-10.5c5-2.5,9-3.7,12.1-3.7s4.4,1.6,4.4,4.9-1.3,5.9-3.9,9.6a75.4,75.4,0,0,1-10.8,12.1A155.8,155.8,0,0,1,589.6,296c-4.9,3.9-10.3,8-16.1,12.2s-11.8,8.5-17.9,12.7-11.8,8-17.3,11.5-10.4,6.5-14.6,8.9a76.6,76.6,0,0,1-9.6,5l-.3-.9a137,137,0,0,0,13.9-7.8c5.4-3.3,11.2-7.2,17.4-11.6s12.6-9,18.9-13.8,12.3-9.5,18-14.2,10.8-9.1,15.2-13.1,7.8-7.2,10.2-9.8a30.2,30.2,0,0,0,5.3-7.6,13.8,13.8,0,0,0,1.6-4.9c0-1.6-.9-2.5-2.7-2.5s-7,1.4-12,4.2a145.9,145.9,0,0,0-16.9,11.5q-9.3,7.3-19.5,16.8c-6.8,6.4-13.4,13.1-19.9,20.2s-12.5,14.3-18,21.5l-23.9,32c-5.6,7.3-9.2,12.4-11,15.2q-16,24.3-32.5,46.1a472.8,472.8,0,0,1-34.1,40,262.2,262.2,0,0,1-36.3,31.5,161,161,0,0,1-38.8,20.5A121.4,121.4,0,0,1,306.6,526.9Zm203.5-130a3.8,3.8,0,0,1-2.8-1.2,4,4,0,0,1-1.3-3.1c0-3.6,2.2-8.4,6.6-14.6s11.4-14.4,21-24.7H499.4l.6-1.3h46.2a28.3,28.3,0,0,0-4.5,3.1l-5.9,5.1c-6.8,6.6-12.2,12.1-16.3,16.4a92,92,0,0,0-8.8,10.4c-1.8,2.6-2.7,4.6-2.7,6.1s.8,2.9,2.3,2.9,4.2-1,7.4-3.1a87.3,87.3,0,0,0,10.6-8.3,136.2,136.2,0,0,0,11.4-11.4l1.7-1.9h1.4l-1.2,1.4a162.9,162.9,0,0,1-12.3,12.5,78.5,78.5,0,0,1-11.2,8.6C514.8,395.9,512.1,396.9,510.1,396.9Zm50.3-70.5c-1,0-1.5-.4-1.5-1.3a5.9,5.9,0,0,1,1.6-3.3,23,23,0,0,1,3.8-3.9,27.9,27.9,0,0,1,4.6-3.3,8.9,8.9,0,0,1,4-1.3c1.1,0,1.7.5,1.7,1.3s-.8,2.8-2.5,4.7a28.9,28.9,0,0,1-5.9,5A11.4,11.4,0,0,1,560.4,326.4Z" transform="translate(-18.7 163)"/><path class="cls-6" d="M549.6,369a122.1,122.1,0,0,0-11.8,14.7c-2.3,3.6-3.4,6.6-3.4,9s.8,3.3,2.5,3.3a12,12,0,0,0,6.2-2.1,59.3,59.3,0,0,0,8.6-7.1c3.4-3.4,7.7-7.9,12.9-13.6l1.7-1.9h1.4l-1.3,1.4c-7.7,8.9-13.9,15.1-18.5,18.7s-8.3,5.5-11.4,5.5-5-1.9-5-5.6c0-5.9,3.3-12.5,9.9-20,1.9-2.3,3.7-4.5,5.5-6.5s3.7-4.4,5.9-6.8,4.9-5.4,8.2-8.9l12.3-13.2,18.4-19.4a38.7,38.7,0,0,0,5.6-.4,48.4,48.4,0,0,0,6.4-1.3,126.4,126.4,0,0,0-13.1,11.4c-5.7,5.4-12,11.8-19.1,19.2S557.1,360.7,549.6,369Zm-.7-29.9v-1.3h74v1.3Z" transform="translate(-18.7 163)"/></svg>