<svg id="Layer_1" data-name="Layer 1" xmlns="http://www.w3.org/2000/svg" width="38.5" height="38.8" viewBox="0 0 38.5 38.8"><defs><style>.cls-1{fill:#fff;}.cls-2{fill:#333;}</style></defs><path class="cls-1" d="M26.5,35.7v1.7a1.5,1.5,0,0,1-1.4,1.5h-.2v.2a2.2,2.2,0,0,1-2.2,2.2H20.4a2.2,2.2,0,0,1-2.2-2.2v-.2a1.5,1.5,0,0,1-1.3-1.5V35.7a1.4,1.4,0,0,1,1.4-1.4h6.8A1.4,1.4,0,0,1,26.5,35.7Z" transform="translate(-2.3 -2.5)"/><path class="cls-2" d="M25.1,34.3H18.3a1.4,1.4,0,0,0-1.4,1.4v1.7a1.5,1.5,0,0,0,1.3,1.5v.2a2.2,2.2,0,0,0,2.2,2.2h2.3a2.2,2.2,0,0,0,2.2-2.2v-.2h.2a1.5,1.5,0,0,0,1.4-1.5V35.7A1.4,1.4,0,0,0,25.1,34.3Zm-1.5,4.8a.9.9,0,0,1-.9.9H20.4a1,1,0,0,1-1-.9v-.2h4.2Zm1.7-1.7c0,.2-.1.2-.2.2H18.3c-.1,0-.2,0-.2-.2V35.7c0-.1.1-.1.2-.1h6.8c.1,0,.2,0,.2.1Z" transform="translate(-2.3 -2.5)"/><path class="cls-1" d="M31.9,20.9a9.5,9.5,0,0,1-2.7,6.7,9.2,9.2,0,0,0-1.7,2.9l-1,2.5a1.4,1.4,0,0,1-1.3,1H18.3a1.5,1.5,0,0,1-1.4-1l-1-2.8a9.5,9.5,0,0,0-1.7-2.7,10.1,10.1,0,0,1-2.6-6.6A10.1,10.1,0,0,1,21.8,11,10,10,0,0,1,31.9,20.9Z" transform="translate(-2.3 -2.5)"/><path class="cls-2" d="M21.8,11a10.1,10.1,0,0,0-10.2,9.9,10.1,10.1,0,0,0,2.6,6.6,9.5,9.5,0,0,1,1.7,2.7l1,2.8a1.5,1.5,0,0,0,1.4,1h6.9a1.4,1.4,0,0,0,1.3-1l1-2.5a9.2,9.2,0,0,1,1.7-2.9,9.5,9.5,0,0,0,2.7-6.7A10,10,0,0,0,21.8,11Zm6.5,15.7a13.8,13.8,0,0,0-2,3.3l-.9,2.6c-.1.1-.1.2-.2.2H18.3a.2.2,0,0,1-.2-.2L17,29.8a7.7,7.7,0,0,0-1.9-3.1,8.9,8.9,0,0,1-2.2-5.8,8.9,8.9,0,0,1,17.8,0A8.6,8.6,0,0,1,28.3,26.7Z" transform="translate(-2.3 -2.5)"/><path class="cls-2" d="M21.8,8.4a.6.6,0,0,0,.6-.6V3.4a.7.7,0,0,0-.6-.7c-.4,0-.6.3-.6.7V7.8A.5.5,0,0,0,21.8,8.4Z" transform="translate(-2.3 -2.5)"/><path class="cls-1" d="M21.8,8.7a.9.9,0,0,1-.9-.9V3.4a.9.9,0,0,1,.9-.9.9.9,0,0,1,.8.9V7.8A.9.9,0,0,1,21.8,8.7Zm0-5.7a.4.4,0,0,0-.4.4V7.8a.4.4,0,0,0,.4.4c.2,0,.3-.2.3-.4V3.4C22.1,3.2,22,3,21.8,3Z" transform="translate(-2.3 -2.5)"/><path class="cls-2" d="M11.4,12.2h.9a.7.7,0,0,0,0-.9L9.1,8.1a.6.6,0,0,0-.8,0,.6.6,0,0,0,0,.9Z" transform="translate(-2.3 -2.5)"/><path class="cls-1" d="M11.8,12.6l-.6-.3L8.1,9.2a.9.9,0,0,1,0-1.3.9.9,0,0,1,1.2,0l3.2,3.2a.9.9,0,0,1-.7,1.5ZM8.7,8.2H8.4a.5.5,0,0,0,0,.5L11.6,12h.5a.4.4,0,0,0,.1-.3c0-.1,0-.2-.1-.2L8.9,8.3C8.9,8.2,8.8,8.2,8.7,8.2Z" transform="translate(-2.3 -2.5)"/><path class="cls-2" d="M8.2,21.5a.6.6,0,0,0-.6-.6H3.1a.6.6,0,0,0-.6.6.6.6,0,0,0,.6.6H7.6A.6.6,0,0,0,8.2,21.5Z" transform="translate(-2.3 -2.5)"/><path class="cls-1" d="M7.6,22.3H3.1a.8.8,0,0,1-.9-.8.9.9,0,0,1,.9-.9H7.6a.8.8,0,0,1,.8.9A.7.7,0,0,1,7.6,22.3ZM3.1,21.1c-.2,0-.3.2-.3.4a.3.3,0,0,0,.3.3H7.6a.3.3,0,0,0,.3-.3c0-.2-.1-.4-.3-.4Z" transform="translate(-2.3 -2.5)"/><path class="cls-2" d="M11,31,7.9,34.1a.6.6,0,0,0,0,.9.5.5,0,0,0,.8,0l3.2-3.2a.6.6,0,0,0,0-.8A.6.6,0,0,0,11,31Z" transform="translate(-2.3 -2.5)"/><path class="cls-1" d="M8.3,35.4l-.6-.2a1.1,1.1,0,0,1,0-1.3l3.2-3.1a.6.6,0,0,1,.6-.3h0a.9.9,0,0,1,.6.3.9.9,0,0,1,0,1.2L8.9,35.2Zm2.9-4.3L8.1,34.3a.3.3,0,0,0,0,.5c.1.2.3.2.5,0l3.1-3.1a.5.5,0,0,0,0-.6h-.5Z" transform="translate(-2.3 -2.5)"/><path class="cls-2" d="M31.6,31.3h0a.6.6,0,1,0-.9.9l3.2,3.2a.5.5,0,0,0,.8,0,.6.6,0,0,0,0-.9Z" transform="translate(-2.3 -2.5)"/><path class="cls-1" d="M34.3,35.8l-.6-.2-3.2-3.2a1.4,1.4,0,0,1-.2-.6.8.8,0,0,1,.2-.6.9.9,0,0,1,1.3,0l3.1,3.1a.9.9,0,0,1,0,1.3Zm-3.1-4.4h-.3a.4.4,0,0,0-.1.3c0,.1,0,.2.1.2l3.2,3.2h.5a.5.5,0,0,0,0-.5l-3.2-3.2Z" transform="translate(-2.3 -2.5)"/><path class="cls-2" d="M39.9,21.4H35.4a.6.6,0,0,0-.6.6.6.6,0,0,0,.6.6h4.5a.6.6,0,0,0,.6-.6A.6.6,0,0,0,39.9,21.4Z" transform="translate(-2.3 -2.5)"/><path class="cls-1" d="M39.9,22.9H35.4a.8.8,0,0,1-.8-.9.7.7,0,0,1,.8-.8h4.5a.8.8,0,0,1,.9.8A.9.9,0,0,1,39.9,22.9Zm-4.5-1.2a.3.3,0,0,0-.3.3c0,.2.1.4.3.4h4.5c.2,0,.3-.2.3-.4a.3.3,0,0,0-.3-.3Z" transform="translate(-2.3 -2.5)"/><path class="cls-2" d="M31.5,12.7c.2,0,.4,0,.5-.2l3.1-3.1a.6.6,0,0,0,0-.9.6.6,0,0,0-.8,0l-3.2,3.2a.6.6,0,0,0,0,.8A.4.4,0,0,0,31.5,12.7Z" transform="translate(-2.3 -2.5)"/><path class="cls-1" d="M31.5,13l-.6-.3a.9.9,0,0,1,0-1.2l3.2-3.2a.9.9,0,0,1,1.2,0,1.1,1.1,0,0,1,0,1.3l-3.2,3.1A.6.6,0,0,1,31.5,13Zm3.2-4.4h-.3l-3.1,3.1a.5.5,0,0,0,0,.6h.5l3.1-3.2.2-.3-.2-.2Z" transform="translate(-2.3 -2.5)"/><path class="cls-2" d="M21.8,14.5a6.4,6.4,0,0,0-3.1.9,6.8,6.8,0,0,0-3.5,6c0,.4.2.7.6.7h0a.6.6,0,0,0,.6-.6c.2-2.4,1.1-4.1,2.8-5a6.1,6.1,0,0,1,2.6-.7.7.7,0,0,0,.6-.7A.6.6,0,0,0,21.8,14.5Z" transform="translate(-2.3 -2.5)"/></svg>