<svg xmlns="http://www.w3.org/2000/svg" width="99.477" height="101.067" viewBox="0 0 99.477 101.067">
  <g id="Subtraction_2" data-name="Subtraction 2" transform="translate(11339.475 -11.934)" fill="#fff">
    <path d="M -11291.759765625 111.5010986328125 C -11301.8388671875 111.5010986328125 -11311.564453125 108.5256271362305 -11319.88671875 102.896369934082 C -11327.109375 98.00677490234375 -11332.888671875 91.40055084228516 -11336.748046875 83.66088104248047 C -11332.4736328125 84.74569702148438 -11328.068359375 85.29412841796875 -11323.6123046875 85.29412841796875 C -11316.4248046875 85.29412841796875 -11309.4501953125 83.88546752929688 -11302.8828125 81.10728454589844 C -11296.53125 78.42041778564453 -11290.8359375 74.57941436767578 -11285.9521484375 69.69094085693359 C -11281.05859375 64.79745483398438 -11277.2177734375 59.10039901733398 -11274.5361328125 52.75862884521484 C -11271.759765625 46.19161224365234 -11270.3515625 39.21475601196289 -11270.3515625 32.02191543579102 C -11270.3515625 25.97836685180664 -11271.3486328125 20.08139419555664 -11273.3193359375 14.44648742675781 C -11269.4462890625 15.97415637969971 -11265.7763671875 17.9818286895752 -11262.3759765625 20.43658638000488 C -11258.15625 23.48244285583496 -11254.4443359375 27.15077209472656 -11251.34375 31.33967208862305 C -11244.90234375 40.03639984130859 -11241.498046875 50.37185668945312 -11241.498046875 61.22888565063477 C -11241.498046875 68.01421356201172 -11242.826171875 74.59695434570312 -11245.4462890625 80.79425811767578 C -11247.9814453125 86.78579711914062 -11251.6064453125 92.16246795654297 -11256.2177734375 96.77434539794922 C -11260.8369140625 101.3935699462891 -11266.212890625 105.0190887451172 -11272.197265625 107.5501861572266 C -11278.390625 110.1718826293945 -11284.97265625 111.5010986328125 -11291.759765625 111.5010986328125 Z" stroke="none"/>
    <path d="M -11291.759765625 110.0010986328125 C -11285.1748046875 110.0010986328125 -11278.7900390625 108.7118072509766 -11272.7822265625 106.1686859130859 C -11266.9765625 103.7131881713867 -11261.7607421875 100.1956405639648 -11257.2783203125 95.71369934082031 C -11252.8037109375 91.23902130126953 -11249.287109375 86.02249908447266 -11246.828125 80.210205078125 C -11244.2861328125 74.19874572753906 -11242.998046875 67.8125 -11242.998046875 61.2288818359375 C -11242.998046875 50.69565200805664 -11246.30078125 40.66891479492188 -11252.548828125 32.2321891784668 C -11255.5576171875 28.1675910949707 -11259.16015625 24.60819053649902 -11263.25390625 21.65282249450684 C -11265.6708984375 19.90825653076172 -11268.2275390625 18.39621543884277 -11270.8994140625 17.1297721862793 C -11269.5390625 21.94977188110352 -11268.8515625 26.93545532226562 -11268.8515625 32.02191543579102 C -11268.8515625 39.41656112670898 -11270.2998046875 46.5899772644043 -11273.154296875 53.34272766113281 C -11275.9111328125 59.8633918762207 -11279.8603515625 65.72080993652344 -11284.8916015625 70.75102233886719 C -11289.912109375 75.77699279785156 -11295.7685546875 79.72611236572266 -11302.2978515625 82.48877716064453 C -11309.0517578125 85.34560394287109 -11316.22265625 86.79412841796875 -11323.6123046875 86.79412841796875 C -11327.072265625 86.79412841796875 -11330.5029296875 86.47231292724609 -11333.869140625 85.83415985107422 C -11330.1953125 92.12235260009766 -11325.1513671875 97.52036285400391 -11319.046875 101.6539306640625 C -11310.9736328125 107.1147003173828 -11301.5380859375 110.0010986328125 -11291.759765625 110.0010986328125 M -11291.759765625 113.0010986328125 C -11302.1396484375 113.0010986328125 -11312.15625 109.9365921020508 -11320.7275390625 104.1388397216797 C -11329.083984375 98.48100280761719 -11335.5673828125 90.58945465087891 -11339.474609375 81.31726837158203 C -11334.369140625 82.95960998535156 -11329.033203125 83.79412841796875 -11323.6123046875 83.79412841796875 C -11316.626953125 83.79412841796875 -11309.8486328125 82.42534637451172 -11303.466796875 79.72580718994141 C -11297.302734375 77.11789703369141 -11291.7626953125 73.385009765625 -11287.013671875 68.63085174560547 C -11282.2587890625 63.87625122070312 -11278.5244140625 58.33956146240234 -11275.91796875 52.17451477050781 C -11273.21875 45.79103851318359 -11271.8515625 39.01071548461914 -11271.8515625 32.02191543579102 C -11271.8515625 25.05994415283203 -11273.212890625 18.30137634277344 -11275.8935546875 11.93392944335938 C -11270.73828125 13.59191417694092 -11265.8974609375 16.04459190368652 -11261.498046875 19.22035980224609 C -11257.1533203125 22.35657501220703 -11253.3310546875 26.13379096984863 -11250.1376953125 30.44713020324707 C -11243.5048828125 39.40306854248047 -11239.998046875 50.04722213745117 -11239.998046875 61.2288818359375 C -11239.998046875 68.21598815917969 -11241.3662109375 74.99525451660156 -11244.064453125 81.3782958984375 C -11246.6748046875 87.54618835449219 -11250.4052734375 93.08302307128906 -11255.1572265625 97.83500671386719 C -11259.9130859375 102.5910797119141 -11265.44921875 106.324577331543 -11271.61328125 108.9317016601562 C -11277.9921875 111.6319580078125 -11284.7705078125 113.0010986328125 -11291.759765625 113.0010986328125 Z" stroke="none" fill="#707070"/>
  </g>
</svg>
