<svg xmlns="http://www.w3.org/2000/svg" width="37" height="26" viewBox="0 0 37 26">
  <g id="Group_366" data-name="Group 366" transform="translate(-3 -3)">
    <g id="Path_412" data-name="Path 412" transform="translate(3 3)" fill="#fff">
      <path d="M 33 21.5 L 2 21.5 C 1.172899961471558 21.5 0.5 20.82710075378418 0.5 20 L 0.5 2 C 0.5 1.172899961471558 1.172899961471558 0.5 2 0.5 L 33 0.5 C 33.82709884643555 0.5 34.5 1.172899961471558 34.5 2 L 34.5 20 C 34.5 20.82710075378418 33.82709884643555 21.5 33 21.5 Z" stroke="none"/>
      <path d="M 2 1 C 1.448600769042969 1 1 1.448600769042969 1 2 L 1 20 C 1 20.55139923095703 1.448600769042969 21 2 21 L 33 21 C 33.55139923095703 21 34 20.55139923095703 34 20 L 34 2 C 34 1.448600769042969 33.55139923095703 1 33 1 L 2 1 M 2 0 L 33 0 C 34.10456848144531 0 35 0.8954296112060547 35 2 L 35 20 C 35 21.10457038879395 34.10456848144531 22 33 22 L 2 22 C 0.8954315185546875 22 0 21.10457038879395 0 20 L 0 2 C 0 0.8954296112060547 0.8954315185546875 0 2 0 Z" stroke="none" fill="#707070"/>
    </g>
    <g id="Path_413" data-name="Path 413" transform="translate(28 13)" fill="#fff">
      <path d="M 10 15.5 L 2 15.5 C 1.172899961471558 15.5 0.5 14.82709980010986 0.5 14 L 0.5 2 C 0.5 1.172899961471558 1.172899961471558 0.5 2 0.5 L 10 0.5 C 10.82709980010986 0.5 11.5 1.172899961471558 11.5 2 L 11.5 14 C 11.5 14.82709980010986 10.82709980010986 15.5 10 15.5 Z" stroke="none"/>
      <path d="M 2 1 C 1.448599815368652 1 1 1.448599815368652 1 2 L 1 14 C 1 14.55140018463135 1.448599815368652 15 2 15 L 10 15 C 10.55140018463135 15 11 14.55140018463135 11 14 L 11 2 C 11 1.448599815368652 10.55140018463135 1 10 1 L 2 1 M 2 0 L 10 0 C 11.10457038879395 0 12 0.8954296112060547 12 2 L 12 14 C 12 15.10457038879395 11.10457038879395 16 10 16 L 2 16 C 0.8954296112060547 16 0 15.10457038879395 0 14 L 0 2 C 0 0.8954296112060547 0.8954296112060547 0 2 0 Z" stroke="none" fill="#707070"/>
    </g>
  </g>
</svg>
