<svg xmlns="http://www.w3.org/2000/svg" xmlns:xlink="http://www.w3.org/1999/xlink" width="81" height="81" viewBox="0 0 81 81">
  <defs>
    <clipPath id="clip-path">
      <circle id="Ellipse_1" data-name="Ellipse 1" cx="40.5" cy="40.5" r="40.5" transform="translate(1245 1913)" fill="none"/>
    </clipPath>
  </defs>
  <g id="Group_338" data-name="Group 338" transform="translate(-1245 -1913)">
    <g id="Group_12" data-name="Group 12" clip-path="url(#clip-path)">
      <g id="Group_11" data-name="Group 11">
        <rect id="Rectangle_15" data-name="Rectangle 15" width="82.218" height="82.218" transform="translate(1244.391 1912.391)" fill="#22d5ff"/>
        <path id="Path_5" data-name="Path 5" d="M1304.247,1942.953c-1.647-2.578-5.187-3.649-9.957-3.035-.168.02-.347.05-.515.07-.07-.159-.139-.318-.218-.476-2.053-4.354-4.86-6.753-7.914-6.753s-5.871,2.4-7.914,6.753c-.069.158-.148.317-.218.476-.178-.03-.347-.05-.515-.07-4.78-.624-8.31.457-9.957,3.035s-1.14,6.237,1.418,10.3c.338.536.7,1.071,1.1,1.6-.4.535-.763,1.061-1.1,1.6-2.558,4.066-3.064,7.735-1.418,10.3,1.339,2.1,3.937,3.2,7.438,3.2a20.429,20.429,0,0,0,2.509-.169c.168-.02.347-.049.515-.069.07.159.139.317.219.476,2.052,4.353,4.859,6.753,7.913,6.753s5.871-2.4,7.914-6.753c.069-.159.148-.317.218-.476.178.03.347.049.516.069a18.608,18.608,0,0,0,2.508.169c3.5,0,6.1-1.1,7.438-3.2,1.646-2.578,1.14-6.238-1.418-10.3-.338-.535-.7-1.07-1.1-1.6.4-.536.763-1.061,1.1-1.6C1305.4,1949.181,1305.9,1945.521,1304.247,1942.953Zm-24.722-2.6c1.675-3.57,3.907-5.613,6.118-5.613s4.443,2.043,6.119,5.613a.034.034,0,0,0,.01.02,35.066,35.066,0,0,0-6.139,2.092,34.276,34.276,0,0,0-6.138-2.092C1279.514,1940.375,1279.514,1940.365,1279.525,1940.355Zm15.053,14.5a43.816,43.816,0,0,1-.258,4.75,43.762,43.762,0,0,1-8.687,5.444,44.689,44.689,0,0,1-4.819-2.667,43.8,43.8,0,0,1-3.868-2.777,43.856,43.856,0,0,1,0-9.5,43.88,43.88,0,0,1,8.687-5.444,44.785,44.785,0,0,1,4.82,2.667,43.927,43.927,0,0,1,3.867,2.777A43.814,43.814,0,0,1,1294.578,1954.853Zm1.894-2.886a32.14,32.14,0,0,1,2.737,2.886,32.305,32.305,0,0,1-2.737,2.886q.09-1.428.089-2.886T1296.472,1951.967Zm-2.559,10.452a31.723,31.723,0,0,1-1.358,5.048,31.316,31.316,0,0,1-4.522-1.388c1.17-.615,2.34-1.29,3.5-2.023Q1292.754,1963.267,1293.913,1962.419Zm-10.66,3.66a29.387,29.387,0,0,1-4.522,1.388,31.723,31.723,0,0,1-1.358-5.048c.763.566,1.557,1.111,2.38,1.627C1280.913,1964.789,1282.083,1965.464,1283.253,1966.079Zm-8.439-8.34a32.305,32.305,0,0,1-2.737-2.886,32.14,32.14,0,0,1,2.737-2.886q-.09,1.428-.089,2.886T1274.814,1957.739Zm2.559-10.452a31.663,31.663,0,0,1,1.358-5.048,31.331,31.331,0,0,1,4.522,1.388c-1.17.615-2.34,1.29-3.5,2.023Q1278.532,1946.439,1277.373,1947.287Zm14.151-1.637c-1.151-.733-2.321-1.418-3.5-2.023a29.373,29.373,0,0,1,4.522-1.388,31.783,31.783,0,0,1,1.359,5.048Q1292.758,1946.438,1291.524,1945.65Zm-21.39,6.545c-2.1-3.332-2.619-6.317-1.429-8.181.952-1.487,3.015-2.291,5.8-2.291a17.9,17.9,0,0,1,2.231.149h.02a35.617,35.617,0,0,0-1.666,7.189,37.036,37.036,0,0,0-4.255,4.176C1270.589,1952.9,1270.352,1952.552,1270.134,1952.195Zm6.594,15.629a17.9,17.9,0,0,1-2.231.149c-2.787,0-4.85-.794-5.8-2.291-1.19-1.865-.675-4.849,1.427-8.181.219-.347.457-.7.7-1.052a36.781,36.781,0,0,0,4.254,4.175,35.667,35.667,0,0,0,1.666,7.19C1276.748,1967.824,1276.738,1967.824,1276.728,1967.824Zm15.034,1.527c-1.676,3.57-3.907,5.613-6.119,5.613s-4.443-2.043-6.118-5.613a.045.045,0,0,0-.011-.02,35.076,35.076,0,0,0,6.139-2.092,34.285,34.285,0,0,0,6.138,2.092C1291.772,1969.331,1291.772,1969.341,1291.762,1969.351Zm9.39-11.84c2.1,3.332,2.619,6.317,1.429,8.181s-4.116,2.648-8.023,2.132h-.02a35.684,35.684,0,0,0,1.666-7.19,36.861,36.861,0,0,0,4.254-4.175C1300.7,1956.807,1300.934,1957.154,1301.152,1957.511Zm-4.958-8.439a35.6,35.6,0,0,0-1.666-7.19h.02c3.907-.506,6.833.268,8.023,2.132s.674,4.849-1.428,8.181c-.218.347-.457.705-.7,1.052A35.991,35.991,0,0,0,1296.194,1949.072Z" fill="#fff"/>
        <path id="Path_6" data-name="Path 6" d="M1285.643,1950.926a3.927,3.927,0,1,0,3.927,3.927A3.927,3.927,0,0,0,1285.643,1950.926Zm0,5.87a1.943,1.943,0,1,1,1.944-1.943A1.944,1.944,0,0,1,1285.643,1956.8Z" fill="#fff"/>
      </g>
    </g>
  </g>
</svg>
