<svg xmlns="http://www.w3.org/2000/svg" width="760.603" height="436.173" viewBox="0 0 760.603 436.173">
  <g id="Group_344" data-name="Group 344" transform="translate(-13.775 -23.76)">
    <path id="Path_398" data-name="Path 398" d="M2.275-324.87,105.092-171.907V-67.286h29.582V-171.907L237.492-324.87H201.776L119.883-199.325,37.99-324.87Z" transform="translate(11.5 493.228)" fill="#17b1a5" opacity="0.726"/>
    <path id="Path_394" data-name="Path 394" d="M32.76-324.87V-67.286H62.342V-178.04h77.925c16.234,0,28.5,2.886,37.158,9.38,9.38,6.494,14.791,17.677,16.234,32.829l3.247,34.272c1.082,14.43,4.69,25.614,10.462,34.272h32.108c-7.576-9.38-12.266-22.006-13.709-37.88L221.8-144.85c-2.886-25.975-16.6-41.488-41.127-46.9v-.722c14.791-3.608,26.336-10.823,34.994-22.367a64.178,64.178,0,0,0,11.905-38.241c0-23.81-7.937-41.848-23.089-54.114-14.791-11.905-34.994-17.677-60.608-17.677Zm29.582,25.614h77.925c19.842,0,34.633,3.968,44.013,11.905,8.658,7.576,13.348,19.481,13.348,35.355,0,15.152-4.69,26.7-13.709,34.994-10.1,8.658-24.893,13.348-43.652,13.348H62.342Z" transform="translate(534.902 448.437)" fill="#17b1a5" opacity="0.726"/>
    <path id="Path_397" data-name="Path 397" d="M142.49-331.24c-38.962,0-69.266,12.987-91.633,38.962C29.572-267.746,19.11-236,19.11-197.037c0,38.6,10.462,70.348,31.747,94.88,22.367,25.614,52.671,38.6,91.273,38.6s69.266-12.987,91.633-38.6c20.924-24.532,31.747-55.918,31.747-94.88,0-39.323-10.823-71.07-31.747-95.6C211.4-318.613,180.731-331.24,142.49-331.24Zm0,26.336c29.582,0,52.671,9.741,69.266,29.582,15.874,19.481,24.171,45.456,24.171,78.285,0,32.469-8.3,58.083-24.171,77.564-16.6,19.481-40.045,29.582-69.627,29.582S89.1-99.992,72.5-120.194q-23.81-29.222-23.81-76.842c0-32.108,7.937-57.722,23.81-77.2C89.459-294.8,112.908-304.9,142.49-304.9Z" transform="translate(179.276 355)" fill="#17b1a5" opacity="0.726"/>
    <path id="Path_396" data-name="Path 396" d="M32.76-324.87v158.735c0,33.551,8.658,59.165,25.975,77.2,17.317,17.677,42.931,26.7,76.842,26.7s59.526-9.019,77.2-27.057c16.956-17.677,25.614-43.291,25.614-76.842V-324.87H208.812v159.1c0,25.253-5.772,44.374-16.956,57.361-12.266,13.348-31.026,20.2-56.279,20.2-25.614,0-44.374-6.854-56.279-20.2C67.754-121.4,62.342-140.521,62.342-165.774v-159.1Z" transform="translate(301.724 522.168)" fill="#17b1a5" opacity="0.726"/>
  </g>
</svg>
