<svg xmlns="http://www.w3.org/2000/svg" xmlns:xlink="http://www.w3.org/1999/xlink" width="737.922" height="423.395" viewBox="0 0 737.922 423.395">
  <defs>
    <linearGradient id="linear-gradient" x1="0.5" x2="0.5" y2="1" gradientUnits="objectBoundingBox">
      <stop offset="0" stop-color="#00ffeb"/>
      <stop offset="1" stop-color="#363537"/>
    </linearGradient>
    <linearGradient id="linear-gradient-2" y1="-0.027" xlink:href="#linear-gradient"/>
    <linearGradient id="linear-gradient-3" y1="-0.035" x2="0.512" y2="1.016" xlink:href="#linear-gradient"/>
    <linearGradient id="linear-gradient-4" y1="-0.28" xlink:href="#linear-gradient"/>
  </defs>
  <g id="Group_393" data-name="Group 393" transform="translate(-61.539 -41.803)">
    <path id="Path_507" data-name="Path 507" d="M1.755-250.614,101.79-101.79V0h28.782V-101.79L230.607-250.614H195.858L116.181-128.466,36.5-250.614Z" transform="translate(59.784 433.134)" opacity="0.539" fill="url(#linear-gradient)"/>
    <path id="Path_504" data-name="Path 504" d="M25.272-250.614V0H54.054V-107.757H129.87c15.795,0,27.729,2.808,36.153,9.126,9.126,6.318,14.391,17.2,15.8,31.941l3.159,33.345C186.03-19.305,189.54-8.424,195.156,0h31.239c-7.371-9.126-11.934-21.411-13.338-36.855L209.2-75.465c-2.808-25.272-16.146-40.365-40.014-45.63v-.7c14.391-3.51,25.623-10.53,34.047-21.762a62.441,62.441,0,0,0,11.583-37.206c0-23.166-7.722-40.716-22.464-52.65-14.391-11.583-34.047-17.2-58.968-17.2Zm28.782,24.921H129.87c19.305,0,33.7,3.861,42.822,11.583,8.424,7.371,12.987,18.954,12.987,34.4,0,14.742-4.563,25.974-13.338,34.047-9.828,8.424-24.219,12.987-42.471,12.987H54.054Z" transform="translate(573.066 389.802)" opacity="0.539" fill="url(#linear-gradient-2)"/>
    <path id="Path_506" data-name="Path 506" d="M134.784-255.528c-37.908,0-67.392,12.636-89.154,37.908-20.709,23.868-30.888,54.756-30.888,92.664,0,37.557,10.179,68.445,30.888,92.313C67.392-7.722,96.876,4.914,134.433,4.914s67.392-12.636,89.154-37.557c20.358-23.868,30.888-54.4,30.888-92.313,0-38.259-10.53-69.147-30.888-93.015C201.825-243.243,171.99-255.528,134.784-255.528Zm0,25.623c28.782,0,51.246,9.477,67.392,28.782,15.444,18.954,23.517,44.226,23.517,76.167,0,31.59-8.073,56.511-23.517,75.465-16.146,18.954-38.961,28.782-67.743,28.782s-51.6-9.828-67.743-29.484Q43.524-78.624,43.524-124.956c0-31.239,7.722-56.16,23.166-75.114C83.187-220.077,106-229.9,134.784-229.9Z" transform="translate(226.452 297.331)" opacity="0.555" fill="url(#linear-gradient-3)"/>
    <path id="Path_505" data-name="Path 505" d="M25.2-249.9v154c0,32.55,8.4,57.4,25.2,74.9C67.2-3.85,92.05,4.9,124.95,4.9s57.75-8.75,74.9-26.25c16.45-17.15,24.85-42,24.85-74.55v-154H196V-95.55c0,24.5-5.6,43.05-16.45,55.65-11.9,12.95-30.1,19.6-54.6,19.6-24.85,0-43.05-6.65-54.6-19.6C59.15-52.5,53.9-71.05,53.9-95.55V-249.9Z" transform="translate(348.366 460.297)" opacity="0.598" fill="url(#linear-gradient-4)"/>
  </g>
</svg>
