<svg xmlns="http://www.w3.org/2000/svg" xmlns:xlink="http://www.w3.org/1999/xlink" width="1685.228" height="834.747" viewBox="0 0 1685.228 834.747">
  <defs>
    <linearGradient id="linear-gradient" x1="0.5" x2="0.5" y2="1" gradientUnits="objectBoundingBox">
      <stop offset="0" stop-color="#2fe0ef"/>
      <stop offset="1" stop-color="#363537"/>
    </linearGradient>
  </defs>
  <g id="Design-bg" transform="translate(-57.828 -65.638)">
    <g id="three-design-icon-bg" transform="translate(57.828 66.023)" opacity="0.397">
      <path id="Path_419" data-name="Path 419" d="M1321.632-17.32c1.2-6.731-8.276-12.045-9.932-14.88C1313.079-18.029,1324.023-15.549,1321.632-17.32Z" transform="translate(329.386 202.232)" fill="url(#linear-gradient)"/>
      <path id="Path_420" data-name="Path 420" d="M1055.378,97.914,1051.7,92.6l8.369,25.862Z" transform="translate(609.802 216.973)" fill="url(#linear-gradient)"/>
      <path id="Path_421" data-name="Path 421" d="M1356.28,84.67l.276,2.834.368,2.126a4.491,4.491,0,0,0,.276,1.417h-.092a22.772,22.772,0,0,0-1.38-4.606,68.95,68.95,0,0,0-4.322-8.857l-1.747-2.834-1.1-1.417-1.1-1.771-2.759-3.543-3.587-4.606-4.69-5.314h-.368l-.276-1.063-.276-1.063c0-.709-.092-1.063-.092-1.771a11.4,11.4,0,0,1-.092-1.771c.016-1.441.078-2.868.184-4.251a22.236,22.236,0,0,1,1.563-7.086h3.862L1328.6,20.9c.2,7.266.628,14.408,1.287,21.257.184,1.771.276,3.9.46,5.668a33.922,33.922,0,0,0,.552,3.9l.368,1.063h.184l1.747,2.126,3.495,3.543,2.759,3.189,1.38,1.417,1.011,1.417,2.023,2.48,1.747,2.126,1.563,2.126,1.287,1.771,1.2,1.771,1.012,1.771.92,1.417,1.563,2.834a47.976,47.976,0,0,1,3.4,8.148l.368,1.417c.092,0,.184.709.184.709h0c-.313-2.051-.59-4.182-.828-6.377Z" transform="translate(328.028 324.822)" fill="url(#linear-gradient)"/>
      <path id="Path_422" data-name="Path 422" d="M1343.171-25.3c1.2,24.445-3.311,21.611,3.77,7.086-.3-1.9-.549-3.917-.736-6.023-1.02.416-2.051.055-3.035-1.063Z" transform="translate(326.883 218.311)" fill="url(#linear-gradient)"/>
      <path id="Path_423" data-name="Path 423" d="M1346.449-18.093C1349.575-20.219,1344.15-38.641,1346.449-18.093Z" transform="translate(326.64 212.781)" fill="url(#linear-gradient)"/>
      <path id="Path_424" data-name="Path 424" d="M1330.6,15.608l3.954-22.32c-1.012-14.525-4.69-17.36-3.4-27.988C1327.014-22.3,1327.934-7.775,1330.6,15.608Z" transform="translate(328.05 195.972)" fill="url(#linear-gradient)"/>
      <path id="Path_425" data-name="Path 425" d="M1327,2.684l2.023-9.566C1328.563-12.9,1328.011-15.03,1327,2.684Z" transform="translate(328.156 251.25)" fill="url(#linear-gradient)"/>
      <path id="Path_426" data-name="Path 426" d="M1333.614-15.7,1329.2,4.494c.736,9.92.92,30.468,2.023-7.44C1331.039,15.831,1331.775-2.237,1333.614-15.7Z" transform="translate(327.979 240.457)" fill="url(#linear-gradient)"/>
      <path id="Path_427" data-name="Path 427" d="M1336.9-12.067c2.391,13.463,5.518,21.611,1.563,43.931C1346.28,22.3,1344.717-21.987,1336.9-12.067Z" transform="translate(327.36 245.384)" fill="url(#linear-gradient)"/>
      <path id="Path_428" data-name="Path 428" d="M1357.6,35.7c.371,5.958.959,11.683,1.747,17.005l.184,1.063h-.184l-.184-.709-.46-1.417.46,1.417.368,1.063h0a2.889,2.889,0,0,1-.092-.709,4.292,4.292,0,0,1-.184-1.063l-.276-1.417q-.527-4.683-.919-9.566C1357.784,37.471,1357.6,36.409,1357.6,35.7Z" transform="translate(325.696 360.755)" fill="url(#linear-gradient)"/>
      <path id="Path_429" data-name="Path 429" d="M1302.4-28.8c-.184,13.463,1.655,35.782,2.115,52.788L1307.457,8.4C1305.8-.812,1302.767-8.96,1302.4-28.8Z" transform="translate(330.135 209.668)" fill="url(#linear-gradient)"/>
      <path id="Path_430" data-name="Path 430" d="M1304.322-13.9,1300,9.837C1304.046,11.962,1304.782.98,1304.322-13.9Z" transform="translate(330.327 244.836)" fill="url(#linear-gradient)"/>
      <path id="Path_431" data-name="Path 431" d="M1044.471,131l7.173-49.6L1043,131.708Z" transform="translate(610.501 190.337)" fill="url(#linear-gradient)"/>
      <path id="Path_432" data-name="Path 432" d="M1000.939,76.931l2.3-31.531L999.1,93.228Z" transform="translate(614.03 106.585)" fill="url(#linear-gradient)"/>
      <path id="Path_433" data-name="Path 433" d="M1269.912,15.765c1.747-25.862-3.035-43.222-1.1-59.165-3.127,4.96-5.61,27.28-7.909,47.828C1263.383-7.264,1266.234-4.784,1269.912,15.765Z" transform="translate(333.47 175.633)" fill="url(#linear-gradient)"/>
      <path id="Path_434" data-name="Path 434" d="M1256.8-.495c1.494-9.323,2.756-19.169,3.77-29.405A233.3,233.3,0,0,0,1256.8-.495Z" transform="translate(333.8 207.424)" fill="url(#linear-gradient)"/>
      <path id="Path_435" data-name="Path 435" d="M1291.054,18.408c-.46-8.148-1.287-29.051-3.954-37.908l2.115,37.554Z" transform="translate(331.364 231.548)" fill="url(#linear-gradient)"/>
      <path id="Path_436" data-name="Path 436" d="M1289.162-6.466V-7.883A11.119,11.119,0,0,1,1285.3-9.3Z" transform="translate(331.508 255.942)" fill="url(#linear-gradient)"/>
      <path id="Path_437" data-name="Path 437" d="M1291.86-8.8h-.46C1291.584-4.9,1291.768-3.84,1291.86-8.8Z" transform="translate(331.018 257.103)" fill="url(#linear-gradient)"/>
      <path id="Path_438" data-name="Path 438" d="M1312.987,3.3c-2.483,21.257-7.909,44.993-2.207,76.524C1312.527,53.608,1309.217,35.539,1312.987,3.3Z" transform="translate(329.663 283.804)" fill="url(#linear-gradient)"/>
      <path id="Path_439" data-name="Path 439" d="M1294.8,23.825l4.966,8.148c-.184-9.92-1.2-24.445,0-35.074Z" transform="translate(330.745 269.823)" fill="url(#linear-gradient)"/>
      <path id="Path_440" data-name="Path 440" d="M1010.1,101.834l2.3-12.4L1010.56,86.6Z" transform="translate(613.146 203.195)" fill="url(#linear-gradient)"/>
      <path id="Path_441" data-name="Path 441" d="M1265.6-11.825c-1.931,16.651-4.23,18.423-6.805,21.257,2.486,6.635,5.436,10.216,8.461,10.274C1267.536,7.66,1268.548-13.6,1265.6-11.825Z" transform="translate(333.639 249.302)" fill="url(#linear-gradient)"/>
      <path id="Path_442" data-name="Path 442" d="M1277.559-9.3a9.481,9.481,0,0,0-.46,2.126C1277.007-6.111,1277.651-2.923,1277.559-9.3Z" transform="translate(332.168 255.925)" fill="url(#linear-gradient)"/>
      <path id="Path_443" data-name="Path 443" d="M1230.9-5l.552,6.731V-4.646Z" transform="translate(335.882 265.929)" fill="url(#linear-gradient)"/>
      <path id="Path_444" data-name="Path 444" d="M1268.548,9.171c2.207,7.086,3.311-2.48,4.414-14.171-1.458,4.05-3.175,6.5-4.966,7.086C1267.9,7.4,1267.9,10.943,1268.548,9.171Z" transform="translate(332.903 265.747)" fill="url(#linear-gradient)"/>
      <path id="Path_445" data-name="Path 445" d="M1249.2-14.37c1.116,7.218,2.376,14.089,3.77,20.548C1251.867-5.867,1249.476-24.29,1249.2-14.37Z" transform="translate(334.411 237.148)" fill="url(#linear-gradient)"/>
      <path id="Path_446" data-name="Path 446" d="M1276.176-7l.276-1.771C1275.716-16.924,1275.808-13.027,1276.176-7Z" transform="translate(332.264 246.278)" fill="url(#linear-gradient)"/>
      <path id="Path_447" data-name="Path 447" d="M1275.975-11.6c-1.012,5.314-1.747,14.88-2.575,23.382a68.1,68.1,0,0,0,3.4-13.108c-.343-3.338-.62-6.773-.828-10.274Z" transform="translate(332.465 250.214)" fill="url(#linear-gradient)"/>
      <path id="Path_448" data-name="Path 448" d="M1224.22,233.913c.184-35.074,5.334-68.376,10.484-31.177,4.414-26.925.368-141.712-4.23-205.836-.092,15.234.092,29.405-4.6,50.662,1.931,19.131,11.127,43.576,7.357,75.816-3.127,9.566-4.506,6.377-5.426-1.063s-.92-8.857-1.379-13.817c-.414-5.229-1-10.231-1.747-14.88,1.379,21.611-.368,37.553-2.3,56.33L1221,164.474c-.46,5.314-1.012,9.92-1.38,15.588-.38,6.3-.656,12.693-.828,19.131-.092,7.086-.092,14.171,0,22.32,1.839-7.44,3.862-14.88,5.61-22.674C1224.588,208.759,1222.564,225.056,1224.22,233.913Z" transform="translate(336.86 264.539)" fill="url(#linear-gradient)"/>
      <path id="Path_449" data-name="Path 449" d="M1240.7,34.47l1.931-4.606c-2.3-6.023-4.046-19.84-7.265-46.765a242.687,242.687,0,0,0-3.862,42.513l9.748,3.543Z" transform="translate(335.833 237.379)" fill="url(#linear-gradient)"/>
      <path id="Path_450" data-name="Path 450" d="M1252.428,12.428c-1.2,38.262-5.794,55.268-2.483,96.01,5.794-3.189,3.77-32.239,7.081-49.245-9.288,10.628,2.483-21.611-4.414-42.513,1.37-5.236,3.088-8.914,4.966-10.628A124.384,124.384,0,0,1,1252.52-10.6l.276,2.126h0v.709c.46,4.606.644,7.44.184,4.606s-.184.709-.184,1.063-.184,9.92-.368,14.171c-2.759-7.44-.46-9.566.368-14.171V-8.474l-9.2,22.32C1245.623,18.805,1248.106,17.388,1252.428,12.428Z" transform="translate(334.861 250.655)" fill="url(#linear-gradient)"/>
      <path id="Path_451" data-name="Path 451" d="M1306.229,54.557c-.2-2.893-.328-5.862-.368-8.857C1305.31,50.306,1305.126,53.848,1306.229,54.557Z" transform="translate(329.891 384.399)" fill="url(#linear-gradient)"/>
      <path id="Path_452" data-name="Path 452" d="M1301.422,107.658c.644-5.314,1.1-20.548,3.311-17.005,2.023,11.337.184,18.423.368,30.822,1.287-10.274,4.506-27.988.092-46.056l-.552,5.314c-3.954-12.4-9.2-59.519-8.644-64.833,1.174,31.092,2.988,61.775,5.426,91.758Z" transform="translate(330.652 312.217)" fill="url(#linear-gradient)"/>
      <path id="Path_453" data-name="Path 453" d="M1276.733,21.6,1269.1,41.44l4.23,32.594-.368-19.84C1277.468,61.279,1276.273,37.188,1276.733,21.6Z" transform="translate(332.811 326.94)" fill="url(#linear-gradient)"/>
      <path id="Path_454" data-name="Path 454" d="M947.311,101.588l.644-40.388L944,118.593Z" transform="translate(618.459 143.213)" fill="url(#linear-gradient)"/>
      <path id="Path_455" data-name="Path 455" d="M1220.575,13.677V-17.5c0,.354,0,.354-.092.354h-.092l-.736,1.063-.736,1.771-.46.709h-.184L1218-12.186l.46,2.126.368,3.543.644,6.731.644,6.731.276,3.189.184,1.417Z" transform="translate(336.919 236.319)" fill="url(#linear-gradient)"/>
      <path id="Path_456" data-name="Path 456" d="M820.4,64.1V74.728C820.492,71.194,820.492,67.634,820.4,64.1Z" transform="translate(21.378 427.347)" fill="url(#linear-gradient)"/>
      <path id="Path_457" data-name="Path 457" d="M826.86,74.968,826.4,56.9C826.4,67.174,826.584,74.614,826.86,74.968Z" transform="translate(24.901 410.273)" fill="url(#linear-gradient)"/>
      <path id="Path_458" data-name="Path 458" d="M1039.622,60.629,1036.5,25.555q-1.319-15.343-3.035-30.114c-1.839-15.943-3.035-20.548-2.667,2.126.552,14.88,1.011,29.759,1.471,44.639,1.434-1.36,2.951-.192,4.138,3.188a93.868,93.868,0,0,1,3.219,15.234Z" transform="translate(144.351 234.363)" fill="url(#linear-gradient)"/>
      <path id="Path_459" data-name="Path 459" d="M920.707,67.609,918.5,76.82l9.472-9.92Z" transform="translate(80.641 433.916)" fill="url(#linear-gradient)"/>
      <path id="Path_460" data-name="Path 460" d="M880.1,105.679,883.594,78.4a230.742,230.742,0,0,0-3.495,27.28Z" transform="translate(56.389 460.121)" fill="url(#linear-gradient)"/>
      <path id="Path_461" data-name="Path 461" d="M741.8,112.7l1.839,39.679C747.41,145.648,743.639,130.768,741.8,112.7Z" transform="translate(-21.942 539.542)" fill="url(#linear-gradient)"/>
      <path id="Path_462" data-name="Path 462" d="M1123.3,8.125c.368-18.068,2.115-25.508,4.046-26.925-.092,13.108.552,29.405.46,37.554S1126.7,27.256,1123.3,8.125Z" transform="translate(194.675 233.099)" fill="url(#linear-gradient)"/>
      <path id="Path_463" data-name="Path 463" d="M795.361-50.6a118.1,118.1,0,0,0-1.287,27.279C795.637-32.886,796.373-42.1,795.361-50.6Z" transform="translate(7.02 166.013)" fill="url(#linear-gradient)"/>
      <path id="Path_464" data-name="Path 464" d="M1165.724,60.927l3.587,4.96.46.709.644.709,1.287,1.417,2.483,3.189h4.046l-5.518,116.912c-.368,7.44-.644,14.525-1.012,21.611s-.552,13.463-.736,20.194q-.116,4.642-.368,9.211l-.276,8.857c-.092,2.834-.092,5.668-.184,8.5s-.092,4.96-.184,7.794c-.21,7.9-.179,15.865.092,23.737.008,1.213.071,2.411.184,3.543h0c-10.024-95.3,22.347,213.276-22.438-213.63l-.552-3.189-1.287-5.668-2.575-11.691-10.208-46.765L1130.594-.363l-.552-2.834-.276-1.417h.184c.276,0,.368,0,.276-.354l-.644-1.063a1.427,1.427,0,0,0-1.931-.354q.045-6.225.276-12.4a22.29,22.29,0,0,0,0-2.48,5.443,5.443,0,0,0-.276-2.126l-.368-.709h-.184l.368,1.771,6.713,30.822,6.713,30.822,3.4,15.234,1.655,7.794c10.759,102.387-23.542-226.384,24.278,229.927h0v-.709c0-.354-.092-1.417-.092-2.126-.169-4.337-.231-8.726-.184-13.108-.015-2.957.015-5.914.092-8.857,0-3.189.092-6.377.184-9.92l.276-10.983c.092-3.9.276-7.794.368-12.045.644-16.651,1.38-35.428,2.391-55.976l6.069-127.186h-3.862a9.361,9.361,0,0,0-3.954,1.417h-1.747l-1.379,1.771Z" transform="translate(224.635 214.005)" fill="url(#linear-gradient)"/>
      <path id="Path_465" data-name="Path 465" d="M413.539,118.96c-.269-1.54-.485-3.207-.644-4.96C412.712,119.314,413.08,119.668,413.539,118.96Z" transform="translate(-292.703 544.214)" fill="url(#linear-gradient)"/>
      <path id="Path_466" data-name="Path 466" d="M304.619,110.389c-.46-1.417-.368-4.606-.46-7.44s-.552,1.771-.46,3.189A20.092,20.092,0,0,0,304.619,110.389Z" transform="translate(-283.927 516.125)" fill="url(#linear-gradient)"/>
      <path id="Path_467" data-name="Path 467" d="M1151.1-18.958C1154.5-21.438,1151.284-23.209,1151.1-18.958Z" transform="translate(342.297 227.355)" fill="url(#linear-gradient)"/>
      <path id="Path_468" data-name="Path 468" d="M1182.191,21.9a168.829,168.829,0,0,0,.368,18.422c-.4-6.011-.525-12.246-.368-18.422Z" transform="translate(339.806 328.529)" fill="url(#linear-gradient)"/>
      <path id="Path_469" data-name="Path 469" d="M1146.684,72.7h-.184C1147.787,79.077,1147.511,78.014,1146.684,72.7Z" transform="translate(342.667 447.672)" fill="url(#linear-gradient)"/>
      <path id="Path_470" data-name="Path 470" d="M1158.494-6.346q-1.358-4.247-2.851-7.794L1152.7-19.1a47.971,47.971,0,0,0,2.115,4.96l1.655,3.188Z" transform="translate(342.168 232.873)" fill="url(#linear-gradient)"/>
      <path id="Path_471" data-name="Path 471" d="M1156.3-18.978l2.023,3.189.368.709h.46l.736.709c-.092-3.189-.276-6.023-.828-6.731a.6.6,0,0,0-1.011,0,4.328,4.328,0,0,0-1.747,2.126Z" transform="translate(341.879 227.636)" fill="url(#linear-gradient)"/>
      <path id="Path_472" data-name="Path 472" d="M1145.9-19.029c2.138-.256,4.267,1.191,6.254,4.251a21.621,21.621,0,0,1-1.472-6.023Z" transform="translate(342.715 228.999)" fill="url(#linear-gradient)"/>
      <path id="Path_473" data-name="Path 473" d="M558.955,94.406c.184-1.487.338-3.027.46-4.606-1.563,5.314-2.115,7.794-2.115,8.5S557.944,97.24,558.955,94.406Z" transform="translate(-126.66 487.489)" fill="url(#linear-gradient)"/>
      <path id="Path_474" data-name="Path 474" d="M1010.86,127.9c-.1-.9-.165-1.856-.184-2.834L1010.4,124Z" transform="translate(128.735 559.173)" fill="url(#linear-gradient)"/>
      <path id="Path_475" data-name="Path 475" d="M1011.956,269.254c-2.943-30.468-4.046-45.7-4.322-51.725s.552-3.189,1.471,1.063Q1001.795,151.1,994.3,86.8,1002.76,182.1,1011.956,269.254Z" transform="translate(127.761 464.581)" fill="url(#linear-gradient)"/>
      <path id="Path_476" data-name="Path 476" d="M1122.395,468.354l15.914,21.373c.335,58.442-11.391,49.091,6.533,82.82-11.224-52.1-3.015-62.783,5.025-73.469s15.914-20.7,4.858-72.8l10.721,16.364c-1.843.334-.67,6.679-2.68,7.347,11.224,19.7,9.046-1,6.366-26.382l-1.005-9.351-.5-5.009c-.335-1.336-.5-3.006-.837-4.341s-1.675-11.688-2.178-16.7-.5-16.03,2.01-14.026a42.67,42.67,0,0,1,5.7,14.36,108.561,108.561,0,0,1,3.015,20.371c-.02-10.62.372-21.226,1.173-31.725,1.843.668,3.518,20.7,2.01,19.7q3.133-8.047,6.7-15.362v3.34q-.047-17.064.838-34.063c.67-12.022,1.507-23.377,2.177-30.39,1.675,7.347,1.34,11.02.838,14.36a52.7,52.7,0,0,0-.67,14.026c1.508-11.354,3.183-22.709,5.193-34.063a259.392,259.392,0,0,1-.67,43.08c-1,12.356-2.513,20.037-4.02,19.035,2.01,29.054,2.68,42.078,3.183,45.417s.837-2,1.508-9.685,1.173-16.7,2.345-20.037,2.68-.668,3.518,16.7c-1.34,6.345-2.345,12.356-3.35,18.367.168,34.731,0,46.085.168,53.766a320.632,320.632,0,0,1-1.173,35.4c.335-6.011,1.173-16.364,1.843-28.72s1.34-27.05,1.843-41.744c.838-29.054,1.005-58.775,4.188-76.475.5,4.341.838,7.347,1.843,6.011s2.345-7.347,5.026-21.373c-4.188,46.753-1.173,34.063,2.177,31.725l-7.873,62.449c2.01-9.017,4.188-21.373,6.7-34.731q3.558-21.283,8.209-41.744c1.34,4.675,0,19.035-2.848,37.069s-6.533,39.74-10.386,59.443c0,6.011,3.685-12.356,7.538-34.063s7.706-46.753,11.726-47.755c-.67,14.36.5,16.364,3.853,12.69a75.368,75.368,0,0,0,6.366-9.017c2.68-3.673,5.863-8.349,9.381-12.69a88.626,88.626,0,0,1-7.2,25.046,126.325,126.325,0,0,0-7.371,20.037c4.858-11.354,10.051-22.375,15.411-32.727.168,2.338-4.355,13.024-6.533,18.7,3.518-5.009,8.041-16.03,12.564-26.716s9.046-20.371,13.4-21.039c10.553-22.709,5.193,1.67-.335,23.377-2.848,11.02-5.7,21.373-6.031,26.716s1.843,6.011,9.213-1.336a68.771,68.771,0,0,1-9.548,16.03,173.272,173.272,0,0,0-11.726,17.365,113.58,113.58,0,0,1,11.894-7.347l7.873-3.34,9.046-4.675a170.015,170.015,0,0,1,16.584-7.681l-2.848,8.015-2.513,9.351-4.858,19.035c13.569-34.731,40.036-36.4,61.981-37.736,7.036-14.694,13.234-27.05,15.914-34.063l20.1,13.358c-3.015,7.347-11.726,13.692-22.782,20.037l6.868-1.336c-5.863,19.369-20.772,29.388-35.848,36.4,3.685-8.349,7.706-17.365,11.726-25.714-16.249,8.349-33.838,18.7-47.24,35.065,3.026-1.066,6.145-.128,8.878,2.672-4.355,2.338-8.208,4.675-10.386,8.349s3.853,1,11.224-.668l-24.289,35.065,10.721-9.685-2.513,29.054c-.838,9.685-1.34,20.037-2.01,30.056a170.3,170.3,0,0,0,27.64-3.674l28.31-6.011,13.569-2a54.8,54.8,0,0,1,12.731-.334c7.423.418,14.768,3.122,21.777,8.015-8.9,8.593-17.1,19.855-24.29,33.4-7.036,13.024-13.569,28.386-23.452,44.75a92.909,92.909,0,0,0,3.015-15.362,25.755,25.755,0,0,0-.838-10.019c-1.675-5.009-5.193-7.347-9.213-9.017a53.943,53.943,0,0,1-13.066-6.011c-4.021-3.006-7.2-7.347-8.041-15.028,1.675,15.7-9.381,27.05-14.071,28.386l8.879,4.007,9.213,4.007,8.878,3.673,4.69,2,4.858,2c-16.919,25.38-8.543,30.39-7.036,58.775a103.433,103.433,0,0,1,8.878-19.7,23.486,23.486,0,0,1,8.376-8.683c5.193-3.006,10.051-.668,15.411,4.007s11.224,11.354,17.757,16.364,13.569,7.681,19.6,4.675c-1.675,13.692-4.691,26.716-11.224,32.393-3.786,3.009-7.961,3.478-11.894,1.336-5.575-3.074-10.692-8.8-14.909-16.7a70.639,70.639,0,0,0,2.01,13.692,38.413,38.413,0,0,0,3.35,9.685c2.488,4.747,5.771,7.484,9.213,7.681,3.746.179,7.465-1.3,10.889-4.341l5.528-5.343,2.68-3.34.5-.668h1.005l3.183,1.336a32.394,32.394,0,0,0,12.564,1.336h3.183l2.68-.668,5.528-1.67,5.193-3.005,2.68-1.67h1.005l1.005-1a49.925,49.925,0,0,0,7.2-7.347l3.518-4.341,2.178-3.674,4.02-7.347,1.843-4.008,1.173-3.005,2.177-6.345.838-3.006.335-1h0v-1c.167-2.338.5-4.675.67-7.013l-1.005-3.673a52.1,52.1,0,0,1-1.508-6.011c-1.507-7.013-.5-10.353,4.858-4.007-.5,3.673-2.513,2.338,2.01,14.026-3.183-12.69-2.01-20.371.67-21.707s6.868,5.009,10.386,17.032l-.335,3.34c3.518-5.343,5.863-18.367,5.193-41.41-.483-14.221-1.661-28.313-3.518-42.078-2.392-19.634-5.585-38.844-9.549-57.44,1.173,5.343,6.7,30.39,12.564,56.1l13.569,60.779c-9.884-49.091-19.264-102.189-27.64-158.627-2.178-14.026-4.188-28.386-6.2-42.746l-3.015-22.041c-.838-6.345-1.508-12.356-2.178-18.367-2.68-24.044-4.858-48.089-6.533-70.8,2.178,15.7,5.863,35.065,10.051,56.438l3.183,16.7c1.508,7.347,3.015,15.028,4.355,22.709,3.015,15.362,5.863,31.057,8.711,46.419,11.558,62.115,21.275,122.56,24.122,150.278,1.34,3.673,3.015,8.015,3.853,6.679s.67-2.338.838-6.011.167-4.341.167-6.679c.149-3.107.205-6.23.167-9.351-1.876-7.456-3.5-15.154-4.858-23.043-2.345-11.688-5.193-26.048-7.706-40.074s-5.193-28.052-7.036-39.406-2.848-19.7-2.513-22.041c7.706,29.054,11.224,44.082,13.736,54.434s4.188,14.36,6.868,23.043,1.843,9.685,3.518,17.365,3.853,17.7,6.365,31.057c-2.01-9.017-6.365-45.417-9.381-78.479q-2.034-21.53-2.848-43.414c-.335-11.02.335-17.7,1.675-15.7.5,9.351,3.853,40.408,6.868,70.8s6.031,60.111,6.031,66.456c-1.606-37.986-1.886-76.148-.838-114.211-.67,9.351,1.172,35.065,3.685,62.783s5.36,57.106,7.2,74.805c-1.173-12.356.335-10.018,2.178-5.677s4.02,10.019,4.69,5.677c-1.172-10.018-2.345-20.371-3.853-30.723,2.345,7.347,3.518,1.67,4.691-10.353s2.01-29.722,3.35-47.755,2.848-35.4,5.026-47.087,5.025-16.364,8.543-9.685c-1.34,9.351-3.35,40.742-4.188,72.8s-1.173,64.119.5,73.469c2.01-24.378,7.538-83.154,17.422-134.248.67-3.006,1.172-6.345,1.843-9.685s1.34-6.345,2.01-10.019,2.848-13.024,4.355-19.035q4.243-17.44,9.548-33.729c6.868-19.7,14.071-32.727,20.437-35.733l-.5,31.725,2.345-1.67,2.01-1.67,4.188-3.006q.939-3.406,1.675-7.013a20.764,20.764,0,0,1,.67-3.673v-1h.167l-.335,1.67h.168l-.5,3.673c-.2,2.373-.48,4.716-.838,7.013-.838,5.009-1.675,10.019-2.68,15.362q-1.46,8.187-3.351,16.03a40.35,40.35,0,0,1-1,4.342l-1.173,3.673c-.988,2.424-1.884,4.991-2.68,7.681l-11.559,33.061-5.7,17.7c-1.842,5.677-3.685,11.354-5.36,17.366-3.518,11.354-6.7,23.043-9.716,34.4s-5.528,22.375-7.873,32.727c-4.691,21.039-8.041,40.074-10.386,53.766.318,9.233.262,18.5-.167,27.718,0,5.677.167,8.349,2.01,9.351a188.4,188.4,0,0,1-3.518,28.72c-1.34,6.345-2.345,9.017-2.848,9.351,1.508,8.349,2.513,16.03,3.518,22.709,1.5-10.623,3.408-21,5.7-31.058a62.388,62.388,0,0,1,4.188-9.351l2.178-4.007.5-.668h1.172l2.513-1a56.059,56.059,0,0,0,9.548-4.675,35.83,35.83,0,0,0,8.543-6.679c4.93-4.782,8.192-14.473,8.543-25.38l-8.376,4.341-4.188,2-4.02,1.336-8.376,2.672h-.838l-.5.668-.838,1.336-2.01,2.338-1.843,2.338-.5.668-.335.668-.67,1.336-2.345,6.011a120.292,120.292,0,0,0-4.188,11.688q2.836-23.6,7.036-46.419A411.483,411.483,0,0,1,1564.8,601.6c.616-1.59,1.176-3.264,1.675-5.009l.837-2.338,1.005-2,3.853-8.349,2.01-3.34,1.005-1.67,1.508-1.67,5.36-4.675,2.68-2,2.513-1.67,5.025-2,5.026-.668a15.038,15.038,0,0,1,5.025,1.336c3.183,11.354,2.345,36.067-1.173,60.779-1.675,12.022-3.853,24.044-5.7,34.063s-3.518,18.033-3.518,22.709a35.172,35.172,0,0,1,4.02-6.679,48.747,48.747,0,0,1,5.863-6.011l7.2-5.677,7.538-5.677,7.371-4.675a33.546,33.546,0,0,1,6.366-3.34,11.345,11.345,0,0,1,5.026-1.336h.837l.5.668,1.005,1.67-.838,4.341a30.47,30.47,0,0,1-1.843,4.675,78.414,78.414,0,0,1-4.02,9.35,155.118,155.118,0,0,1-8.879,18.367,10.987,10.987,0,0,0,10.219-.334,17.5,17.5,0,0,0,4.355-3.673l2.178-2.338,1.005-1.336.5-1.336a112.648,112.648,0,0,0,3.351-11.688c1-4.341,1.675-8.683,2.512-13.024s3.35-16.03,5.863-19.035,6.2-.668,11.558,9.685c4.858.334,25.127,58.775,20.1,27.05-18.092-55.1-52.265-241.113-56.62-288.868.838,1.336,8.208,12.356,16.752,26.048s18.092,30.056,22.95,43.08c7.706,21.039,10.721,50.761,13.569,79.814s5.026,57.44,11.559,75.473c-2.513-14.694-2.345-34.731-2.01-41.744,6.366,9.351,6.868,45.751,14.239,32.727-8.711-54.434,18.092-8.683-4.523-48.089,5.36-21.373,10.888,4.007,19.934-5.343-4.691-16.03-8.041-46.753-9.381-76.475s-.67-58.107,2.513-68.794c1.842,14.026,6.868,30.723,9.046,38.07,9.214-3.339,17.087,0,24.122,3.673l9.716,6.011,1.005.668.838,1h1.005l.5.668.5.668h0v-4.676l.335-2.672v-1.336h.167c.167-1.336-1.172,13.358-.67,7.013h.168l1.005.668,2.513.668a23.968,23.968,0,0,0,1.675,5.677l.67,1.67,1.173,1.336,1.34,1.336a4.4,4.4,0,0,0,2.178,1h4.858l1.675-.668,1.34-1,1.508-1h.67v.668l.335.668a40.634,40.634,0,0,1,.838,4.007,175.328,175.328,0,0,0,6.7,26.716c-3.853-11.02-10.051-30.389-14.239-35.733a95.817,95.817,0,0,0,4.355,19.369,35.285,35.285,0,0,0,4.188,8.683,80.5,80.5,0,0,1,4.691,11.02,235.978,235.978,0,0,1,6.533,25.38,274.556,274.556,0,0,0-14.741-40.408c-5.361-12.022-11.391-23.711-17.422-36.4-7.2-24.044-4.188-23.043,1.508-12.69a433.431,433.431,0,0,1,19.1,41.41c-4.355-15.7-9.214-32.727-14.742-50.093-1.508-4.007-2.848-8.349-4.355-13.024s-1.508-4.007-2.178-6.345l-2.848-8.349c-3.853-11.354-7.706-22.375-11.726-33.061-16.082-42.746-33.5-78.812-47.24-97.18-4.691-5.009-6.03-4.007-6.03-.668s2.01,9.351,4.188,15.7c4.188,12.356,10.219,26.382,7.371,21.039-4.523,1.336-10.386-5.677-16.249-14.36q-4.523-6.679-9.046-14.026l-4.188-7.347a4.124,4.124,0,0,1-1-1.67l-.5-2.338-1.005-4.341c-2.68-11.688-4.523-24.712-3.183-32.727s5.863-11.688,16.752-3.006a147.294,147.294,0,0,1,14.909,30.056c3.673,9.97,6.976,20.462,9.883,31.391,5.528,20.371,9.716,39.072,15.747,54.768-3.35,9.017-10.051,2.338-16.919-5.009l-9.884-11.02a28.073,28.073,0,0,1-3.685-4.341l-1.508-1h.335v1h-.167c.167,0,0,0,.167.334h.167l1.843,2.672,3.685,5.009a70.178,70.178,0,0,0,8.041,9.017,46.217,46.217,0,0,1-.167,8.683c-.335,2.338-.838,3.34-1.676,3.673h-.5s-.168,0,0,.334l1.172,1.336,1.843,1.67c1.005.668,1.675,0,1.508-2,.838,3.673.838,6.011.168,7.013a2.543,2.543,0,0,1-.838,1.67l4.355,5.677a17.815,17.815,0,0,0,9.046,5.343l9.548,1.336a76.033,76.033,0,0,1,20.6,2.672c7.551,1.922,14.745,7.544,20.94,16.364,0-8.349.5-17.032.5-25.714-.171-4.5-.507-8.96-1.005-13.358a74.525,74.525,0,0,0-3.35-13.024l-5.361,7.013c-7.2-17.7-6.868-30.723-5.7-41.076s2.848-18.033-4.02-26.048c1.508-6.679,2.848-14.026,4.691-20.7s1.843-6.011,2.848-9.351a78.393,78.393,0,0,1,3.518-9.017c2.476-6.321,6.118-10.407,10.113-11.348s8.014,1.341,11.161,6.338l4.858,25.714,4.02,26.716a67.963,67.963,0,0,0-2.68-12.022,28.464,28.464,0,0,0-4.691-9.017c-3.35-4.341-6.868-4.341-7.873,3.339.67-5.677,3.183-4.007,6.366.668l5.026,8.683,2.513,5.677,2.178,6.011c5.7,16.7,10.888,27.05,11.223-6.679l-6.533-21.039-3.35-10.686-3.183-10.353c3.183-10.352,7.538-29.388,14.071-43.748s15.244-22.375,24.29-11.02c-4.691-28.052-5.863-26.716-7.371-26.716s-3.685-1.67-11.893-34.4c3.853,20.037,2.68,29.388-.5,33.4s-8.543,2.672-13.4,1.67l-6.533-1c-1.56-.009-3.061,1.188-4.188,3.339-1.34,4.341-.5,14.36,4.691,35.733q-2.547-11.807-5.7-23.043c-.838-3.34-1.675-6.011-2.345-8.349l-2.178-6.679a82.787,82.787,0,0,0-4.021-9.017,32.7,32.7,0,0,0-4.69-5.677,86.138,86.138,0,0,1-10.721-11.02,152.436,152.436,0,0,1-15.579-27.384c3.183,16.7,10.888,31.391-5.193,24.712.024,2.565-.032,5.13-.167,7.681q-.236,3.376-.67,6.679l-1.173-1.67,1.173,2.338c-.167,2-.167,2.672.5.668l1.843,3.34,1.675,2.672c1.005,2,2.178,4.007,3.015,6.011a87.14,87.14,0,0,1,5.025,13.024,73.524,73.524,0,0,1-1,13.024,33.492,33.492,0,0,1-2.68,9.351l-1.675,3.34-1.005,1.336-1.005,1.67a48.947,48.947,0,0,1-4.02,5.677c-5.528,7.013-11.391,12.022-12.4,22.375-4.858-3.673-5.193-8.683-5.36-14.694s-.335-13.692-4.523-22.709c-1.34,10.352-2.345,20.7-3.183,31.057a145.876,145.876,0,0,0-10.219-25.38c-3.853-7.681-7.873-14.694-11.223-21.039s-5.863-12.69-6.7-18.7a28.306,28.306,0,0,1,3.518-18.7,86.076,86.076,0,0,0-18.594,2.672c-8.208-8.349-16.584-12.356-22.615-10.686s-9.716,9.351-9.884,21.373c-.92.279-1.723,1.388-2.178,3.005a41.359,41.359,0,0,0-.67,7.013,87.42,87.42,0,0,0,2.01,16.364c.335,2.672.838,4.675,1.005,6.345a2.9,2.9,0,0,1,.167,1h.67l-.67-1.336c-.167,0-.167-.334-.335-.668h-.335c0-.334-.168-.668-.168-1l-1.172-5.009v2.338h.167l.67-.668,1.508-1.336,3.518-1.67a18.423,18.423,0,0,1,8.543,0l-3.183-9.351c2.178-6.011,6.533-6.679,12.061-4.675s12.061,7.347,18.259,11.354,12.4,7.347,16.752,5.009a7.44,7.44,0,0,0,3.016-3.34,10.214,10.214,0,0,0,1.34-5.677,4.848,4.848,0,0,0-1.172-2.338h-.5c.167,0-.167-.668.167.334l2.513,5.677,10.051,24.044,10.051,23.711,5.025,11.688c-31.325-156.623,45.564,221.076,37.356,181.669h0c0-.334-.168-.334-.168-.668a33.7,33.7,0,0,1-.335-4.675c-.237-4.548-.293-9.126-.167-13.692a32.279,32.279,0,0,1,.167-4.007v-5.009l.335-9.351.67-10.686.67-11.354,1.005-12.022,1.005-13.024,1.172-13.692.67-6.679,8.879-98.182-.67-.668-6.031-5.009h-10.386l-2.68.668a46.4,46.4,0,0,0-9.884,4.007l-4.02,2-2.01,1.336h-1.005l-.838.668-6.533,5.677c-8.208,5.009-15.411,8.683-23.62,7.347-2.345-9.685-4.858-19.7-7.2-29.722-10.386,17.365-35.178-11.688-33.168,22.709-11.894-37.736-23.285-34.4-32.331-23.043s-16.751,31.391-24.122,28.72l7.2,40.074c-4.464,2.238-8.419,7.416-11.223,14.694A230.947,230.947,0,0,0,1604,308.391l6.7,34.731a29.655,29.655,0,0,1-1.843,9.35c-.77,1.975-1.93,3.192-3.183,3.34a3.9,3.9,0,0,1-3.853-1.336,5.755,5.755,0,0,1-2.01-2l-1.842-2.672-1.005-1.336h0l7.873,61.781h.167a8.308,8.308,0,0,1,.167,2v1h0v-3.673c0-1.67.167-3.34.167-5.009.226-1.87.394-3.766.5-5.677a3.645,3.645,0,0,1-.167,1.336v1.67c-.167,1-.167,2-.335,3.34a27.011,27.011,0,0,0-.167,3.673v.668a14.318,14.318,0,0,1,.167-2.672,18.3,18.3,0,0,1,.168-3.006v-2h0v-.668q.915-10.131,2.345-20.037l1.005-6.011.335-1.67v-.668h.167c23.117-137.254,6.366-38.07,11.559-68.794h-.168l-.838-1.336a13.024,13.024,0,0,0-3.853-3.673h-1.34l-1.508-.668h-3.183L1604,297.7c-8.208,0-15.914,2-22.447-2s-12.061-13.358-16.584-37.069c-6.533,9.017-9.884-.334-13.4-15.028.465.522,1.053.229,1.34-.668l-2.178-3.006c-2.178-9.351-4.523-20.7-7.2-29.722a268.255,268.255,0,0,0,6.031,28.72,12.6,12.6,0,0,0-7.706-2.672,22.03,22.03,0,0,0-4.523,1,17.791,17.791,0,0,0-4.523,3.005c-.838-15.7-1.675-31.391-2.68-47.421h-1.34c-3.183-10.686-4.523-6.011-4.355,5.343.366,16.274,1.375,32.465,3.015,48.423a66.39,66.39,0,0,0-7.036,20.7c-1.508-18.7-3.183-27.384-5.026-31.057s-3.518-2-5.528-.668-7.371,4.675-12.731-34.063c-1,17.032-7.873,20.371-14.239,29.054s-11.894,24.044-9.381,59.109c-1.172-9.351-3.35-14.026-.335-14.026l-3.518-4.341-3.518-3.339-3.35-1.67a4.775,4.775,0,0,0-3.015.334,11.251,11.251,0,0,0-2.848,4.007,59.717,59.717,0,0,0-2.178,9.017c-3.35-16.364-6.7-32.727-10.218-48.757-.335,6.345-.838,12.356-1.173,18.367l-.5,9.017v3.34c.168.334,0-.668.168.668h0v.668a40.318,40.318,0,0,0-.168,4.675c-.386,13.467-.274,26.973.335,40.408-5.36-9.685-9.381-17.7-12.4-29.722a168.991,168.991,0,0,1-3.685-21.039,301.989,301.989,0,0,1-1.843-30.389c-.5,10.019-.837,18.7-1.172,25.714s-.5,13.024-.838,17.7c-.5,9.685-1.005,15.028-1.508,20.371-.524,6.741-.8,13.549-.838,20.371.265,14.77.992,29.493,2.178,44.082l-7.706-34.731c-1.508,5.343-.838,23.043-.5,37.069s-.167,24.044-4.858,13.358-12.061-8.683-17.589,1.336-11.056,27.718-16.417,49.425c-2.68,10.686-5.36,22.375-8.376,34.063l-2.513,8.683c-.335,1.67-.838,3.006-1.173,4.341l-.335,1v.668h0l.67.668,3.015,2,1.34,1.336h1.005l42.214,92.839h.167l1.005,2,.67,2.338a17.587,17.587,0,0,1,1.005,3.339,3.648,3.648,0,0,1,.167,1.336c.093,0,.167.149.167.334s-.075.334-.167.334h.167l10.721-68.46.335-1.336.335-2,.5-2.338.67-3.006.5-1.336.5-2,1.005-3.673q3.034-9.785,6.7-18.7,5.2-12.93,11.056-24.712l3.686-7.681,1.675-3.34,1.843-4.007c-8.878,16.7-12.4,23.377-13.234,24.044s-.167-1,.5-2.672,1.508-5.009,2.513-7.681,4.355-12.356,4.02-15.028-1.005-1.67-2.68-.334a49.707,49.707,0,0,0-8.208,10.019c8.543-16.03,12.061-28.386,22.28-34.4-7.706-2-6.533-14.694-6.868-23.043s-.838-8.015-3.518-9.017-7.2,0-15.076,4.007c9.213-14.36,15.914-12.69,21.107-22.041-2.68,1-10.721,3.673-5.36-5.677s9.213-6.679,14.574-8.683c-2.01-4.675-5.528-6.011-10.051-5.343a41.871,41.871,0,0,0-16.584,8.349c-12.563,9.351-27.975,25.046-42.716,40.408,5.025-14.36,6.7-22.709,4.188-25.714s-8.711-1.67-19.767,3.673c8.376-15.028,16.416-33.729,24.29-20.7-.335-2.672-.5-8.683-1-15.362s-.67-7.347-1.173-11.02a50.834,50.834,0,0,0-.838-5.677l-.5-3.006-.838-3.673c-2.513-10.353-5.528-19.035-9.549-23.711s-8.543-4.675-14.239,2.672c4.523-11.688-3.518-20.7-6.868-20.371-6.868-30.39-5.863-36.735-16.417-60.445l-.67,13.692c-13.569,17.7-16.249,15.7-17.087,6.679s-.335-10.686-.838-16.7a68.96,68.96,0,0,0-1.005-8.683,18.445,18.445,0,0,0-2.68-6.345l2.345-4.675c-.335-20.7-1.675-32.059-3.183-37.069-.977-3.684-2.938-5.9-5.025-5.677-2.1.143-3.979-2.626-4.523-6.679-1.34-5.677-2.513-16.7-4.021-39.072-3.183,13.024-6.2,25.714-9.381,38.4-11.893,36.4-11.726,17.032-12.564-10.352-.5-14.026-1.173-29.722-3.35-41.076s-5.361-18.367-10.386-14.36c.335,9.017.5,18.033.67,27.384-3.183,4.341-4.523-1.336-5.193-13.024s-.838-29.388-1.173-47.755-1.005-38.07-2.178-53.766-2.848-28.052-5.193-31.391,5.193-10.686,9.214-14.36c-5.361-15.362-8.878-19.369-11.224-17.365s-3.518,10.686-4.69,21.039c-1.037,11.255-2.55,22.315-4.523,33.061-2.178,10.019-5.36,18.367-10.219,21.373-.335-14.026,2.513-32.059,3.853-47.087s1.34-27.718-5.361-30.39c-1.34-5.677-5.025-2.672-9.883,4.675A351,351,0,0,0,1217.544-44.6c-6.2,12.022-12.061,23.043-17.757,29.054s-10.889,5.677-15.914-5.677a172.274,172.274,0,0,1,4.858,30.723c.555,11.7-1.12,23.38-4.69,32.727-3.183,4.007-7.036,2.672-11.559-1a121.916,121.916,0,0,0-14.406-11.688c-4.858-3.005-10.051-4.007-14.071,1s-7.2,15.028-8.041,34.4a45.641,45.641,0,0,1-4.523-14.694c-4.021,13.358-11.224,27.384-17.087,43.414a156.939,156.939,0,0,0-7.036,24.712,121.046,121.046,0,0,0-1.675,13.358,93.623,93.623,0,0,0,.5,13.692c-17.589-60.111-24.96-35.065-30.99-9.351s-11.223,52.764-24.457-5.009l-19.6,25.38-2.178-12.356c-15.244,4.675-13.569,36.735-11.894,68.794-5.025-5.009-5.193-17.7-6.365-24.045-24.96-5.343-25.8,1.336-28.98,74.137L971.3,226.907c.5,25.714-42.046-33.061-51.092,28.386a84.116,84.116,0,0,1-1.843-18.7c-11.559,64.119-75.885-56.772-52.265,87.5l-6.533,46.753c20.94-6.345,10.889,62.115,23.787,77.811-5.361,14.694-28.31-24.044-20.939-39.406l2.848,5.677c-13.066-74.471-28.813-4.341-39.534-53.432a101.811,101.811,0,0,1-27.975,20.7l-3.35,1.336h-.838l.67,2.672,3.853,18.7,2.848,15.028,1.34,6.345,1.005,6.011q.988,4.734,1.675,9.685l.335,2.338.335,2,.67,4.007c.838,5.677,1.34,9.017,1.843,13.358a46.57,46.57,0,0,1,.67,5.343l.5,4.341q.422,6.649.5,13.358a23.307,23.307,0,0,1-.335,5.009c0,1.336.167-.334.5-2q1.47-4.192,3.183-8.015l.5-1.336.335-.668.5-1,1.508-3.005,2.178-4.007,2.345-4.007,1.34-2.338,35.848-57.44.335-1,1.843-3.339h0V401.23l-.335-3.006-3.015-23.377c-1.843-16.03-3.685-31.725-5.863-46.753-4.188-30.39-9.213-58.108-15.747-80.482-5.7,21.707-11.559,43.748-17.757,65.12-2.01-10.686-4.355-21.039-6.533-31.391a154.8,154.8,0,0,1,7.2-32.059c3.35-8.015,7.2-11.02,10.051.334,3.853-21.373-1.508-23.377-7.873-17.7S806.293,250.284,804.45,256.3c-1.34-14.694-.67-25.38,1.34-33.4,1.885-7.2,4.8-13.131,8.376-17.032,6.533-7.681,14.239-8.683,12.061-15.028l-7.538-10.686-.5,10.019c-5.863,6.011-10.553,15.028-14.741,19.7s-7.706,5.009-11.726-6.011a96.117,96.117,0,0,1,1.173-30.056c1.508-8.349,3.183-14.36,2.01-17.7s.5-7.347-3.853-8.015A92.387,92.387,0,0,0,782,134.4a26.235,26.235,0,0,0-10.218-8.015c-.167,15.362,0,31.725-.167,48.757a30.291,30.291,0,0,1-8.376,7.013,16.922,16.922,0,0,0-4.858,5.009,25.291,25.291,0,0,0-3.015,9.351c-.545,3.26-.938,6.614-1.173,10.019q-.5,6.011-1.005,15.028a123.052,123.052,0,0,0-.335-20.371c-.67-4.675-1.508-7.013-2.345-7.681s-1.843.668-2.848,2.672l-1.508,4.341a8.3,8.3,0,0,1-3.685,3.673,105.737,105.737,0,0,1-12.9,4.341L716,212.214c-8.543,1.67-14.909,1.67-17.087-5.343-9.046,24.044-16.584,37.4-24.122,45.751l-2.848,2.672c-.335,0-.5,1-.67,1.67l-.67,2-1.508,4.007-2.848,7.347-1.34,4.007h-6.533l-4.188-1c3.015,9.685,5.863,63.785-4.69,57.774,1.34-56.1-3.35-67.792-9.381-76.141S626.381,242.6,622.7,202.2c3.35,26.716-3.685,30.056-10.553,35.733s-13.4,14.36-7.873,52.43c-8.711-9.351,0-41.744-6.2-68.46-10.721,21.039-22.112,13.358-34.006,1.67s-24.792-27.05-38.193-21.039c-.838,14.694,3.183,37.4-3.015,58.775l-12.564-74.471c-5.7,6.679-6.7,84.156-15.579,32.727,1.173,12.356,2.848,31.057-.838,35.4-13.066-18.7-26.635-24.712-42.214-24.378a57.883,57.883,0,0,0-12.564,1.67,115.274,115.274,0,0,0-15.411,4.675l-2.513,1-2.68,1.336-3.183,1.67-3.35,1.67-2.178,1.336-2.345,1.336-2.345,1.67c-.5.334-.335.334-.5.668,0,0,.377-.751-.5,0s-3.015,3.006-3.015,3.006l-6.366,5.677-6.7,7.013-3.35,3.34-3.685,4.007L377.285,275l-1.843,2.338-1.843,2.338-8.376,10.352c-3.015,4.007-6.366,8.683-9.381,13.358l-.5.668-.67,1-1.34,2.338-2.68,4.675q-2.636,4.4-5.026,9.351a100.144,100.144,0,0,0-5.528,12.022l-2.68,6.011-2.848,7.347-5.025,15.7q-2.509,8.417-4.523,17.365Q323,388.835,321.5,398.224c-1.1,5.994-2,12.131-2.68,18.367-.67,5.677-1.34,11.688-1.843,17.7l-1.005,15.7c-.335,5.677-.5,9.685-.67,14.026l-.5,12.69-.5,11.02V492.4l-.335,4.341-.335,4.675c-.168,1.336-.168,2.338-.335,3.34l-1.005,7.013a41.642,41.642,0,0,1-1.34,5.343l-.67,2.672-.837,1.67-1.843,3.339a4.455,4.455,0,0,1-2.345,1.67l-1.173.668-1.173,1.336-2.513,3.006a45.529,45.529,0,0,1-5.7,5.677c7.036-4.341,10.889-6.345,13.066-6.011a3.45,3.45,0,0,1,2.345,2,23.651,23.651,0,0,1,.67,3.34c1.675-2,6.2-3.006,11.559-3.34a88.4,88.4,0,0,0,16.417-2.338c-9.544,11.779-19.94,20.565-30.823,26.048,12.9,2.672,11.056,8.683,9.046,13.358s-2.178,4.675-1.675,7.013,2.513,4.341,7.706,7.013c-.085-2.469-.253-4.923-.5-7.347a49.271,49.271,0,0,0,20.437,8.015,98.972,98.972,0,0,0,26.635,1h7.706l8.543-.668,16.919-2a96.237,96.237,0,0,1,32.5.334c-7.873-7.347-7.371-13.358-3.518-20.7s11.391-16.03,17.757-26.716,11.726-22.709,11.894-34.731c.08-6.622-1.41-12.933-4.02-17.032-4.239-7.029-9.222-12.052-14.574-14.694,3.518-6.345,6.868-5.677,10.553-4.341a32.267,32.267,0,0,0,5.528,2.338c2.177.417,4.361-.642,6.2-3.006-9.213-3.674-14.909-7.681-17.757-12.69a24.993,24.993,0,0,1-1.34-3.673,8.213,8.213,0,0,1-.335-2v-1.67l.5-1.336a1.524,1.524,0,0,1,.168-.668l.5-.668h1.005l-5.361,1.336-3.685.668-1.675.668H439.6l4.355-1-5.025,1h-3.685l-5.193,1.336-5.193.668h-4.02a17.235,17.235,0,0,1-5.863,0h-5.528l-1.173-.668h.67a3.534,3.534,0,0,1,1.508,1.67l.67,1h.5l.67,1,2.345,3.673,1.005,2,.5,1.336.838,1.336a92.5,92.5,0,0,1,5.7,13.024,185.254,185.254,0,0,1,6.868,18.033l1.508,4.675.67,2.672,1.173,3.006,3.853,12.356c1.34,4.341,2.513,8.683,3.685,13.024l.837,3.34.5,1.67h0l.335,1,1.508,3.339.838,2,1.173,1.336,2.345,3.339,1.508,1.336,1.508,1.336,1.675,1.336.67.668h.335c-43.722-267.829-12.061-74.137-21.777-133.58l.335,2c.5,2.672.837,5.343,1.34,8.015l1.005,8.015.335,4.341.67,5.009c.838,6.679,1.675,13.692,2.178,20.371l.5,5.343v3.006l.335,3.006c.5,4.007.838,8.349,1.173,12.356s1.34,17.031,1.843,25.714c-.838-13.692-1.843-27.05-3.183-40.742q2.01,22.041,3.015,40.074l.837,10.019h.168v1.67a18.2,18.2,0,0,0,.335,3.006c.168,1.336.5,2.338.67,3.673l.5,3.673.5,4.007q.7,3.6,1.173,7.347c.67-15.028.5-22.709-.5-26.716-.5-2.6-1.642-4.5-3.015-5.009-.335-.334-.335-.334-.335-.668v-.668h-.167v-2.672c-.67-9.685-1.34-18.367-2.01-26.382s-.838-8.015-1.173-11.354-.167-3.34-.335-4.675-.167-2.672-.335-4.007c-.37-5.771-.986-11.469-1.843-17.031.818,5.7,1.434,11.5,1.843,17.365l.5,6.679c.376,2.741.656,5.531.838,8.349.335,2.672.5,6.011.838,9.017l.335,3.673c.167,2,.167,4.007.335,5.343l.67,4.675a56.3,56.3,0,0,0,1.508,7.013,20.569,20.569,0,0,0,2.01,4.675c2.848,5.009,7.371,5.343,12.061,6.011,9.548,1.67,19.934,5.343,21.945,51.095,9.548,1-2.01-45.751,7.538-44.75l2.01,25.046,3.183-31.725c6.2,5.677,8.878,36.735,8.711,57.774-1.508-2.672-4.523,5.677-6.2,7.347,3.853,14.694,9.716,12.69,15.076,8.349s10.051-11.688,11.391-6.679l-9.213-16.03c13.736-10.353,29.148-6.679,44.559-6.345s31.325-3.339,45.564-27.718l-1.843-18.7c10.721-16.7,14.909-11.688,19.432-4.007s9.213,17.7,21.442,9.351l-1.005,4.675c4.858-18.7,11.224-28.386,17.924-26.382-3.015,11.02,0,21.373,3.015,32.059s5.7,21.707,1.675,34.063l2.178-3.34,1.005-1.67.67-1v-.668c.67-2,1.005-4.007,1.508-5.677l2.178-9.351a147.911,147.911,0,0,0,2.345-16.364c.67-5.677,1.005-12.356,2.178-22.375,1.483-13.8,3.557-27.317,6.2-40.408.335,10.352.5,20.371.67,30.724q2.7-17.537,6.366-34.4c2.142-8.837,5.515-16.257,9.716-21.373-5.025,15.362-4.523,26.716-4.858,39.406-.087,6.846-.48,13.663-1.173,20.371a232.611,232.611,0,0,1-4.523,25.714c1.34,16.03,3.015,19.035,5.193,15.362s5.026-14.694,6.7-25.714q1.705-10.741,4.02-21.039c.335-.334-.67,8.683-4.858,36.4,5.025-27.718,7.873-44.75,9.046-54.1s1.173-11.02.67-10.019-3.518,15.362-1.173,1.336,5.026-33.061,8.376-51.428,6.7-34.731,7.706-34.4-1.843,25.714-5.026,58.108c-1.508,16.364-3.015,33.729-4.188,48.423s-1.508,25.046-.168,28.386c-.335-2-2.178,5.677-2.513,3.673-2.01,16.03.67,9.685,3.183,6.345s4.523-4.007,0,19.035c8.208-25.714,8.543-22.041,9.381-20.705s2.01.334,12.4-32.393a31.485,31.485,0,0,0-8.543-3.673c3.685-4.341,11.894-24.044,18.762-33.4,3.35-4.675,6.2-6.679,7.873-4.007s1.843,10.686-.167,25.38a178.391,178.391,0,0,1-15.579,25.046c-2.68,12.356-1.173,11.688.335,11.688s3.183.334.335,12.022c-11.391,28.052-13.4,26.382-15.076,21.707s-1.508-5.343-3.015-5.343-4.188,3.673-8.376,15.028c-3.853,16.7.5,7.681,3.015,4.341s2.178-2,1.173,2-3.685,12.022-9.548,28.72c7.371-21.039,11.224-29.388,13.066-31.391s1.34,2.338.837,7.347-1.173,10.352-.335,11.354,3.853-1.67,10.386-12.356l-13.9,31.058c1.173-1.67,3.518-5.343,5.7-8.015s4.188-4.007,4.355-2c-6.533,10.686-13.066,22.041-19.432,34.063,4.188-7.013,5.7-7.347,5.7-5.009a78.932,78.932,0,0,1-3.685,14.026l-5.025,15.028c-.5,2-.838,3.005-.67,3.673h1.843l1.005.668-.67-1.67h0a2.3,2.3,0,0,1-.167-1,10.779,10.779,0,0,1,0-2.338,36.812,36.812,0,0,1,1.675-5.343,111.816,111.816,0,0,1,7.2-14.026l9.548-16.7a97.972,97.972,0,0,0,8.543-19.035c3.183-1.67,5.193-1.336,6.2.334a6.508,6.508,0,0,1,.67,3.34,9.607,9.607,0,0,1-.167,2,2.3,2.3,0,0,1-.167,1v2.338a5.124,5.124,0,0,1,0,2.338h0v1l.335,2q.385,3.9,1,7.681c.335,2.672.5,5.343.838,8.015l1.005,8.349.5,4.341c.276,1.412.5,2.863.67,4.341.5,3.339.838,6.345,1.34,9.351s1.005,6.345,1.675,9.685l.838,4.675,1.173,5.343,2.513,10.018q1.527,5.522,3.35,10.686l1.842,5.677,2.345,5.343q2.345,5.677,5.025,11.02a127.509,127.509,0,0,0,13.9,20.705,108.8,108.8,0,0,0,8.878,8.683,21.475,21.475,0,0,0,4.858,3.339l5.026,3.674,5.36,2.672,5.361,2.672a63.681,63.681,0,0,0,11.056,3.005h5.528a15.384,15.384,0,0,0,5.528,0,57.044,57.044,0,0,0,10.554-1.336,48.485,48.485,0,0,0,9.716-3.673l4.523-2.338,2.01-1,2.178-1.336a56.56,56.56,0,0,0,12.9-12.356,8.971,8.971,0,0,1-3.518,4.007l-2.848,1.336-3.518,1a38.546,38.546,0,0,1-17.589.334l-2.178-.668-2.178-.668-3.853-2.338c-1.894-.947-3.592-3.048-4.858-6.011-.837-2.338-.67-5.009.5-8.349a56.737,56.737,0,0,1,6.7-10.019c12.229-1.67,22.447-4.007,28.813-1.67h1.34l1.005.668,2.01,1.67,3.183,4.007a105.9,105.9,0,0,1,5.863,10.686c15.412-23.377-11.223-34.731-9.046-63.451,16.082,38.4,4.355-25.714,8.711-46.419l8.543,36.4c24.96,5.677-12.4-81.15,11.726-68.794l4.355,57.44,6.2-21.373,7.706,43.414c2.848-40.074,7.873-35.065,20.269-32.393-8.208-23.711-13.9-67.458-5.528-76.809,10.889,16.364,4.69,38.07,15.747,21.373,2.513,25.38,6.2,57.106-7.036,28.386,2.178,12.356,2.513,25.38,4.69,37.736,12.229,19.035,17.422-9.017,21.777-13.358-2.492.511-4.979-1.061-6.868-4.341l6.2-67.124c6.03,11.354,6.366,24.378,6.7,37.069,2.68-7.013,1.34-26.382,5.863-34.4,5.528,31.057,12.9,61.447,8.543,82.486l9.381-48.757c4.188,12.022,17.087,27.718,17.254,40.742,13.569,8.683,9.884-79.146,27.808-67.458a55.969,55.969,0,0,1,1.005-19.7c13.234-4.007,32.163,22.709,36.686-30.724l20.1,46.085c8.208-22.041-26.133-57.44-12.564-94.174,8.878-28.72,15.244,41.076,23.285,51.762.167-32.727-1.34-97.514,20.437-65.12C1130.1,466.016,1125.243,461.007,1122.395,468.354Zm80.742-99.183c-.838,5.009-2.178,15.362-3.183,21.373s-1.508,6.679-1.508-6.345c1.34-26.048,2.345-33.4,3.015-32.393S1202.467,362.158,1203.137,369.171Zm117.6,126.9c-7.036,2.672-5.863-6.679-1.173-21.039C1322.409,478.373,1323.414,484.718,1320.733,496.072ZM1670.339,169.8a8.3,8.3,0,0,0,.168,2l-6.7-4.341-1.34-1Zm23.787,9.351c.335-6.011-1.34-11.354-3.685-16.7,1.34,10.352-2.68,12.022-8.376,11.02C1686.588,183.494,1690.943,189.839,1694.126,179.152ZM790.044,166.8c0,4.341.167,9.017.167,13.692C782.338,182.158,786.024,175.145,790.044,166.8Z" transform="translate(-283.205 82.9)" fill="url(#linear-gradient)"/>
      <path id="Path_477" data-name="Path 477" d="M884.8,93.663A95.738,95.738,0,0,1,889.858,80.2c-2.163.958-4.06,6.007-5.058,13.463Z" transform="translate(59.668 464.864)" fill="url(#linear-gradient)"/>
      <path id="Path_478" data-name="Path 478" d="M741.476,110.6H741.2c.141,2.524.326,5.009.552,7.44Z" transform="translate(-23.152 536.164)" fill="url(#linear-gradient)"/>
      <path id="Path_479" data-name="Path 479" d="M1133.774,140.151c-1.946-3.971-3.618-9.681-4.874-16.651C1129.82,133.42,1131.291,140.505,1133.774,140.151Z" transform="translate(198.05 538.106)" fill="url(#linear-gradient)"/>
      <path id="Path_480" data-name="Path 480" d="M1186.81-25.7l-5.609,9.566c1.231-.122,2.424,1.665,3.31,4.96,1.012,3.543,1.931,7.794,2.851,11.691C1186.718-10.112,1184.694-25.346,1186.81-25.7Z" transform="translate(339.877 217.265)" fill="url(#linear-gradient)"/>
      <path id="Path_481" data-name="Path 481" d="M1244.666,73.562c.644-5.314,1.471-.709,2.115-6.023l-.368-19.84C1243.562,49.117,1241.631,65.414,1244.666,73.562Z" transform="translate(334.898 388.542)" fill="url(#linear-gradient)"/>
      <path id="Path_482" data-name="Path 482" d="M1200.6,27.5c1.839,38.616,4.874,27.988,9.1,22.674-.276,0-.552.354-.736-.354.092-26.217-.92-35.782-2.575-36.491S1202.531,20.065,1200.6,27.5Z" transform="translate(338.318 307.846)" fill="url(#linear-gradient)"/>
      <path id="Path_483" data-name="Path 483" d="M1211.5,30.489c1.341-1.415,2.767-1.04,4.046,1.063C1215.914,10.3,1213.8,26.238,1211.5,30.489Z" transform="translate(337.441 326.035)" fill="url(#linear-gradient)"/>
      <path id="Path_484" data-name="Path 484" d="M1141.5,18.762c3.586,9.211-3.862-46.056-.644-31.531-1.2-23.028-4.138-8.857-4.874,8.148-.46,8.5-.276,17.714.552,23.028S1138.921,25.139,1141.5,18.762Z" transform="translate(202.987 219.063)" fill="url(#linear-gradient)"/>
      <path id="Path_485" data-name="Path 485" d="M1208.019,88.082c-.828-15.943-1.655-31.885-2.667-48.182-.276,12.4-.46,24.445-.552,36.491l1.655,6.023Z" transform="translate(337.98 369.654)" fill="url(#linear-gradient)"/>
      <path id="Path_486" data-name="Path 486" d="M1178.381,42.638l6.713,12.046c-.736-7.44-.368-11.691.276-14.88C1181.783,38.032,1177.093,30.238,1178.381,42.638Z" transform="translate(340.121 360.876)" fill="url(#linear-gradient)"/>
      <path id="Path_487" data-name="Path 487" d="M1186,41.477c1.931,1.063,3.587.354,4.138-6.377C1189.219,35.1,1187.1,36.163,1186,41.477Z" transform="translate(339.491 359.679)" fill="url(#linear-gradient)"/>
      <path id="Path_488" data-name="Path 488" d="M1201.258,72.037l-1.839-12.4-1.655-5.314L1196.2,48.3c1.544,8.347,3.233,16.277,5.058,23.737Z" transform="translate(338.671 390.01)" fill="url(#linear-gradient)"/>
      <path id="Path_489" data-name="Path 489" d="M1146.7,42.2c2.483,6.731,4.966,14.171,7.541,21.611,3.31,18.423,3.678,26.571.644,16.3A243.186,243.186,0,0,1,1146.7,42.2Z" transform="translate(342.65 375.193)" fill="url(#linear-gradient)"/>
      <path id="Path_490" data-name="Path 490" d="M1157.637,96.465a36,36,0,0,1-1.1-4.251,18.127,18.127,0,0,1-.552-2.126l-.276-1.771-1.2-7.44L1151.2,62.1l11.771,58.81-3.127-12.754-.828-3.543-.368-1.417-.184-1.063-.184-.709Z" transform="translate(342.289 420.929)" fill="url(#linear-gradient)"/>
      <path id="Path_491" data-name="Path 491" d="M1172.085,80.9c1.471,7.794,4.69,21.257,6.713,30.822s3.127,15.943.828,10.628q-2.422-12.667-5.242-24.091C1172.729,90.466,1171.442,83.734,1172.085,80.9Z" transform="translate(340.623 465.296)" fill="url(#linear-gradient)"/>
      <path id="Path_492" data-name="Path 492" d="M827.073,237l1.287-2.48L819.9,150.2Z" transform="translate(466.987 348.971)" fill="url(#linear-gradient)"/>
      <path id="Path_493" data-name="Path 493" d="M1033.277,203.307c1.38,29.405.736-62,2.3-26.217a223.489,223.489,0,0,0-.276-25.508c-.467-7.657-.592-15.564-.368-23.382C1033.185,149.1,1032.633,132.806,1033.277,203.307Z" transform="translate(142.643 569.852)" fill="url(#linear-gradient)"/>
      <path id="Path_494" data-name="Path 494" d="M1035.1,137.354c.276-3.189.644-7.086,1.011-12.754-.454,4.1-.793,8.376-1.011,12.754Z" transform="translate(142.944 560.698)" fill="url(#linear-gradient)"/>
      <path id="Path_495" data-name="Path 495" d="M287.534,110.4a15.458,15.458,0,0,1-5.334,1.417,28.291,28.291,0,0,0,7.633,1.417Z" transform="translate(-282.2 535.904)" fill="url(#linear-gradient)"/>
      <path id="Path_496" data-name="Path 496" d="M299.9,122.057,287.3,113.2a127.3,127.3,0,0,1,9.84,12.4C297.048,123.828,296.864,120.64,299.9,122.057Z" transform="translate(-282.61 542.014)" fill="url(#linear-gradient)"/>
      <path id="Path_497" data-name="Path 497" d="M834,115.7l1.012-15.943c.92-17.714.828-18.777.552-21.257C835.2,90.9,834.644,103.3,834,115.7Z" transform="translate(29.654 459.958)" fill="url(#linear-gradient)"/>
      <path id="Path_498" data-name="Path 498" d="M823.558,113.365l.368.709c-1.747-15.943-3.495-31.885-5.426-47.473C820.247,82.188,821.9,97.777,823.558,113.365Z" transform="translate(22.185 431.834)" fill="url(#linear-gradient)"/>
      <path id="Path_499" data-name="Path 499" d="M786.752,136.671c2.023-1.417,2.943-15.943,5.058-17.005C788.776,135.254,779.212,78.569,786.752,136.671Z" transform="translate(3.373 533.449)" fill="url(#linear-gradient)"/>
    </g>
  </g>
</svg>
