<svg id="Layer_1" data-name="Layer 1" xmlns="http://www.w3.org/2000/svg" width="1077.6" height="249.7" viewBox="0 0 1077.6 249.7"><defs><style>.cls-1{fill:#f9ed24;}</style></defs><path class="cls-1" d="M1322.5-28c1.3-1.9-9-3.4-10.8-4.2C1313.2-28.2,1325.1-27.5,1322.5-28Z" transform="translate(-282.2 82.9)"/><polygon class="cls-1" points="1055.7 94.1 1051.7 92.6 1060.8 99.9 1055.7 94.1"/><path class="cls-1" d="M1358.7,38.9l.3.8.4.6c.1.2.2.4.3.4h-.1a5.3,5.3,0,0,0-1.5-1.3,35.5,35.5,0,0,0-4.7-2.5l-1.9-.8-1.2-.4-1.2-.5-3-1-3.9-1.3-5.1-1.5h-.4l-.3-.3-.3-.3c0-.2-.1-.3-.1-.5a.9.9,0,0,1-.1-.5,5,5,0,0,1,.2-1.2,3.6,3.6,0,0,1,1.7-2h4.2l-13.4-5.7a24.5,24.5,0,0,0,1.4,6c.2.5.3,1.1.5,1.6a3.6,3.6,0,0,0,.6,1.1l.4.3h.2l1.9.6,3.8,1,3,.9,1.5.4,1.1.4,2.2.7,1.9.6,1.7.6,1.4.5,1.3.5,1.1.5,1,.4,1.7.8a18.9,18.9,0,0,1,3.7,2.3l.4.4c.1,0,.2.2.2.2h0A14.8,14.8,0,0,1,1358.7,38.9Z" transform="translate(-282.2 82.9)"/><path class="cls-1" d="M1343.2-25.3c1.3,6.9-3.6,6.1,4.1,2a8.5,8.5,0,0,1-.8-1.7A8.5,8.5,0,0,1,1343.2-25.3Z" transform="translate(-282.2 82.9)"/><path class="cls-1" d="M1346.5-25c3.4-.6-2.5-5.8,0,0Z" transform="translate(-282.2 82.9)"/><path class="cls-1" d="M1330.8-20.5l4.3-6.3c-1.1-4.1-5.1-4.9-3.7-7.9C1326.9-31.2,1327.9-27.1,1330.8-20.5Z" transform="translate(-282.2 82.9)"/><path class="cls-1" d="M1327-7.3l2.2-2.7C1328.7-11.7,1328.1-12.3,1327-7.3Z" transform="translate(-282.2 82.9)"/><path class="cls-1" d="M1334-15.7l-4.8,5.7c.8,2.8,1,8.6,2.2-2.1C1331.2-6.8,1332-11.9,1334-15.7Z" transform="translate(-282.2 82.9)"/><path class="cls-1" d="M1336.9-13.1c2.6,3.8,6,6.1,1.7,12.4C1347.1-3.4,1345.4-15.9,1336.9-13.1Z" transform="translate(-282.2 82.9)"/><path class="cls-1" d="M1357.6,35.7a18.3,18.3,0,0,0,1.9,4.8l.2.3h-.2l-.2-.2-.5-.4.5.4.4.3h0a.3.3,0,0,1-.1-.2c-.1-.1-.2-.2-.2-.3l-.3-.4a26.4,26.4,0,0,1-1-2.7C1357.8,36.2,1357.6,35.9,1357.6,35.7Z" transform="translate(-282.2 82.9)"/><path class="cls-1" d="M1302.4-28.8c-.2,3.8,1.8,10.1,2.3,14.9l3.2-4.4C1306.1-20.9,1302.8-23.2,1302.4-28.8Z" transform="translate(-282.2 82.9)"/><path class="cls-1" d="M1304.7-13.9,1300-7.2C1304.4-6.6,1305.2-9.7,1304.7-13.9Z" transform="translate(-282.2 82.9)"/><polygon class="cls-1" points="1044.6 95.4 1052.4 81.4 1043 95.6 1044.6 95.4"/><polygon class="cls-1" points="1001.1 54.3 1003.6 45.4 999.1 58.9 1001.1 54.3"/><path class="cls-1" d="M1270.7-26.7c1.9-7.3-3.3-12.2-1.2-16.7-3.4,1.4-6.1,7.7-8.6,13.5C1263.6-33.2,1266.7-32.5,1270.7-26.7Z" transform="translate(-282.2 82.9)"/><path class="cls-1" d="M1256.8-21.6a49.2,49.2,0,0,0,4.1-8.3A23.4,23.4,0,0,0,1256.8-21.6Z" transform="translate(-282.2 82.9)"/><path class="cls-1" d="M1291.4-8.8c-.5-2.3-1.4-8.2-4.3-10.7l2.3,10.6Z" transform="translate(-282.2 82.9)"/><path class="cls-1" d="M1289.5-8.5v-.4a38.8,38.8,0,0,1-4.2-.4Z" transform="translate(-282.2 82.9)"/><path class="cls-1" d="M1291.9-8.8h-.5C1291.6-7.7,1291.8-7.4,1291.9-8.8Z" transform="translate(-282.2 82.9)"/><path class="cls-1" d="M1313.4,3.3c-2.7,6-8.6,12.7-2.4,21.6C1312.9,17.5,1309.3,12.4,1313.4,3.3Z" transform="translate(-282.2 82.9)"/><path class="cls-1" d="M1294.8,4.5l5.4,2.3c-.2-2.8-1.3-6.9,0-9.9Z" transform="translate(-282.2 82.9)"/><polygon class="cls-1" points="1010.1 90.9 1012.6 87.4 1010.6 86.6 1010.1 90.9"/><path class="cls-1" d="M1266.2-11.9c-2.1,4.7-4.6,5.2-7.4,6A16.3,16.3,0,0,0,1268-3C1268.3-6.4,1269.4-12.4,1266.2-11.9Z" transform="translate(-282.2 82.9)"/><path class="cls-1" d="M1277.6-9.3c-.2.2-.4.3-.5.6S1277.7-7.5,1277.6-9.3Z" transform="translate(-282.2 82.9)"/><path class="cls-1" d="M1230.9-5l.6,1.9V-4.9Z" transform="translate(-282.2 82.9)"/><path class="cls-1" d="M1268.6-1c2.4,2,3.6-.7,4.8-4a10.8,10.8,0,0,1-5.4,2C1267.9-1.5,1267.9-.5,1268.6-1Z" transform="translate(-282.2 82.9)"/><path class="cls-1" d="M1249.2-16.4a45.4,45.4,0,0,0,4.1,5.8C1252.1-14,1249.5-19.2,1249.2-16.4Z" transform="translate(-282.2 82.9)"/><path class="cls-1" d="M1276.2-11.6l.3-.5C1275.7-14.4,1275.8-13.3,1276.2-11.6Z" transform="translate(-282.2 82.9)"/><path class="cls-1" d="M1276.2-11.6c-1.1,1.5-1.9,4.2-2.8,6.6a13,13,0,0,0,3.7-3.7A19.9,19.9,0,0,1,1276.2-11.6Z" transform="translate(-282.2 82.9)"/><path class="cls-1" d="M1224.7,63.8c.2-9.9,5.8-19.3,11.4-8.8,4.8-7.6.4-40-4.6-58.1-.1,4.3.1,8.3-5,14.3,2.1,5.4,12.1,12.3,8,21.4-3.4,2.7-4.9,1.8-5.9-.3s-1-2.5-1.5-3.9a17.9,17.9,0,0,0-1.9-4.2c1.5,6.1-.4,10.6-2.5,15.9l-1.5,4.1c-.5,1.5-1.1,2.8-1.5,4.4a43.4,43.4,0,0,0-.9,5.4c-.1,2-.1,4,0,6.3,2-2.1,4.2-4.2,6.1-6.4C1225.1,56.7,1222.9,61.3,1224.7,63.8Z" transform="translate(-282.2 82.9)"/><path class="cls-1" d="M1241.5-2.4l2.1-1.3c-2.5-1.7-4.4-5.6-7.9-13.2-3.4,5-4.1,8.7-4.2,12l10.6,1Z" transform="translate(-282.2 82.9)"/><path class="cls-1" d="M1253.2-4.1c-1.3,10.8-6.3,15.6-2.7,27.1,6.3-.9,4.1-9.1,7.7-13.9-10.1,3,2.7-6.1-4.8-12a11.4,11.4,0,0,1,5.4-3,29.3,29.3,0,0,1-5.5-4.7l.3.6h0v.2c.5,1.3.7,2.1.2,1.3s-.2.2-.2.3-.2,2.8-.4,4c-3-2.1-.5-2.7.4-4V-10l-10,6.3C1245.8-2.3,1248.5-2.7,1253.2-4.1Z" transform="translate(-282.2 82.9)"/><path class="cls-1" d="M1306.3,48.2a11.8,11.8,0,0,1-.4-2.5C1305.3,47,1305.1,48,1306.3,48.2Z" transform="translate(-282.2 82.9)"/><path class="cls-1" d="M1301.9,41.8c.7-1.5,1.2-5.8,3.6-4.8,2.2,3.2.2,5.2.4,8.7,1.4-2.9,4.9-7.9.1-13l-.6,1.5c-4.3-3.5-10-16.8-9.4-18.3A167.1,167.1,0,0,0,1301.9,41.8Z" transform="translate(-282.2 82.9)"/><path class="cls-1" d="M1277.4,21.6l-8.3,5.6,4.6,9.2-.4-5.6C1278.2,32.8,1276.9,26,1277.4,21.6Z" transform="translate(-282.2 82.9)"/><polygon class="cls-1" points="947.6 72.6 948.3 61.2 944 77.4 947.6 72.6"/><path class="cls-1" d="M1220.8-8.7v-8.8c0,.1,0,.1-.1.1h-.1l-.8.3-.8.5-.5.2h-.2l-.3.4.5.6.4,1,.7,1.9.7,1.9.3.9.2.4Z" transform="translate(-282.2 82.9)"/><path class="cls-1" d="M820.4,64.1v3A15,15,0,0,0,820.4,64.1Z" transform="translate(-282.2 82.9)"/><path class="cls-1" d="M826.9,62l-.5-5.1C826.4,59.8,826.6,61.9,826.9,62Z" transform="translate(-282.2 82.9)"/><path class="cls-1" d="M1040.4,4.2,1037-5.7a90.3,90.3,0,0,0-3.3-8.5c-2-4.5-3.3-5.8-2.9.6.6,4.2,1.1,8.4,1.6,12.6a5.4,5.4,0,0,1,4.5.9A14,14,0,0,1,1040.4,4.2Z" transform="translate(-282.2 82.9)"/><path class="cls-1" d="M920.9,67.1l-2.4,2.6,10.3-2.8Z" transform="translate(-282.2 82.9)"/><path class="cls-1" d="M880.1,86.1l3.8-7.7A23.1,23.1,0,0,0,880.1,86.1Z" transform="translate(-282.2 82.9)"/><path class="cls-1" d="M741.8,112.7l2,11.2C747.9,122,743.8,117.8,741.8,112.7Z" transform="translate(-282.2 82.9)"/><path class="cls-1" d="M1123.3-11.2c.4-5.1,2.3-7.2,4.4-7.6-.1,3.7.6,8.3.5,10.6S1127-5.8,1123.3-11.2Z" transform="translate(-282.2 82.9)"/><path class="cls-1" d="M795.5-50.6c-1.7,2.9-2.1,5.4-1.4,7.7C795.8-45.6,796.6-48.2,795.5-50.6Z" transform="translate(-282.2 82.9)"/><path class="cls-1" d="M1169.1-.1l3.9,1.4.5.2.7.2,1.4.4,2.7.9h4.4l-6,33c-.4,2.1-.7,4.1-1.1,6.1s-.6,3.8-.8,5.7a23.4,23.4,0,0,1-.4,2.6l-.3,2.5c-.1.8-.1,1.6-.2,2.4s-.1,1.4-.2,2.2a28.7,28.7,0,0,0,.1,6.7,3,3,0,0,0,.2,1h0c-10.9-26.9,24.3,60.2-24.4-60.3l-.6-.9-1.4-1.6-2.8-3.3-11.1-13.2-2.8-3.3-.6-.8-.3-.4h.2c.3,0,.4,0,.3-.1l-.7-.3a5,5,0,0,0-2.1-.1,30.6,30.6,0,0,1,.3-3.5c0-.2.1-.5,0-.7a.6.6,0,0,0-.3-.6l-.4-.2h-.2l.4.5,7.3,8.7,7.3,8.7,3.7,4.3,1.8,2.2c11.7,28.9-25.6-63.9,26.4,64.9h0v-.2c0-.1-.1-.4-.1-.6a19.5,19.5,0,0,1-.2-3.7,20.9,20.9,0,0,1,.1-2.5c0-.9.1-1.8.2-2.8l.3-3.1c.1-1.1.3-2.2.4-3.4.7-4.7,1.5-10,2.6-15.8l6.6-35.9h-4.2a32.8,32.8,0,0,0-4.3.4h-1.9l-1.5.5Z" transform="translate(-282.2 82.9)"/><path class="cls-1" d="M413.6,115.4a6.1,6.1,0,0,1-.7-1.4C412.7,115.5,413.1,115.6,413.6,115.4Z" transform="translate(-282.2 82.9)"/><path class="cls-1" d="M304.7,104.4c-.5-.4-.4-1.3-.5-2.1s-.6.5-.5.9A3.1,3.1,0,0,0,304.7,104.4Z" transform="translate(-282.2 82.9)"/><path class="cls-1" d="M1151.1-20.8c3.7-.7.2-1.2,0,0Z" transform="translate(-282.2 82.9)"/><path class="cls-1" d="M1182.2,21.9a12.6,12.6,0,0,0,.4,5.2A15,15,0,0,1,1182.2,21.9Z" transform="translate(-282.2 82.9)"/><path class="cls-1" d="M1146.7,72.7h-.2C1147.9,74.5,1147.6,74.2,1146.7,72.7Z" transform="translate(-282.2 82.9)"/><path class="cls-1" d="M1159-15.5a29.5,29.5,0,0,0-3.1-2.2l-3.2-1.4a19.5,19.5,0,0,0,2.3,1.4l1.8.9Z" transform="translate(-282.2 82.9)"/><path class="cls-1" d="M1156.3-20.7l2.2.9.4.2h.5l.8.2c-.1-.9-.3-1.7-.9-1.9a2,2,0,0,0-1.1,0A5.4,5.4,0,0,0,1156.3-20.7Z" transform="translate(-282.2 82.9)"/><path class="cls-1" d="M1145.9-20.3a16.9,16.9,0,0,1,6.8,1.2c-1.1-.8-1.6-1.4-1.6-1.7Z" transform="translate(-282.2 82.9)"/><path class="cls-1" d="M559.1,91.1a8.9,8.9,0,0,0,.5-1.3c-1.7,1.5-2.3,2.2-2.3,2.4S558,91.9,559.1,91.1Z" transform="translate(-282.2 82.9)"/><path class="cls-1" d="M1010.9,125.1a2.4,2.4,0,0,1-.2-.8l-.3-.3Z" transform="translate(-282.2 82.9)"/><path class="cls-1" d="M1013.5,138.3c-3.2-8.6-4.4-12.9-4.7-14.6s.6-.9,1.6.3c-5.3-12.7-10.6-25.1-16.1-37.2Q1003.5,113.7,1013.5,138.3Z" transform="translate(-282.2 82.9)"/><path class="cls-1" d="M788.8,81.9l9.5,6.4c.2,17.5-6.8,14.7,3.9,24.8-6.7-15.6-1.8-18.8,3-22s9.5-6.2,2.9-21.8l6.4,4.9c-1.1.1-.4,2-1.6,2.2,6.7,5.9,5.4-.3,3.8-7.9l-.6-2.8-.3-1.5c-.2-.4-.3-.9-.5-1.3s-1-3.5-1.3-5-.3-4.8,1.2-4.2a10.8,10.8,0,0,1,3.4,4.3,18,18,0,0,1,1.8,6.1,61.6,61.6,0,0,1,.7-9.5c1.1.2,2.1,6.2,1.2,5.9a54.7,54.7,0,0,1,4-4.6v1a93.8,93.8,0,0,1,.5-10.2c.4-3.6.9-7,1.3-9.1,1,2.2.8,3.3.5,4.3a8.1,8.1,0,0,0-.4,4.2c.9-3.4,1.9-6.8,3.1-10.2a39.2,39.2,0,0,1-.4,12.9c-.6,3.7-1.5,6-2.4,5.7,1.2,8.7,1.6,12.6,1.9,13.6s.5-.6.9-2.9.7-5,1.4-6,1.6-.2,2.1,5c-.8,1.9-1.4,3.7-2,5.5.1,10.4,0,13.8.1,16.1a48.5,48.5,0,0,1-.7,10.6c.2-1.8.7-4.9,1.1-8.6s.8-8.1,1.1-12.5c.5-8.7.6-17.6,2.5-22.9.3,1.3.5,2.2,1.1,1.8s1.4-2.2,3-6.4c-2.5,14-.7,10.2,1.3,9.5L837.6,76c1.2-2.7,2.5-6.4,4-10.4a129.2,129.2,0,0,1,4.9-12.5c.8,1.4,0,5.7-1.7,11.1s-3.9,11.9-6.2,17.8c0,1.8,2.2-3.7,4.5-10.2s4.6-14,7-14.3c-.4,4.3.3,4.9,2.3,3.8a31.8,31.8,0,0,0,3.8-2.7c1.6-1.1,3.5-2.5,5.6-3.8a18.3,18.3,0,0,1-4.3,7.5,30,30,0,0,0-4.4,6c2.9-3.4,6-6.7,9.2-9.8.1.7-2.6,3.9-3.9,5.6,2.1-1.5,4.8-4.8,7.5-8s5.4-6.1,8-6.3c6.3-6.8,3.1.5-.2,7-1.7,3.3-3.4,6.4-3.6,8s1.1,1.8,5.5-.4a24.6,24.6,0,0,1-5.7,4.8,69.9,69.9,0,0,0-7,5.2c3.1-1.1,5.3-1.7,7.1-2.2l4.7-1,5.4-1.4c2.3-.6,5.4-1.4,9.9-2.3l-1.7,2.4-1.5,2.8-2.9,5.7c8.1-10.4,23.9-10.9,37-11.3,4.2-4.4,7.9-8.1,9.5-10.2l12,4c-1.8,2.2-7,4.1-13.6,6l4.1-.4c-3.5,5.8-12.4,8.8-21.4,10.9,2.2-2.5,4.6-5.2,7-7.7-9.7,2.5-20.2,5.6-28.2,10.5a8.4,8.4,0,0,1,5.3.8c-2.6.7-4.9,1.4-6.2,2.5s2.3.3,6.7-.2L881.6,93.8l6.4-2.9-1.5,8.7c-.5,2.9-.8,6-1.2,9,5.1-.1,10.8-.5,16.5-1.1l16.9-1.8,8.1-.6a65,65,0,0,1,7.6-.1,43,43,0,0,1,13,2.4,57.8,57.8,0,0,0-14.5,10c-4.2,3.9-8.1,8.5-14,13.4a16.4,16.4,0,0,0,1.8-4.6,4.1,4.1,0,0,0-.5-3c-1-1.5-3.1-2.2-5.5-2.7a51.9,51.9,0,0,1-7.8-1.8c-2.4-.9-4.3-2.2-4.8-4.5,1,4.7-5.6,8.1-8.4,8.5l5.3,1.2,5.5,1.2,5.3,1.1,2.8.6,2.9.6c-10.1,7.6-5.1,9.1-4.2,17.6a28.7,28.7,0,0,1,5.3-5.9,13.4,13.4,0,0,1,5-2.6c3.1-.9,6-.2,9.2,1.2s6.7,3.4,10.6,4.9,8.1,2.3,11.7,1.4c-1,4.1-2.8,8-6.7,9.7a11.2,11.2,0,0,1-7.1.4,21.3,21.3,0,0,1-8.9-5,11.7,11.7,0,0,0,1.2,4.1,8.8,8.8,0,0,0,2,2.9,8.3,8.3,0,0,0,5.5,2.3,15.1,15.1,0,0,0,6.5-1.3l3.3-1.6,1.6-1,.3-.2h.6l1.9.4a37.8,37.8,0,0,0,7.5.4h1.9l1.6-.2,3.3-.5,3.1-.9,1.6-.5h.6l.6-.3a28.9,28.9,0,0,0,4.3-2.2l2.1-1.3,1.3-1.1,2.4-2.2,1.1-1.2.7-.9,1.3-1.9.5-.9.2-.3h0v-.3c.1-.7.3-1.4.4-2.1l-.6-1.1a10,10,0,0,1-.9-1.8c-.9-2.1-.3-3.1,2.9-1.2-.3,1.1-1.5.7,1.2,4.2-1.9-3.8-1.2-6.1.4-6.5s4.1,1.5,6.2,5.1l-.2,1c2.1-1.6,3.5-5.5,3.1-12.4a65.6,65.6,0,0,0-2.1-12.6,110.9,110.9,0,0,0-5.7-17.2c.7,1.6,4,9.1,7.5,16.8l8.1,18.2c-5.9-14.7-11.5-30.6-16.5-47.5-1.3-4.2-2.5-8.5-3.7-12.8l-1.8-6.6c-.5-1.9-.9-3.7-1.3-5.5-1.6-7.2-2.9-14.4-3.9-21.2,1.3,4.7,3.5,10.5,6,16.9l1.9,5c.9,2.2,1.8,4.5,2.6,6.8,1.8,4.6,3.5,9.3,5.2,13.9,6.9,18.6,12.7,36.7,14.4,45,.8,1.1,1.8,2.4,2.3,2s.4-.7.5-1.8.1-1.3.1-2a23.5,23.5,0,0,0,.1-2.8,55.8,55.8,0,0,1-2.9-6.9c-1.4-3.5-3.1-7.8-4.6-12s-3.1-8.4-4.2-11.8-1.7-5.9-1.5-6.6c4.6,8.7,6.7,13.2,8.2,16.3s2.5,4.3,4.1,6.9,1.1,2.9,2.1,5.2,2.3,5.3,3.8,9.3c-1.2-2.7-3.8-13.6-5.6-23.5a116.8,116.8,0,0,1-1.7-13c-.2-3.3.2-5.3,1-4.7.3,2.8,2.3,12.1,4.1,21.2s3.6,18,3.6,19.9a246.4,246.4,0,0,1-.5-34.2c-.4,2.8.7,10.5,2.2,18.8s3.2,17.1,4.3,22.4c-.7-3.7.2-3,1.3-1.7s2.4,3,2.8,1.7c-.7-3-1.4-6.1-2.3-9.2,1.4,2.2,2.1.5,2.8-3.1s1.2-8.9,2-14.3,1.7-10.6,3-14.1,3-4.9,5.1-2.9c-.8,2.8-2,12.2-2.5,21.8s-.7,19.2.3,22c1.2-7.3,4.5-24.9,10.4-40.2.4-.9.7-1.9,1.1-2.9s.8-1.9,1.2-3,1.7-3.9,2.6-5.7a93.3,93.3,0,0,1,5.7-10.1c4.1-5.9,8.4-9.8,12.2-10.7l-.3,9.5,1.4-.5,1.2-.5,2.5-.9a20,20,0,0,0,1-2.1,3.6,3.6,0,0,1,.4-1.1v-.3h.1l-.2.5h.1l-.3,1.1a16,16,0,0,1-.5,2.1c-.5,1.5-1,3-1.6,4.6a48.9,48.9,0,0,1-2,4.8,7.5,7.5,0,0,1-.6,1.3l-.7,1.1a18.8,18.8,0,0,0-1.6,2.3l-6.9,9.9-3.4,5.3c-1.1,1.7-2.2,3.4-3.2,5.2-2.1,3.4-4,6.9-5.8,10.3s-3.3,6.7-4.7,9.8c-2.8,6.3-4.8,12-6.2,16.1a51.5,51.5,0,0,1-.1,8.3c0,1.7.1,2.5,1.2,2.8a30.3,30.3,0,0,1-2.1,8.6c-.8,1.9-1.4,2.7-1.7,2.8.9,2.5,1.5,4.8,2.1,6.8a65.8,65.8,0,0,1,3.4-9.3,17.2,17.2,0,0,1,2.5-2.8l1.3-1.2.3-.2h.7l1.5-.3a52.7,52.7,0,0,0,5.7-1.4,25.8,25.8,0,0,0,5.1-2,9.1,9.1,0,0,0,5.1-7.6l-5,1.3-2.5.6-2.4.4-5,.8h-.5l-.3.2-.5.4-1.2.7-1.1.7-.3.2-.2.2-.4.4-1.4,1.8a28,28,0,0,0-2.5,3.5,124.6,124.6,0,0,1,4.2-13.9,78,78,0,0,1,6.6-13.6,13,13,0,0,0,1-1.5l.5-.7.6-.6,2.3-2.5,1.2-1,.6-.5.9-.5,3.2-1.4,1.6-.6,1.5-.5,3-.6,3-.2a16.5,16.5,0,0,1,3,.4c1.9,3.4,1.4,10.8-.7,18.2-1,3.6-2.3,7.2-3.4,10.2s-2.1,5.4-2.1,6.8a12.7,12.7,0,0,1,2.4-2,28.1,28.1,0,0,1,3.5-1.8l4.3-1.7,4.5-1.7,4.4-1.4a30.6,30.6,0,0,1,3.8-1,12.4,12.4,0,0,1,3-.4h.5l.3.2.6.5-.5,1.3a7.6,7.6,0,0,1-1.1,1.4,20.9,20.9,0,0,1-2.4,2.8,45.6,45.6,0,0,1-5.3,5.5,12.5,12.5,0,0,0,6.1-.1,11.9,11.9,0,0,0,2.6-1.1l1.3-.7.6-.4.3-.4a23,23,0,0,0,2-3.5c.6-1.3,1-2.6,1.5-3.9s2-4.8,3.5-5.7,3.7-.2,6.9,2.9c2.9.1,15,17.6,12,8.1-10.8-16.5-31.2-72.2-33.8-86.5.5.4,4.9,3.7,10,7.8s10.8,9,13.7,12.9c4.6,6.3,6.4,15.2,8.1,23.9s3,17.2,6.9,22.6c-1.5-4.4-1.4-10.4-1.2-12.5,3.8,2.8,4.1,13.7,8.5,9.8-5.2-16.3,10.8-2.6-2.7-14.4,3.2-6.4,6.5,1.2,11.9-1.6-2.8-4.8-4.8-14-5.6-22.9s-.4-17.4,1.5-20.6c1.1,4.2,4.1,9.2,5.4,11.4,5.5-1,10.2,0,14.4,1.1l5.8,1.8.6.2.5.3h.6l.3.2.3.2h0V76l.2-.8v-.4h.1c.1-.4-.7,4-.4,2.1h.1l.6.2,1.5.2a5,5,0,0,0,1,1.7l.4.5.7.4.8.4a4.2,4.2,0,0,0,1.3.3h2.9l1-.2.8-.3.9-.3h.4v.2l.2.2a7.3,7.3,0,0,1,.5,1.2,33.7,33.7,0,0,0,4,8c-2.3-3.3-6-9.1-8.5-10.7a17.7,17.7,0,0,0,2.6,5.8,10.4,10.4,0,0,0,2.5,2.6,21.3,21.3,0,0,1,2.8,3.3,45.8,45.8,0,0,1,3.9,7.6,64.8,64.8,0,0,0-8.8-12.1c-3.2-3.6-6.8-7.1-10.4-10.9-4.3-7.2-2.5-6.9.9-3.8a122.3,122.3,0,0,1,11.4,12.4c-2.6-4.7-5.5-9.8-8.8-15-.9-1.2-1.7-2.5-2.6-3.9s-.9-1.2-1.3-1.9l-1.7-2.5c-2.3-3.4-4.6-6.7-7-9.9-9.6-12.8-20-23.6-28.2-29.1-2.8-1.5-3.6-1.2-3.6-.2s1.2,2.8,2.5,4.7c2.5,3.7,6.1,7.9,4.4,6.3-2.7.4-6.2-1.7-9.7-4.3q-2.7-2-5.4-4.2l-2.5-2.2a1.5,1.5,0,0,1-.6-.5l-.3-.7-.6-1.3c-1.6-3.5-2.7-7.4-1.9-9.8s3.5-3.5,10-.9a44.4,44.4,0,0,1,8.9,9,76.1,76.1,0,0,1,5.9,9.4c3.3,6.1,5.8,11.7,9.4,16.4-2,2.7-6,.7-10.1-1.5l-5.9-3.3a14.2,14.2,0,0,1-2.2-1.3l-.9-.3h.2v.3h-.1c.1,0,0,0,.1.1h.1l1.1.8,2.2,1.5a37.2,37.2,0,0,0,4.8,2.7,7,7,0,0,1-.1,2.6c-.2.7-.5,1-1,1.1h-.3s-.1,0,0,.1l.7.4,1.1.5c.6.2,1,0,.9-.6.5,1.1.5,1.8.1,2.1a.8.8,0,0,1-.5.5l2.6,1.7a15.2,15.2,0,0,0,5.4,1.6l5.7.4a88.5,88.5,0,0,1,12.3.8,27.5,27.5,0,0,1,12.5,4.9c0-2.5.3-5.1.3-7.7a27.6,27.6,0,0,0-.6-4,14.5,14.5,0,0,0-2-3.9l-3.2,2.1c-4.3-5.3-4.1-9.2-3.4-12.3s1.7-5.4-2.4-7.8c.9-2,1.7-4.2,2.8-6.2s1.1-1.8,1.7-2.8a19.4,19.4,0,0,1,2.1-2.7,9,9,0,0,1,12.7-1.5L1189,19l2.4,8a12.5,12.5,0,0,0-1.6-3.6,9,9,0,0,0-2.8-2.7c-2-1.3-4.1-1.3-4.7,1,.4-1.7,1.9-1.2,3.8.2l3,2.6,1.5,1.7,1.3,1.8c3.4,5,6.5,8.1,6.7-2l-3.9-6.3-2-3.2-1.9-3.1c1.9-3.1,4.5-8.8,8.4-13.1s9.1-6.7,14.5-3.3c-2.8-8.4-3.5-8-4.4-8s-2.2-.5-7.1-10.3c2.3,6,1.6,8.8-.3,10s-5.1.8-8,.5l-3.9-.3a3.6,3.6,0,0,0-2.5,1c-.8,1.3-.3,4.3,2.8,10.7a74.5,74.5,0,0,0-3.4-6.9c-.5-1-1-1.8-1.4-2.5l-1.3-2a22.7,22.7,0,0,0-2.4-2.7,16.1,16.1,0,0,0-2.8-1.7,49.5,49.5,0,0,1-6.4-3.3,52.1,52.1,0,0,1-9.3-8.2c1.9,5,6.5,9.4-3.1,7.4a18.5,18.5,0,0,1-.1,2.3,17.3,17.3,0,0,1-.4,2l-.7-.5.7.7c-.1.6-.1.8.3.2l1.1,1,1,.8c.6.6,1.3,1.2,1.8,1.8a21.4,21.4,0,0,1,3,3.9,11.4,11.4,0,0,1-.6,3.9,6.9,6.9,0,0,1-1.6,2.8l-1,1-.6.4-.6.5a20.7,20.7,0,0,1-2.4,1.7c-3.3,2.1-6.8,3.6-7.4,6.7-2.9-1.1-3.1-2.6-3.2-4.4s-.2-4.1-2.7-6.8c-.8,3.1-1.4,6.2-1.9,9.3a37,37,0,0,0-6.1-7.6c-2.3-2.3-4.7-4.4-6.7-6.3s-3.5-3.8-4-5.6-.1-3.7,2.1-5.6a99.9,99.9,0,0,0-11.1.8c-4.9-2.5-9.9-3.7-13.5-3.2s-5.8,2.8-5.9,6.4a1.8,1.8,0,0,0-1.3.9,6.5,6.5,0,0,0-.4,2.1,14.1,14.1,0,0,0,1.2,4.9c.2.8.5,1.4.6,1.9a.5.5,0,0,1,.1.3h.4l-.4-.4c-.1,0-.1-.1-.2-.2h-.2c0-.1-.1-.2-.1-.3l-.7-1.5v.7h.1l.4-.2.9-.4,2.1-.5a21.7,21.7,0,0,1,5.1,0l-1.9-2.8c1.3-1.8,3.9-2,7.2-1.4s7.2,2.2,10.9,3.4,7.4,2.2,10,1.5a4,4,0,0,0,1.8-1,2,2,0,0,0,.8-1.7,1.5,1.5,0,0,0-.7-.7h-.3c.1,0-.1-.2.1.1l1.5,1.7,6,7.2,6,7.1,3,3.5c-18.7-46.9,27.2,66.2,22.3,54.4h0c0-.1-.1-.1-.1-.2a5.2,5.2,0,0,1-.2-1.4,25.9,25.9,0,0,1-.1-4.1,4.9,4.9,0,0,1,.1-1.2V57.1l.2-2.8.4-3.2.4-3.4.6-3.6.6-3.9.7-4.1.4-2,5.3-29.4-.4-.2L1178.3,3h-6.2l-1.6.2a46.6,46.6,0,0,0-5.9,1.2l-2.4.6-1.2.4h-.6l-.5.2L1156,7.3c-4.9,1.5-9.2,2.6-14.1,2.2-1.4-2.9-2.9-5.9-4.3-8.9-6.2,5.2-21-3.5-19.8,6.8-7.1-11.3-13.9-10.3-19.3-6.9s-10,9.4-14.4,8.6l4.3,12a12.2,12.2,0,0,0-6.7,4.4,50,50,0,0,0-5.4,8.5l4,10.4a5.3,5.3,0,0,1-1.1,2.8,2.6,2.6,0,0,1-1.9,1,3.9,3.9,0,0,1-2.3-.4,3.4,3.4,0,0,1-1.2-.6l-1.1-.8-.6-.4h0l4.7,18.5h.1a1.3,1.3,0,0,1,.1.6v.3h0V64.3c0-.5.1-1,.1-1.5a13.9,13.9,0,0,0,.3-1.7.6.6,0,0,1-.1.4V62c-.1.3-.1.6-.2,1s-.1.7-.1,1.1v.2a2.2,2.2,0,0,1,.1-.8,2.8,2.8,0,0,1,.1-.9V62h0v-.2a60.3,60.3,0,0,1,1.4-6l.6-1.8.2-.5v-.2h.1c13.8-41.1,3.8-11.4,6.9-20.6h-.1l-.5-.4a8,8,0,0,0-2.3-1.1h-.8l-.9-.2h-1.9l-3.6-.2c-4.9,0-9.5.6-13.4-.6s-7.2-4-9.9-11.1c-3.9,2.7-5.9-.1-8-4.5a.6.6,0,0,0,.8-.2l-1.3-.9c-1.3-2.8-2.7-6.2-4.3-8.9a48.2,48.2,0,0,0,3.6,8.6,13,13,0,0,0-4.6-.8,24.8,24.8,0,0,0-2.7.3,14.3,14.3,0,0,0-2.7.9c-.5-4.7-1-9.4-1.6-14.2h-.8c-1.9-3.2-2.7-1.8-2.6,1.6a93,93,0,0,0,1.8,14.5,15.1,15.1,0,0,0-4.2,6.2c-.9-5.6-1.9-8.2-3-9.3s-2.1-.6-3.3-.2-4.4,1.4-7.6-10.2c-.6,5.1-4.7,6.1-8.5,8.7s-7.1,7.2-5.6,17.7c-.7-2.8-2-4.2-.2-4.2l-2.1-1.3-2.1-1-2-.5a5.5,5.5,0,0,0-1.8.1,4.8,4.8,0,0,0-1.7,1.2,11.3,11.3,0,0,0-1.3,2.7c-2-4.9-4-9.8-6.1-14.6-.2,1.9-.5,3.7-.7,5.5l-.3,2.7v1c.1.1,0-.2.1.2h0v.2a6.1,6.1,0,0,0-.1,1.4,82.3,82.3,0,0,0,.2,12.1c-3.2-2.9-5.6-5.3-7.4-8.9a28.9,28.9,0,0,1-2.2-6.3,46.2,46.2,0,0,1-1.1-9.1c-.3,3-.5,5.6-.7,7.7s-.3,3.9-.5,5.3c-.3,2.9-.6,4.5-.9,6.1a42.5,42.5,0,0,0-.5,6.1A106.2,106.2,0,0,0,968.3,48l-4.6-10.4c-.9,1.6-.5,6.9-.3,11.1s-.1,7.2-2.9,4-7.2-2.6-10.5.4-6.6,8.3-9.8,14.8c-1.6,3.2-3.2,6.7-5,10.2l-1.5,2.6c-.2.5-.5.9-.7,1.3l-.2.3v.2h0l.4.2,1.8.6.8.4h.6l25.2,27.8h.1l.6.6.4.7a3.7,3.7,0,0,1,.6,1,.6.6,0,0,1,.1.4.1.1,0,0,1,0,.2h.1l6.4-20.5.2-.4.2-.6.3-.7.4-.9.3-.4.3-.6.6-1.1a51.7,51.7,0,0,1,4-5.6,93.9,93.9,0,0,1,6.6-7.4l2.2-2.3,1-1,1.1-1.2c-5.3,5-7.4,7-7.9,7.2s-.1-.3.3-.8.9-1.5,1.5-2.3,2.6-3.7,2.4-4.5-.6-.5-1.6-.1a24.3,24.3,0,0,0-4.9,3c5.1-4.8,7.2-8.5,13.3-10.3-4.6-.6-3.9-4.4-4.1-6.9s-.5-2.4-2.1-2.7-4.3,0-9,1.2c5.5-4.3,9.5-3.8,12.6-6.6-1.6.3-6.4,1.1-3.2-1.7s5.5-2,8.7-2.6c-1.2-1.4-3.3-1.8-6-1.6a38.7,38.7,0,0,0-9.9,2.5c-7.5,2.8-16.7,7.5-25.5,12.1,3-4.3,4-6.8,2.5-7.7s-5.2-.5-11.8,1.1c5-4.5,9.8-10.1,14.5-6.2-.2-.8-.3-2.6-.6-4.6s-.4-2.2-.7-3.3a8.4,8.4,0,0,0-.5-1.7l-.3-.9-.5-1.1c-1.5-3.1-3.3-5.7-5.7-7.1s-5.1-1.4-8.5.8c2.7-3.5-2.1-6.2-4.1-6.1-4.1-9.1-3.5-11-9.8-18.1l-.4,4.1c-8.1,5.3-9.7,4.7-10.2,2s-.2-3.2-.5-5a11,11,0,0,0-.6-2.6,4.9,4.9,0,0,0-1.6-1.9l1.4-1.4c-.2-6.2-1-9.6-1.9-11.1a3.2,3.2,0,0,0-3-1.7,2.7,2.7,0,0,1-2.7-2c-.8-1.7-1.5-5-2.4-11.7-1.9,3.9-3.7,7.7-5.6,11.5-7.1,10.9-7,5.1-7.5-3.1-.3-4.2-.7-8.9-2-12.3s-3.2-5.5-6.2-4.3c.2,2.7.3,5.4.4,8.2-1.9,1.3-2.7-.4-3.1-3.9s-.5-8.8-.7-14.3-.6-11.4-1.3-16.1-1.7-8.4-3.1-9.4,3.1-3.2,5.5-4.3c-3.2-4.6-5.3-5.8-6.7-5.2s-2.1,3.2-2.8,6.3a60.7,60.7,0,0,1-2.7,9.9c-1.3,3-3.2,5.5-6.1,6.4-.2-4.2,1.5-9.6,2.3-14.1s.8-8.3-3.2-9.1c-.8-1.7-3-.8-5.9,1.4a113.9,113.9,0,0,0-10,9.3c-3.7,3.6-7.2,6.9-10.6,8.7s-6.5,1.7-9.5-1.7a28.9,28.9,0,0,1,2.9,9.2,14,14,0,0,1-2.8,9.8c-1.9,1.2-4.2.8-6.9-.3a85.5,85.5,0,0,0-8.6-3.5c-2.9-.9-6-1.2-8.4.3s-4.3,4.5-4.8,10.3a9.8,9.8,0,0,1-2.7-4.4c-2.4,4-6.7,8.2-10.2,13a32,32,0,0,0-4.2,7.4,19.5,19.5,0,0,0-1,4,14.2,14.2,0,0,0,.3,4.1c-10.5-18-14.9-10.5-18.5-2.8S753.9-1.8,746-19.1l-11.7,7.6L733-15.2c-9.1,1.4-8.1,11-7.1,20.6-3-1.5-3.1-5.3-3.8-7.2-14.9-1.6-15.4.4-17.3,22.2L698.6,9.6c.3,7.7-25.1-9.9-30.5,8.5a13.3,13.3,0,0,1-1.1-5.6c-6.9,19.2-45.3-17-31.2,26.2l-3.9,14c12.5-1.9,6.5,18.6,14.2,23.3-3.2,4.4-16.9-7.2-12.5-11.8l1.7,1.7c-7.8-22.3-17.2-1.3-23.6-16A76.2,76.2,0,0,1,595,56.1l-2,.4h-.5l.4.8,2.3,5.6,1.7,4.5.8,1.9.6,1.8a24.7,24.7,0,0,1,1,2.9l.2.7.2.6.4,1.2c.5,1.7.8,2.7,1.1,4a7.5,7.5,0,0,1,.4,1.6l.3,1.3a39.4,39.4,0,0,1,.3,4,3.6,3.6,0,0,1-.2,1.5c0,.4.1-.1.3-.6a25.8,25.8,0,0,1,1.9-2.4l.3-.4.2-.2.3-.3.9-.9,1.3-1.2,1.4-1.2.8-.7,21.4-17.2.2-.3,1.1-1h0v-.7l-.2-.9-1.8-7c-1.1-4.8-2.2-9.5-3.5-14-2.5-9.1-5.5-17.4-9.4-24.1-3.4,6.5-6.9,13.1-10.6,19.5-1.2-3.2-2.6-6.3-3.9-9.4a28.6,28.6,0,0,1,4.3-9.6c2-2.4,4.3-3.3,6,.1,2.3-6.4-.9-7-4.7-5.3s-8.2,5.5-9.3,7.3c-.8-4.4-.4-7.6.8-10a12.3,12.3,0,0,1,5-5.1c3.9-2.3,8.5-2.6,7.2-4.5l-4.5-3.2-.3,3c-3.5,1.8-6.3,4.5-8.8,5.9s-4.6,1.5-7-1.8a14.8,14.8,0,0,1,.7-9c.9-2.5,1.9-4.3,1.2-5.3s.3-2.2-2.3-2.4a36.5,36.5,0,0,0-5.4-4.1,18.8,18.8,0,0,0-6.1-2.4c-.1,4.6,0,9.5-.1,14.6a20.7,20.7,0,0,1-5,2.1,9.7,9.7,0,0,0-2.9,1.5A5.6,5.6,0,0,0,569.7.5a16.7,16.7,0,0,0-.7,3q-.3,1.8-.6,4.5a18.6,18.6,0,0,0-.2-6.1c-.4-1.4-.9-2.1-1.4-2.3s-1.1.2-1.7.8l-.9,1.3A4.9,4.9,0,0,1,562,2.8c-2.2.5-5,.9-7.7,1.3l-8.1,1.1c-5.1.5-8.9.5-10.2-1.6-5.4,7.2-9.9,11.2-14.4,13.7l-1.7.8c-.2,0-.3.3-.4.5l-.4.6-.9,1.2-1.7,2.2-.8,1.2h-3.9l-2.5-.3c1.8,2.9,3.5,19.1-2.8,17.3.8-16.8-2-20.3-5.6-22.8s-8.2-3.7-10.4-15.8c2,8-2.2,9-6.3,10.7s-8,4.3-4.7,15.7c-5.2-2.8,0-12.5-3.7-20.5-6.4,6.3-13.2,4-20.3.5S440.7.5,432.7,2.3c-.5,4.4,1.9,11.2-1.8,17.6L423.4-2.4c-3.4,2-4,25.2-9.3,9.8.7,3.7,1.7,9.3-.5,10.6-7.8-5.6-15.9-7.4-25.2-7.3a67.4,67.4,0,0,0-7.5.5c-2.7.3-5.4.7-9.2,1.4l-1.5.3-1.6.4-1.9.5-2,.5-1.3.4-1.4.4-1.4.5c-.3.1-.2.1-.3.2H360l-1.8.9-3.8,1.7-4,2.1-2,1-2.2,1.2L344,24l-1.1.7-1.1.7-5,3.1c-1.8,1.2-3.8,2.6-5.6,4l-.3.2-.4.3-.8.7-1.6,1.4a38.4,38.4,0,0,0-3,2.8,28.2,28.2,0,0,0-3.3,3.6l-1.6,1.8-1.7,2.2-3,4.7a51.2,51.2,0,0,0-2.7,5.2,52,52,0,0,0-2.1,5.5,42.1,42.1,0,0,0-1.6,5.5c-.4,1.7-.8,3.5-1.1,5.3l-.6,4.7c-.2,1.7-.3,2.9-.4,4.2l-.3,3.8-.3,3.3v1.4l-.2,1.3-.2,1.4c-.1.4-.1.7-.2,1l-.6,2.1a8,8,0,0,1-.8,1.6l-.4.8-.5.5-1.1,1a3.4,3.4,0,0,1-1.4.5l-.7.2-.7.4-1.5.9a26.9,26.9,0,0,1-3.4,1.7c4.2-1.3,6.5-1.9,7.8-1.8a2.3,2.3,0,0,1,1.4.6,4.2,4.2,0,0,1,.4,1c1-.6,3.7-.9,6.9-1s6.8-.3,9.8-.7a65.4,65.4,0,0,1-18.4,7.8c7.7.8,6.6,2.6,5.4,4s-1.3,1.4-1,2.1,1.5,1.3,4.6,2.1a16.6,16.6,0,0,0-.3-2.2,49.7,49.7,0,0,0,12.2,2.4,117.2,117.2,0,0,0,15.9.3h4.6l5.1-.2,10.1-.6a113.9,113.9,0,0,1,19.4.1c-4.7-2.2-4.4-4-2.1-6.2s6.8-4.8,10.6-8,7-6.8,7.1-10.4a6.3,6.3,0,0,0-2.4-5.1,21.8,21.8,0,0,0-8.7-4.4c2.1-1.9,4.1-1.7,6.3-1.3a32,32,0,0,0,3.3.7,5.8,5.8,0,0,0,3.7-.9c-5.5-1.1-8.9-2.3-10.6-3.8a5.9,5.9,0,0,1-.8-1.1,1.4,1.4,0,0,1-.2-.6v-.5l.3-.4a.3.3,0,0,1,.1-.2l.3-.2h.6l-3.2.4-2.2.2-1,.2h1.5l2.6-.3-3,.3h-2.2l-3.1.4-3.1.2h-2.4a20.4,20.4,0,0,1-3.5,0h-3.3l-.7-.2h.4a1.9,1.9,0,0,1,.9.5l.4.3h.3l.4.3,1.4,1.1.6.6.3.4.5.4a25,25,0,0,1,3.4,3.9,45,45,0,0,1,4.1,5.4l.9,1.4.4.8.7.9,2.3,3.7c.8,1.3,1.5,2.6,2.2,3.9l.5,1,.3.5h0l.2.3.9,1,.5.6.7.4,1.4,1,.9.4.9.4,1,.4.4.2h.2c-26.1-80.2-7.2-22.2-13-40l.2.6c.3.8.5,1.6.8,2.4l.6,2.4.2,1.3.4,1.5c.5,2,1,4.1,1.3,6.1l.3,1.6v.9l.2.9c.3,1.2.5,2.5.7,3.7s.8,5.1,1.1,7.7c-.5-4.1-1.1-8.1-1.9-12.2q1.2,6.6,1.8,12l.5,3h.1v.5a2.9,2.9,0,0,0,.2.9c.1.4.3.7.4,1.1l.3,1.1.3,1.2a18.7,18.7,0,0,1,.7,2.2c.4-4.5.3-6.8-.3-8a2.4,2.4,0,0,0-1.8-1.5c-.2-.1-.2-.1-.2-.2v-.2h-.1V93.2c-.4-2.9-.8-5.5-1.2-7.9s-.5-2.4-.7-3.4-.1-1-.2-1.4-.1-.8-.2-1.2a30.6,30.6,0,0,0-1.1-5.1,37.8,37.8,0,0,1,1.1,5.2l.3,2a18.4,18.4,0,0,1,.5,2.5c.2.8.3,1.8.5,2.7l.2,1.1c.1.6.1,1.2.2,1.6l.4,1.4a10.2,10.2,0,0,0,.9,2.1,5.5,5.5,0,0,0,1.2,1.4c1.7,1.5,4.4,1.6,7.2,1.8,5.7.5,11.9,1.6,13.1,15.3,5.7.3-1.2-13.7,4.5-13.4l1.2,7.5,1.9-9.5c3.7,1.7,5.3,11,5.2,17.3-.9-.8-2.7,1.7-3.7,2.2,2.3,4.4,5.8,3.8,9,2.5s6-3.5,6.8-2l-5.5-4.8c8.2-3.1,17.4-2,26.6-1.9s18.7-1,27.2-8.3l-1.1-5.6c6.4-5,8.9-3.5,11.6-1.2s5.5,5.3,12.8,2.8l-.6,1.4c2.9-5.6,6.7-8.5,10.7-7.9-1.8,3.3,0,6.4,1.8,9.6s3.4,6.5,1,10.2l1.3-1,.6-.5.4-.3v-.2c.4-.6.6-1.2.9-1.7l1.3-2.8a24.3,24.3,0,0,0,1.4-4.9c.4-1.7.6-3.7,1.3-6.7A73.9,73.9,0,0,1,524.9,80c.2,3.1.3,6.1.4,9.2a99,99,0,0,1,3.8-10.3,15.3,15.3,0,0,1,5.8-6.4c-3,4.6-2.7,8-2.9,11.8a34.6,34.6,0,0,1-.7,6.1,39.8,39.8,0,0,1-2.7,7.7c.8,4.8,1.8,5.7,3.1,4.6s3-4.4,4-7.7a58.7,58.7,0,0,1,2.4-6.3c.2-.1-.4,2.6-2.9,10.9,3-8.3,4.7-13.4,5.4-16.2s.7-3.3.4-3-2.1,4.6-.7.4,3-9.9,5-15.4,4-10.4,4.6-10.3-1.1,7.7-3,17.4c-.9,4.9-1.8,10.1-2.5,14.5s-.9,7.5-.1,8.5c-.2-.6-1.3,1.7-1.5,1.1-1.2,4.8.4,2.9,1.9,1.9s2.7-1.2,0,5.7c4.9-7.7,5.1-6.6,5.6-6.2s1.2.1,7.4-9.7a31,31,0,0,0-5.1-1.1c2.2-1.3,7.1-7.2,11.2-10,2-1.4,3.7-2,4.7-1.2s1.1,3.2-.1,7.6a66.4,66.4,0,0,1-9.3,7.5c-1.6,3.7-.7,3.5.2,3.5s1.9.1.2,3.6c-6.8,8.4-8,7.9-9,6.5s-.9-1.6-1.8-1.6-2.5,1.1-5,4.5c-2.3,5,.3,2.3,1.8,1.3s1.3-.6.7.6-2.2,3.6-5.7,8.6c4.4-6.3,6.7-8.8,7.8-9.4s.8.7.5,2.2-.7,3.1-.2,3.4,2.3-.5,6.2-3.7l-8.3,9.3c.7-.5,2.1-1.6,3.4-2.4s2.5-1.2,2.6-.6c-3.9,3.2-7.8,6.6-11.6,10.2,2.5-2.1,3.4-2.2,3.4-1.5a15.5,15.5,0,0,1-2.2,4.2l-3,4.5c-.3.6-.5.9-.4,1.1h1.1l.6.2-.4-.5h0a.4.4,0,0,1-.1-.3c-.1-.2,0-.4,0-.7a7.9,7.9,0,0,1,1-1.6,34.7,34.7,0,0,1,4.3-4.2l5.7-5a27.1,27.1,0,0,0,5.1-5.7c1.9-.5,3.1-.4,3.7.1a1.2,1.2,0,0,1,.4,1,1.5,1.5,0,0,1-.1.6.4.4,0,0,1-.1.3v.7a.8.8,0,0,1,0,.7h0v.3l.2.6a19.5,19.5,0,0,0,.6,2.3c.2.8.3,1.6.5,2.4l.6,2.5.3,1.3a9.3,9.3,0,0,1,.4,1.3c.3,1,.5,1.9.8,2.8s.6,1.9,1,2.9l.5,1.4.7,1.6,1.5,3a34.5,34.5,0,0,0,2,3.2l1.1,1.7,1.4,1.6q1.4,1.7,3,3.3a51.2,51.2,0,0,0,8.3,6.2c1.7.9,3.4,1.8,5.3,2.6A16.9,16.9,0,0,0,591,163l3,1.1,3.2.8,3.2.8c2.2.4,4.3.7,6.6.9h3.3a18.2,18.2,0,0,0,3.3,0c2,0,4.3-.2,6.3-.4a49.7,49.7,0,0,0,5.8-1.1l2.7-.7,1.2-.3,1.3-.4a34.6,34.6,0,0,0,7.7-3.7,4.7,4.7,0,0,1-2.1,1.2l-1.7.4-2.1.3a45.4,45.4,0,0,1-10.5.1l-1.3-.2-1.3-.2-2.3-.7a5.6,5.6,0,0,1-2.9-1.8c-.5-.7-.4-1.5.3-2.5a22.7,22.7,0,0,1,4-3c7.3-.5,13.4-1.2,17.2-.5h.8l.6.2,1.2.5,1.9,1.2a34.9,34.9,0,0,1,3.5,3.2c9.2-7-6.7-10.4-5.4-19,9.6,11.5,2.6-7.7,5.2-13.9l5.1,10.9c14.9,1.7-7.4-24.3,7-20.6l2.6,17.2,3.7-6.4,4.6,13c1.7-12,4.7-10.5,12.1-9.7-4.9-7.1-8.3-20.2-3.3-23,6.5,4.9,2.8,11.4,9.4,6.4,1.5,7.6,3.7,17.1-4.2,8.5,1.3,3.7,1.5,7.6,2.8,11.3,7.3,5.7,10.4-2.7,13-4a5.4,5.4,0,0,1-4.1-1.3l3.7-20.1c3.6,3.4,3.8,7.3,4,11.1,1.6-2.1.8-7.9,3.5-10.3,3.3,9.3,7.7,18.4,5.1,24.7l5.6-14.6c2.5,3.6,10.2,8.3,10.3,12.2,8.1,2.6,5.9-23.7,16.6-20.2a8.7,8.7,0,0,1,.6-5.9c7.9-1.2,19.2,6.8,21.9-9.2l12,13.8c4.9-6.6-15.6-17.2-7.5-28.2,5.3-8.6,9.1,12.3,13.9,15.5.1-9.8-.8-29.2,12.2-19.5C793.4,81.2,790.5,79.7,788.8,81.9ZM837,52.2c-.5,1.5-1.3,4.6-1.9,6.4s-.9,2-.9-1.9c.8-7.8,1.4-10,1.8-9.7S836.6,50.1,837,52.2Zm70.2,38c-4.2.8-3.5-2-.7-6.3C908.2,84.9,908.8,86.8,907.2,90.2ZM1115.9-7.5a1.3,1.3,0,0,0,.1.6l-4-1.3-.8-.3Zm14.2,2.8c.2-1.8-.8-3.4-2.2-5,.8,3.1-1.6,3.6-5,3.3C1125.6-3.4,1128.2-1.5,1130.1-4.7ZM590.4-8.4c0,1.3.1,2.7.1,4.1C585.8-3.8,588-5.9,590.4-8.4Z" transform="translate(-282.2 82.9)"/><path class="cls-1" d="M884.8,84a31.5,31.5,0,0,1,5.5-3.8A7.1,7.1,0,0,0,884.8,84Z" transform="translate(-282.2 82.9)"/><path class="cls-1" d="M741.5,110.6h-.3a16.6,16.6,0,0,0,.6,2.1Z" transform="translate(-282.2 82.9)"/><path class="cls-1" d="M1134.2,128.2a15,15,0,0,1-5.3-4.7C1129.9,126.3,1131.5,128.3,1134.2,128.2Z" transform="translate(-282.2 82.9)"/><path class="cls-1" d="M1187.3-25.7l-6.1,2.7a5,5,0,0,1,3.6,1.4c1.1,1,2.1,2.2,3.1,3.3C1187.2-21.3,1185-25.6,1187.3-25.7Z" transform="translate(-282.2 82.9)"/><path class="cls-1" d="M1244.8,55c.7-1.5,1.6-.2,2.3-1.7l-.4-5.6C1243.6,48.1,1241.5,52.7,1244.8,55Z" transform="translate(-282.2 82.9)"/><path class="cls-1" d="M1200.6,17.3c2,10.9,5.3,7.9,9.9,6.4-.3,0-.6.1-.8-.1.1-7.4-1-10.1-2.8-10.3S1202.7,15.2,1200.6,17.3Z" transform="translate(-282.2 82.9)"/><path class="cls-1" d="M1211.5,23.5a6.7,6.7,0,0,1,4.4.3C1216.3,17.8,1214,22.3,1211.5,23.5Z" transform="translate(-282.2 82.9)"/><path class="cls-1" d="M1142-12.5c3.9,2.6-4.2-13-.7-8.9-1.3-6.5-4.5-2.5-5.3,2.3-.5,2.4-.3,5,.6,6.5S1139.2-10.7,1142-12.5Z" transform="translate(-282.2 82.9)"/><path class="cls-1" d="M1208.3,53.5c-.9-4.5-1.8-9-2.9-13.6-.3,3.5-.5,6.9-.6,10.3l1.8,1.7Z" transform="translate(-282.2 82.9)"/><path class="cls-1" d="M1178.4,37.7l7.3,3.4c-.8-2.1-.4-3.3.3-4.2C1182.1,36.4,1177,34.2,1178.4,37.7Z" transform="translate(-282.2 82.9)"/><path class="cls-1" d="M1186,36.9c2.1.3,3.9.1,4.5-1.8C1189.5,35.1,1187.2,35.4,1186,36.9Z" transform="translate(-282.2 82.9)"/><path class="cls-1" d="M1201.7,55l-2-3.5-1.8-1.5-1.7-1.7A63.5,63.5,0,0,0,1201.7,55Z" transform="translate(-282.2 82.9)"/><path class="cls-1" d="M1146.7,42.2c2.7,1.9,5.4,4,8.2,6.1,3.6,5.2,4,7.5.7,4.6S1148.8,46.4,1146.7,42.2Z" transform="translate(-282.2 82.9)"/><path class="cls-1" d="M1158.2,71.8a6.8,6.8,0,0,1-1.2-1.2c-.2-.2-.5-.4-.6-.6l-.3-.5-1.3-2.1-3.6-5.3L1164,78.7l-3.4-3.6-.9-1-.4-.4-.2-.3-.2-.2Z" transform="translate(-282.2 82.9)"/><path class="cls-1" d="M1172.1,80.9c1.6,2.2,5.1,6,7.3,8.7s3.4,4.5.9,3a70.8,70.8,0,0,0-5.7-6.8C1172.8,83.6,1171.4,81.7,1172.1,80.9Z" transform="translate(-282.2 82.9)"/><polygon class="cls-1" points="827.7 174.7 829.1 174 819.9 150.2 827.7 174.7"/><path class="cls-1" d="M1033.3,149.4c1.5,8.3.8-17.5,2.5-7.4a16.6,16.6,0,0,0-.3-7.2,19.5,19.5,0,0,1-.4-6.6C1033.2,134.1,1032.6,129.5,1033.3,149.4Z" transform="translate(-282.2 82.9)"/><path class="cls-1" d="M1035.1,128.2c.3-.9.7-2,1.1-3.6A17.7,17.7,0,0,0,1035.1,128.2Z" transform="translate(-282.2 82.9)"/><path class="cls-1" d="M288,110.4c-2,.2-3.9.4-5.8.4,2.7.2,5.5.4,8.3.4Z" transform="translate(-282.2 82.9)"/><path class="cls-1" d="M301,115.7l-13.7-2.5c3.7,1.1,7.3,2.2,10.7,3.5C297.9,116.2,297.7,115.3,301,115.7Z" transform="translate(-282.2 82.9)"/><path class="cls-1" d="M834,89l1.1-4.5c1-5,.9-5.3.6-6C835.3,82,834.7,85.5,834,89Z" transform="translate(-282.2 82.9)"/><path class="cls-1" d="M824,79.8l.4.2c-1.9-4.5-3.8-9-5.9-13.4C820.4,71,822.2,75.4,824,79.8Z" transform="translate(-282.2 82.9)"/><path class="cls-1" d="M787,117.4c2.2-.4,3.2-4.5,5.5-4.8C789.2,117,778.8,101,787,117.4Z" transform="translate(-282.2 82.9)"/></svg>