<?xml version="1.0" encoding="utf-8"?>
<!-- Generator: Adobe Illustrator 25.3.1, SVG Export Plug-In . SVG Version: 6.00 Build 0)  -->
<svg version="1.1" id="Layer_1" xmlns="http://www.w3.org/2000/svg" xmlns:xlink="http://www.w3.org/1999/xlink" x="0px" y="0px"
	 viewBox="0 0 56.1 149.1" style="enable-background:new 0 0 56.1 149.1;" xml:space="preserve">
<style type="text/css">
	.st0{fill:#FFFDFD;}
</style>
<g>
	<path class="st0" d="M47.2,80.3c0,0-0.1,0-0.1,0c0,0-0.7-1.1-0.8-1.2c-0.3-0.5-0.6-1-0.9-1.5c-0.6-0.9-1.3-1.7-2.2-2.3
		s-2.1-0.8-3.1-0.5c-2.2,0.7-3.1,3.9-3,6c0-0.6-0.4-1.3-0.7-1.8c-0.3-0.6-0.6-1.2-1-1.7c-0.7-0.9-1.6-1.7-2.8-1.9
		c-2.5-0.4-4,2-5.6,3.4c-0.6,0.6-1.3,0.8-2.1,0.5c-0.6-0.2-1.1-0.6-1.5-1.1c-0.4-0.5-0.8-0.9-1.3-1.3c-0.1-0.1-0.3-0.2-0.5-0.2
		c0.2,0.3,0.3,0.5,0.5,0.8c0.2,0.2,0.4,0.5,0.6,0.7c1,1.2,2.5,2.7,4.2,2.4c0.7-0.1,1.3-0.5,1.9-1c1-0.9,2.2-2.6,3.8-2.2
		c0.4,0.1,0.8,0.4,1.1,0.7c1.3,1.1,2.3,2.6,3.3,4c0.1,0.1,0.1,0.2,0.2,0.1c0.1,0,0.1-0.1,0.1-0.2c0.2-1.2,0.5-2.4,1-3.5
		c0.4-0.9,1-2,1.9-2.4c0.6-0.2,1.3-0.1,1.9,0.2c0.7,0.3,1.3,0.9,1.9,1.3c0.5,0.4,1,0.9,1.5,1.3c0.4,0.4,0.8,1,1.3,1.3
		c0.1,0.1,0.2,0.1,0.3,0C47.2,80.4,47.2,80.3,47.2,80.3z M47.1,80.3C47.1,80.4,47.1,80.4,47.1,80.3L47.1,80.3L47.1,80.3z"/>
	<path class="st0" d="M45.8,39.2"/>
	<path class="st0" d="M49.8,27.3c-0.8,1.8-1.7,2.3-1.7,2.3s3.3-6.6-8.6-6.9c-13.3-0.4-14.3-0.4-14.3-0.4s2.1,0,3.5-0.1
		c6-0.2,15-2.5,18-1.4C49.8,21.9,51.1,24.6,49.8,27.3z"/>
	<path class="st0" d="M36.1,18.8c0,0-3.6,1.7-5.3,1.4c-3.9-0.7-3.4-3.9-3.4-3.9s0.1-4.1,4.8-4.3C36.8,11.8,36.1,18.8,36.1,18.8z"/>
	<path class="st0" d="M54.3,26.2c-3.6,2.4-7,10-8.5,13c1.5-3.1,2.4-6.4,4.1-9.4c0.5-0.8,1.1-1.7,1.7-2.4c0.3-0.4,0.7-0.7,1-1.1
		c0.8-1,1-0.9,0.5-1.3c-0.4-0.3-0.7-0.7-1.1-1.1c-0.1-0.1-0.3-0.4-0.4-0.6c0-0.1,0.1-0.8,0.3-1.1c0.2-0.4,0.4-0.8,0.7-1.1
		c0.2-0.2,0.5-0.4,0.6-0.7c0.1-0.3,0-0.6-0.1-0.9c-0.2-0.7-0.3-1.3-0.5-1.9c-0.3-1-0.6-2-0.9-3c0,0-3,0.6-7.1-1.2
		c-4-1.7-6.7-5.1-6.7-5.1s-9.3-1-16.2,6c-2.4,2.4-3.1,10-6.2,15.1c-1.5,2.5-5.9,8.6-6.7,10.1C7.9,40.9,1.8,54.1,6,71.7
		c0.8,3.5,1.7,7,3,10.3c1.3,3.4,3.1,6.7,5.2,9.7c0,0-0.3-1.1-0.2-2.2c-0.1-2.1,0.4-4.4,0.4-4.4l0.9,4.4c0.4,1.5,1.3,3.7,1.6,4.4
		c1.1,2.4,2.3,4.3,3.9,6.4c0.2,0.3,0.4,0.5,0.7,0.8c0,0,3.4,2.9,3.7,3.4c0.4,0.4,6.6,12.7,10.4,16.3c1,1.2,2.1,2.4,2.9,3.8
		c-0.6-6-0.2-12,1.3-17.8c1.9-7.5,6.2-14.2,9-21.3c2.5-6.4,4.1-13.5,2.9-20.3c1,5.3,1.5,10.9,0.7,16.3c-0.8,5.2-2.9,10.1-4.8,14.9
		c-0.4,1.1-0.9,2.2-1.3,3.3c-1.7,4.7-3,9.6-2.7,14.6c0.3,4.4,2.7,8.4,4.3,12.4c1.8,4.8,3.8,9.7,4.3,14.8c0.1,0.5,0.1,1,0,1.5
		c0,0.1-0.1,0.2-0.2,0.3c-1.6-1.5-3.3-3.5-4.8-5.9c-1.9-3.1-4.2-10.3-4.6-11.7c0.4,1.3,2.2,7.8,4.3,12.4c1.4,3,3.6,5.7,4.3,6.4
		c-0.1,0.1-1.3-0.7-1.7-1c-7.4-5.7-13.9-12.5-18.3-20.6c-2.7-4.8-4.8-10-6.2-15.4c0.3,1.3,0.5,2.7,0.8,4.1c0.9,3.4,2.1,6.7,3.6,9.8
		c4.3,8.8,11,15.5,18.2,21.9c0.7,0.7,1.3,1.1,2.2,1.7c0.5,0.4,1.3,1,1.6,1.2c0.7,0.6,0.6,1,0,1.3c-0.6,0.3-2.1,0.7-3.4,0.6
		c-9.8-0.3-17.3-10.1-21.8-18.1c-0.4-0.7-0.8-1.5-1.2-2.2c-2.5-4.8-4.1-9.9-6.5-14.7c-2.5-4.9-5.2-9.8-8-14.6
		c-2.7-4.6-4.7-9.9-6.4-14.9c-0.7-1.9-1.2-3.8-1.8-5.7c-1.3-4.7-2.1-9.5-2.1-14.4c-0.1-13.5,8-23.4,8.4-24.3
		C9.2,38.5,15,29,15.3,26.1c1.5-7.4,0.8-16.6,13.4-19.5c8.5-2,13.3-5.8,13.4-6c-0.1,0.2-2.6,7.1,3.7,9.6c5.4,2.1,8.9-0.2,9-0.3
		c0,0.1-1.4,5.9,0.2,9.2C56.7,22.3,55.5,25.4,54.3,26.2z"/>
</g>
</svg>
