<svg xmlns="http://www.w3.org/2000/svg" width="62.395" height="62.381" viewBox="0 0 62.395 62.381">
  <path id="Icon_awesome-instagram" data-name="Icon awesome-instagram" d="M31.2,17.435A15.994,15.994,0,1,0,47.193,33.428,15.968,15.968,0,0,0,31.2,17.435Zm0,26.392a10.4,10.4,0,1,1,10.4-10.4,10.417,10.417,0,0,1-10.4,10.4ZM51.578,16.78a3.73,3.73,0,1,1-3.73-3.73A3.722,3.722,0,0,1,51.578,16.78Zm10.593,3.786c-.237-5-1.378-9.424-5.039-13.071S49.058,2.707,44.061,2.457c-5.15-.292-20.587-.292-25.738,0-4.983.237-9.41,1.378-13.071,5.025S.465,15.555.214,20.553C-.078,25.7-.078,41.14.214,46.29c.237,5,1.378,9.424,5.039,13.071s8.073,4.788,13.071,5.039c5.15.292,20.587.292,25.738,0,5-.237,9.424-1.378,13.071-5.039s4.788-8.073,5.039-13.071c.292-5.15.292-20.573,0-25.724Zm-6.654,31.25a10.527,10.527,0,0,1-5.93,5.93C45.481,59.375,35.737,59,31.2,59s-14.3.362-18.388-1.253a10.527,10.527,0,0,1-5.93-5.93C5.253,47.71,5.629,37.966,5.629,33.428s-.362-14.3,1.253-18.388a10.527,10.527,0,0,1,5.93-5.93C16.918,7.482,26.662,7.858,31.2,7.858S45.5,7.5,49.587,9.111a10.527,10.527,0,0,1,5.93,5.93c1.629,4.106,1.253,13.85,1.253,18.388S57.146,47.724,55.517,51.816Z" transform="translate(0.005 -2.238)" fill="#7c7877"/>
</svg>
